<svg xmlns="http://www.w3.org/2000/svg" viewBox="0 0 200 200" width="200" height="200">
  <g transform="translate(32.85, 12.00) scale(0.7608) translate(-940.65, -333.00)">
    <path d="M1046.38,373.35C1046.24,377.78 1045.86,382.20 1045.30,386.59C1045.02,388.80 1044.69,391.01 1044.31,393.21C1044.12,394.31 1043.92,395.42 1043.70,396.51C1043.48,397.63 1043.32,398.80 1042.90,399.86C1042.90,399.87 1042.90,399.87 1042.89,399.88C1042.61,401.03 1042.16,402.17 1041.71,403.22C1041.04,404.81 1040.22,406.40 1039.17,407.78C1038.21,409.05 1036.91,409.86 1035.41,410.37C1033.87,410.89 1032.22,411.17 1030.61,411.36C1028.85,411.56 1027.06,411.52 1025.40,410.86C1025.33,410.82 1025.29,410.77 1025.26,410.71C1021.38,413.73 1016.51,415.51 1011.25,415.51L1010.87,415.51C1006.33,415.51 1002.10,414.19 998.54,411.90C998.52,411.93 998.50,411.95 998.48,411.96C997.42,412.49 996.29,412.85 995.13,413.05C992.78,413.47 990.33,413.36 987.98,413.02C985.64,412.69 983.44,411.92 981.58,410.44C978.05,407.61 975.99,403.14 974.82,398.87C973.55,394.30 973.22,389.53 972.98,384.81C972.70,379.35 972.58,373.87 973.10,368.42C974.01,359.04 977.03,349.48 983.84,342.68C989.94,336.58 998.54,333.00 1007.19,333.18C1016.02,333.38 1024.69,337.36 1030.54,343.98C1030.61,344.05 1030.61,344.14 1030.58,344.21C1034.71,344.23 1038.43,346.77 1040.85,349.98C1045.82,356.53 1046.60,365.41 1046.38,373.35" fill="#f1d1a7"/>
    <path d="M982.99,380.27C982.92,380.20 982.76,380.30 982.83,380.40C984.06,382.01 984.98,383.88 985.35,385.88C985.52,386.81 985.75,388.09 985.33,388.98C985.23,389.17 985.18,389.28 984.97,389.31C984.72,389.34 984.71,389.24 984.60,389.05C984.46,388.82 984.37,388.56 984.32,388.30C984.22,387.73 984.40,387.29 984.51,386.74C984.54,386.62 984.37,386.48 984.28,386.60C983.67,387.35 983.84,389.07 984.62,389.66C984.94,389.90 985.28,389.69 985.49,389.40C985.85,388.91 985.90,388.24 985.89,387.65C985.85,384.96 984.82,382.25 982.99,380.27C982.92,380.20 982.76,380.30 982.83,380.40C984.06,382.01 984.98,383.88 985.35,385.88C985.52,386.81 985.75,388.09 985.33,388.98C985.23,389.17 985.18,389.28 984.97,389.31C984.72,389.34 984.71,389.24 984.60,389.05C984.46,388.82 984.37,388.56 984.32,388.30C984.22,387.73 984.40,387.29 984.51,386.74C984.54,386.62 984.37,386.48 984.28,386.60C983.67,387.35 983.84,389.07 984.62,389.66C984.94,389.90 985.28,389.69 985.49,389.40C985.85,388.91 985.90,388.24 985.89,387.65C985.85,384.96 984.82,382.25 982.99,380.27M982.83,380.40C984.06,382.01 984.98,383.88 985.35,385.88C985.52,386.81 985.75,388.09 985.33,388.98C985.23,389.17 985.18,389.28 984.97,389.31C984.72,389.34 984.71,389.24 984.60,389.05C984.46,388.82 984.37,388.56 984.32,388.30C984.22,387.73 984.40,387.29 984.51,386.74C984.54,386.62 984.37,386.48 984.28,386.60C983.67,387.35 983.84,389.07 984.62,389.66C984.94,389.90 985.28,389.69 985.49,389.40C985.85,388.91 985.90,388.24 985.89,387.65C985.85,384.96 984.82,382.25 982.99,380.27C982.92,380.20 982.76,380.30 982.83,380.40M1037.51,389.65C1038.30,389.05 1038.47,387.33 1037.85,386.58C1037.75,386.47 1037.59,386.60 1037.62,386.73C1037.73,387.27 1037.91,387.71 1037.81,388.28C1037.76,388.53 1037.69,388.75 1037.57,388.97C1037.53,389.06 1037.44,389.27 1037.34,389.32C1037.13,389.43 1036.92,389.17 1036.84,389.03C1036.38,388.12 1036.61,386.82 1036.78,385.86C1037.16,383.86 1038.07,381.99 1039.30,380.38C1039.37,380.29 1039.23,380.17 1039.14,380.25C1037.31,382.23 1036.28,384.94 1036.24,387.64C1036.23,388.22 1036.29,388.83 1036.61,389.33C1036.80,389.64 1037.17,389.91 1037.51,389.65M1011.25,415.09L1010.87,415.09C998.44,415.09 988.32,404.98 988.32,392.54L988.32,379.82C988.75,378.92 989.06,377.98 989.26,377.01C989.37,376.46 989.45,375.90 989.49,375.34C989.52,374.77 989.55,374.18 989.38,373.63C989.38,373.63 989.38,373.62 989.37,373.62C989.82,373.25 990.23,372.82 990.61,372.34C991.19,371.60 991.66,370.79 992.07,369.95C992.42,369.25 992.74,368.49 992.78,367.71C992.92,367.78 993.07,367.84 993.21,367.90C994.87,368.63 996.57,369.20 998.40,369.30C1000.21,369.40 1002.03,369.12 1003.79,368.69C1009.89,367.22 1015.63,364.27 1020.48,360.30C1021.85,359.19 1023.15,357.98 1024.37,356.69C1025.11,355.90 1025.87,355.08 1026.54,354.20C1026.37,354.81 1026.28,355.45 1026.26,356.04C1026.20,357.87 1026.72,359.69 1027.32,361.40C1028.45,364.59 1030.17,367.65 1032.81,369.83C1033.12,370.09 1033.45,370.34 1033.79,370.57L1033.79,392.54C1033.79,404.98 1023.68,415.09 1011.25,415.09M1034.21,392.54L1034.21,381.59C1034.23,381.59 1034.25,381.57 1034.26,381.55C1034.69,380.66 1035.13,379.79 1035.72,378.99C1036.31,378.19 1037.02,377.36 1037.98,377.03C1038.78,376.75 1039.67,376.93 1040.36,377.42C1041.20,378.01 1041.48,378.92 1041.48,379.92C1041.47,382.00 1041.22,384.15 1040.88,386.21C1040.56,388.16 1040.11,390.24 1039.15,391.99C1038.67,392.90 1037.98,393.73 1037.00,394.12C1035.99,394.53 1035.10,394.35 1034.17,393.87C1034.20,393.43 1034.21,392.99 1034.21,392.54M985.53,394.27C984.59,394.02 983.85,393.37 983.32,392.58C982.23,390.96 981.75,388.89 981.38,386.99C980.98,384.91 980.81,382.78 980.68,380.67C980.62,379.68 980.60,378.65 981.29,377.86C981.84,377.25 982.67,376.87 983.50,376.91C984.57,376.98 985.42,377.77 986.07,378.56C986.82,379.49 987.35,380.51 987.87,381.57C987.88,381.59 987.89,381.60 987.90,381.60L987.90,392.54C987.90,393.00 987.92,393.44 987.95,393.88C987.16,394.29 986.42,394.50 985.53,394.27M1040.85,349.98C1038.43,346.77 1034.71,344.23 1030.58,344.21C1030.61,344.14 1030.61,344.05 1030.55,343.98C1024.69,337.36 1016.02,333.38 1007.19,333.18C998.54,333.00 989.94,336.58 983.84,342.68C977.03,349.48 974.01,359.04 973.10,368.42C972.58,373.87 972.70,379.35 972.98,384.81C973.22,389.53 973.56,394.30 974.82,398.87C975.99,403.14 978.05,407.61 981.58,410.44C983.44,411.92 985.64,412.69 987.98,413.02C990.33,413.36 992.78,413.47 995.13,413.05C996.29,412.85 997.42,412.49 998.48,411.96C998.50,411.95 998.52,411.93 998.54,411.90C1002.10,414.19 1006.33,415.51 1010.87,415.51L1011.25,415.51C1016.51,415.51 1021.38,413.73 1025.26,410.71C1025.29,410.77 1025.33,410.82 1025.40,410.85C1027.06,411.52 1028.85,411.56 1030.61,411.36C1032.22,411.17 1033.87,410.89 1035.41,410.37C1036.91,409.86 1038.21,409.05 1039.17,407.78C1040.22,406.40 1041.04,404.81 1041.71,403.22C1042.16,402.17 1042.61,401.03 1042.90,399.88C1042.90,399.87 1042.90,399.87 1042.90,399.86C1043.32,398.80 1043.48,397.63 1043.70,396.51C1043.92,395.42 1044.12,394.31 1044.31,393.21C1044.69,391.01 1045.02,388.80 1045.30,386.59C1045.86,382.20 1046.24,377.78 1046.38,373.35C1046.60,365.41 1045.82,356.53 1040.85,349.98M982.99,380.27C982.92,380.20 982.76,380.30 982.83,380.40C984.06,382.01 984.98,383.88 985.35,385.88C985.52,386.81 985.75,388.09 985.33,388.98C985.23,389.17 985.18,389.28 984.97,389.31C984.72,389.34 984.71,389.24 984.60,389.05C984.46,388.82 984.37,388.56 984.32,388.30C984.22,387.73 984.40,387.29 984.51,386.74C984.54,386.62 984.37,386.48 984.28,386.60C983.67,387.35 983.84,389.07 984.62,389.66C984.94,389.90 985.28,389.69 985.49,389.40C985.85,388.91 985.90,388.24 985.89,387.65C985.85,384.96 984.82,382.25 982.99,380.27M1039.30,380.38C1039.37,380.29 1039.23,380.17 1039.14,380.25C1037.31,382.23 1036.28,384.94 1036.24,387.64C1036.23,388.22 1036.29,388.83 1036.61,389.33C1036.80,389.64 1037.17,389.91 1037.51,389.65C1038.30,389.05 1038.47,387.33 1037.85,386.58C1037.75,386.47 1037.59,386.60 1037.62,386.73C1037.73,387.27 1037.91,387.71 1037.81,388.28C1037.76,388.53 1037.69,388.75 1037.57,388.97C1037.53,389.06 1037.44,389.27 1037.34,389.32C1037.13,389.43 1036.92,389.17 1036.84,389.03C1036.38,388.12 1036.61,386.82 1036.78,385.86C1037.16,383.86 1038.07,381.99 1039.30,380.38C1039.37,380.29 1039.23,380.17 1039.14,380.25C1037.31,382.23 1036.28,384.94 1036.24,387.64C1036.23,388.22 1036.29,388.83 1036.61,389.33C1036.80,389.64 1037.17,389.91 1037.51,389.65C1038.30,389.05 1038.47,387.33 1037.85,386.58C1037.75,386.47 1037.59,386.60 1037.62,386.73C1037.73,387.27 1037.91,387.71 1037.81,388.28C1037.76,388.53 1037.69,388.75 1037.57,388.97C1037.53,389.06 1037.44,389.27 1037.34,389.32C1037.13,389.43 1036.92,389.17 1036.84,389.03C1036.38,388.12 1036.61,386.82 1036.78,385.86C1037.16,383.86 1038.07,381.99 1039.30,380.38M982.99,380.27C982.92,380.20 982.76,380.30 982.83,380.40C984.06,382.01 984.98,383.88 985.35,385.88C985.52,386.81 985.75,388.09 985.33,388.98C985.23,389.17 985.18,389.28 984.97,389.31C984.72,389.34 984.71,389.24 984.60,389.05C984.46,388.82 984.37,388.56 984.32,388.30C984.22,387.73 984.40,387.29 984.51,386.74C984.54,386.62 984.37,386.48 984.28,386.60C983.67,387.35 983.84,389.07 984.62,389.66C984.94,389.90 985.28,389.69 985.49,389.40C985.85,388.91 985.90,388.24 985.89,387.65C985.85,384.96 984.82,382.25 982.99,380.27" fill="#4b3e37"/>
    <path d="M1036.78,385.86C1036.61,386.82 1036.38,388.12 1036.84,389.03C1036.92,389.17 1037.13,389.43 1037.34,389.32C1037.44,389.27 1037.53,389.06 1037.57,388.97C1037.69,388.75 1037.76,388.53 1037.81,388.28C1037.91,387.71 1037.73,387.27 1037.62,386.73C1037.59,386.60 1037.75,386.47 1037.85,386.58C1038.46,387.33 1038.30,389.05 1037.51,389.65C1037.17,389.91 1036.80,389.64 1036.61,389.33C1036.29,388.83 1036.23,388.22 1036.24,387.64C1036.28,384.94 1037.31,382.23 1039.14,380.25C1039.23,380.17 1039.37,380.29 1039.30,380.38C1038.07,382.00 1037.16,383.86 1036.78,385.86" fill="#231f20"/>
    <path d="M985.89,387.66C985.90,388.24 985.85,388.91 985.49,389.41C985.28,389.69 984.94,389.90 984.62,389.66C983.84,389.07 983.67,387.35 984.28,386.60C984.37,386.48 984.54,386.62 984.51,386.74C984.41,387.29 984.22,387.73 984.32,388.30C984.37,388.56 984.46,388.82 984.60,389.05C984.71,389.24 984.72,389.34 984.97,389.31C985.18,389.28 985.23,389.17 985.33,388.98C985.75,388.09 985.52,386.81 985.35,385.88C984.97,383.88 984.06,382.01 982.83,380.40C982.76,380.30 982.91,380.20 982.99,380.27C984.82,382.25 985.85,384.96 985.89,387.66" fill="#231f20"/>
    <path d="M987.95,393.88C987.16,394.29 986.42,394.50 985.53,394.27C984.59,394.02 983.85,393.37 983.32,392.58C982.23,390.96 981.75,388.89 981.38,386.99C980.98,384.91 980.80,382.78 980.68,380.67C980.62,379.68 980.61,378.65 981.29,377.86C981.84,377.25 982.67,376.87 983.50,376.91C984.57,376.98 985.42,377.77 986.07,378.56C986.82,379.49 987.35,380.51 987.87,381.57C987.88,381.59 987.89,381.60 987.91,381.60L987.91,392.55C987.91,393.00 987.92,393.44 987.95,393.88M1034.17,393.87C1034.20,393.43 1034.21,392.99 1034.21,392.55L1034.21,381.59C1034.23,381.59 1034.25,381.57 1034.25,381.55C1034.69,380.66 1035.13,379.79 1035.72,378.99C1036.31,378.19 1037.02,377.36 1037.98,377.03C1038.78,376.75 1039.67,376.93 1040.36,377.42C1041.20,378.01 1041.48,378.92 1041.48,379.92C1041.47,382.00 1041.22,384.16 1040.89,386.21C1040.56,388.16 1040.11,390.24 1039.15,391.99C1038.67,392.90 1037.98,393.73 1037.00,394.12C1035.99,394.53 1035.10,394.35 1034.17,393.87M1045.93,372.59C1045.85,376.83 1045.50,381.07 1045.00,385.28C1044.71,387.76 1044.35,390.23 1043.93,392.68C1043.73,393.88 1043.51,395.09 1043.27,396.29C1043.16,396.87 1043.02,397.45 1042.90,398.04C1042.90,398.05 1042.90,398.05 1042.90,398.06C1042.45,399.47 1042.16,400.90 1041.61,402.27C1041.02,403.81 1040.26,405.29 1039.36,406.68C1038.43,408.11 1037.28,409.14 1035.66,409.74C1034.27,410.27 1032.76,410.55 1031.29,410.75C1029.41,411.03 1027.46,411.09 1025.66,410.41C1030.43,406.56 1033.64,400.83 1034.14,394.35C1034.71,394.82 1035.58,394.91 1036.28,394.79C1037.23,394.64 1038.06,394.12 1038.68,393.41C1040.17,391.73 1040.74,389.23 1041.15,387.09C1041.38,385.89 1041.54,384.68 1041.66,383.47C1041.77,382.24 1041.92,380.97 1041.89,379.74C1041.86,378.78 1041.56,377.90 1040.83,377.27C1040.21,376.75 1039.38,376.44 1038.56,376.50C1037.46,376.59 1036.57,377.32 1035.89,378.14C1035.23,378.91 1034.58,379.81 1034.21,380.79L1034.21,370.85C1034.46,371.02 1034.72,371.17 1034.99,371.31C1035.74,371.71 1036.54,372.12 1037.39,372.18C1037.47,372.18 1037.50,372.07 1037.44,372.04C1036.80,371.70 1036.10,371.49 1035.46,371.16C1035.03,370.94 1034.61,370.70 1034.21,370.43C1034.07,370.34 1033.93,370.25 1033.79,370.15C1033.71,370.09 1033.63,370.03 1033.54,369.96C1032.26,369.00 1031.16,367.81 1030.24,366.50C1029.30,365.13 1028.55,363.63 1027.95,362.09C1027.33,360.49 1026.78,358.80 1026.64,357.09C1026.56,356.20 1026.61,355.30 1026.83,354.44C1027.05,353.55 1027.48,352.82 1028.02,352.08C1028.10,351.96 1027.93,351.85 1027.83,351.94C1027.46,352.29 1027.16,352.73 1026.92,353.20C1026.14,354.09 1025.41,355.01 1024.61,355.87C1023.59,356.97 1022.52,358.01 1021.39,359.00C1019.10,361.01 1016.58,362.76 1013.91,364.25C1011.26,365.71 1008.46,366.89 1005.56,367.75C1002.11,368.77 998.51,369.37 995.03,368.15C994.27,367.88 993.52,367.57 992.77,367.23L992.77,367.21C992.76,367.13 992.65,367.10 992.63,367.16C991.76,366.76 990.91,366.31 990.11,365.82C989.48,365.44 988.89,365.01 988.33,364.53C988.20,364.42 988.06,364.30 987.93,364.17C987.32,363.59 986.78,362.95 986.32,362.23C986.19,362.03 985.88,362.21 986.00,362.42C986.48,363.34 987.14,364.13 987.91,364.80C988.05,364.92 988.18,365.03 988.32,365.15C989.58,366.16 991.07,366.93 992.54,367.60C992.21,369.23 991.37,370.74 990.36,372.04C989.81,372.73 989.19,373.36 988.45,373.83C988.41,373.86 988.37,373.88 988.32,373.91C988.18,373.99 988.05,374.07 987.91,374.13C987.34,374.40 986.75,374.58 986.17,374.83C986.12,374.85 986.13,374.94 986.19,374.95C986.78,375.03 987.37,374.85 987.91,374.59C988.05,374.53 988.19,374.45 988.32,374.38C988.40,374.33 988.47,374.29 988.54,374.24C988.76,374.11 988.97,373.96 989.17,373.79C989.10,374.25 989.12,374.70 989.09,375.17C989.04,375.75 988.97,376.33 988.84,376.90C988.72,377.51 988.54,378.11 988.32,378.69C988.21,379.02 988.06,379.33 987.91,379.65C987.86,379.79 987.78,379.93 987.71,380.06C987.62,380.23 987.76,380.39 987.91,380.40L987.91,380.77C987.57,379.94 987.04,379.17 986.51,378.48C985.90,377.69 985.15,376.94 984.18,376.64C982.51,376.13 980.64,377.27 980.32,378.97C980.09,380.11 980.30,381.37 980.39,382.52C980.49,383.73 980.62,384.94 980.81,386.15C981.17,388.40 981.68,390.95 983.00,392.86C983.60,393.73 984.44,394.45 985.48,394.73C986.27,394.94 987.32,394.92 987.99,394.38C988.55,401.55 992.43,407.81 998.08,411.61C995.88,412.66 993.43,412.91 991.03,412.81C988.60,412.72 986.04,412.43 983.84,411.32C979.80,409.30 977.33,404.88 975.91,400.77C974.39,396.40 973.88,391.77 973.59,387.18C973.26,382.05 973.07,376.90 973.34,371.76C973.82,362.35 976.09,352.54 982.24,345.12C987.65,338.60 995.77,334.39 1004.22,333.74C1012.85,333.07 1021.65,336.19 1028.03,342.03C1028.80,342.72 1029.52,343.45 1030.21,344.22L1030.13,344.22C1029.87,344.24 1029.87,344.62 1030.13,344.62C1038.66,344.67 1043.29,353.15 1044.92,360.47C1045.81,364.44 1046.02,368.53 1045.93,372.59M1011.25,415.09L1010.87,415.09C998.44,415.09 988.32,404.98 988.32,392.55L988.32,379.82C988.75,378.92 989.06,377.99 989.26,377.01C989.37,376.46 989.45,375.90 989.49,375.34C989.52,374.77 989.55,374.18 989.38,373.63C989.38,373.63 989.38,373.62 989.37,373.62C989.82,373.26 990.23,372.82 990.61,372.34C991.19,371.61 991.66,370.79 992.08,369.95C992.42,369.25 992.74,368.49 992.78,367.71C992.92,367.78 993.07,367.84 993.21,367.91C994.87,368.63 996.57,369.20 998.40,369.30C1000.21,369.40 1002.03,369.12 1003.79,368.69C1009.89,367.22 1015.63,364.27 1020.48,360.30C1021.85,359.19 1023.15,357.98 1024.37,356.69C1025.11,355.90 1025.87,355.08 1026.54,354.20C1026.37,354.81 1026.28,355.45 1026.26,356.04C1026.20,357.88 1026.72,359.69 1027.32,361.40C1028.45,364.59 1030.17,367.65 1032.81,369.83C1033.12,370.09 1033.45,370.34 1033.79,370.58L1033.79,392.55C1033.79,404.98 1023.68,415.09 1011.25,415.09M1040.85,349.98C1038.43,346.77 1034.71,344.23 1030.58,344.21C1030.61,344.14 1030.61,344.05 1030.55,343.98C1024.69,337.36 1016.02,333.38 1007.19,333.18C998.54,333.00 989.94,336.58 983.84,342.68C977.03,349.48 974.01,359.04 973.10,368.42C972.58,373.87 972.70,379.35 972.98,384.81C973.22,389.53 973.55,394.30 974.82,398.87C975.99,403.14 978.05,407.61 981.58,410.44C983.44,411.92 985.64,412.69 987.98,413.02C990.33,413.36 992.78,413.47 995.13,413.05C996.30,412.85 997.42,412.49 998.48,411.96C998.50,411.95 998.52,411.94 998.54,411.90C1002.11,414.19 1006.33,415.51 1010.87,415.51L1011.25,415.51C1016.51,415.51 1021.38,413.73 1025.26,410.71C1025.29,410.77 1025.33,410.82 1025.41,410.86C1027.06,411.52 1028.85,411.56 1030.61,411.36C1032.22,411.17 1033.87,410.89 1035.41,410.37C1036.91,409.86 1038.21,409.05 1039.17,407.78C1040.22,406.40 1041.04,404.81 1041.71,403.22C1042.16,402.17 1042.61,401.03 1042.90,399.88C1042.90,399.87 1042.90,399.87 1042.90,399.86C1043.32,398.80 1043.48,397.63 1043.70,396.51C1043.92,395.42 1044.12,394.31 1044.31,393.21C1044.69,391.01 1045.02,388.80 1045.30,386.59C1045.86,382.20 1046.24,377.78 1046.38,373.35C1046.60,365.41 1045.82,356.54 1040.85,349.98" fill="#231f20"/>
    <path d="M994.11,420.01C994.11,420.01 997.18,413.23 997.05,410.85C997.05,410.85 1001.23,415.08 1011.55,415.30C1021.65,415.51 1027.19,408.91 1027.19,408.91C1027.19,408.91 1027.00,414.43 1029.67,418.09C1032.35,421.74 1029.67,418.09 1029.67,418.09L1031.31,433.28L996.39,434.03L994.11,420.01" fill="#f1d1a7" stroke="#231f20" stroke-width="0.54"/>
    <path d="M1017.60,402.98C1017.60,402.98 1015.90,403.29 1014.37,403.44C1013.05,403.56 1011.96,403.50 1011.02,403.55C1008.59,403.67 1004.50,402.77 1004.50,402.77C1004.62,402.71 1008.82,400.78 1010.62,401.54C1010.96,401.68 1011.35,401.69 1011.70,401.55C1012.46,401.25 1014.16,401.13 1017.64,402.98" fill="#dea291" stroke="#b68575" stroke-width="0.54"/>
    <path d="M1017.60,403.00C1010.52,408.82 1004.55,402.82 1004.55,402.82L1004.55,402.82C1005.70,403.06 1007.27,403.33 1009.14,403.46C1010.24,403.54 1011.44,403.57 1012.71,403.53C1014.24,403.48 1015.89,403.32 1017.60,403.00" fill="#dea291" stroke="#b68575" stroke-width="0.54"/>
    <path d="M1016.81,377.57C1015.81,377.57 1015.19,376.46 1015.72,375.61C1015.95,375.23 1016.34,374.88 1016.95,374.69C1018.72,374.14 1025.33,373.25 1027.65,374.48C1029.96,375.71 1031.18,379.25 1031.18,379.25C1031.18,379.25 1029.48,375.99 1026.67,375.50C1024.49,375.12 1019.38,377.57 1016.81,377.57" fill="#433935"/>
    <path d="M1005.78,377.23C1006.78,377.23 1007.40,376.12 1006.87,375.27C1006.64,374.89 1006.26,374.53 1005.64,374.34C1003.87,373.80 997.26,372.91 994.95,374.14C992.63,375.37 991.42,378.91 991.42,378.91C991.42,378.91 993.11,375.64 995.92,375.16C998.10,374.78 1003.22,377.23 1005.78,377.23" fill="#433935"/>
    <path d="M1027.44,382.18C1027.28,382.64 1027.03,383.06 1026.72,383.44C1024.85,385.70 1020.48,386.46 1016.98,384.66C1016.75,384.54 1016.52,384.40 1016.29,384.26C1016.24,384.22 1016.18,384.19 1016.13,384.15C1016.22,383.88 1016.33,383.63 1016.45,383.40C1018.37,379.69 1024.12,379.23 1027.44,382.18" fill="#e9e6f3"/>
    <path d="M1024.39,382.45C1024.39,383.98 1023.15,385.22 1021.62,385.22C1020.09,385.22 1018.85,383.98 1018.85,382.45C1018.85,380.92 1020.09,379.68 1021.62,379.68C1023.15,379.68 1024.39,380.92 1024.39,382.45" fill="#432314"/>
    <path d="M1022.79,382.45C1022.79,383.10 1022.27,383.62 1021.62,383.62C1020.98,383.62 1020.45,383.10 1020.45,382.45C1020.45,381.80 1020.98,381.28 1021.62,381.28C1022.27,381.28 1022.79,381.80 1022.79,382.45" fill="#110118"/>
    <path d="M1022.46,383.15C1022.59,382.34 1023.21,382.39 1023.08,382.99C1022.96,383.58 1022.35,383.79 1022.46,383.15" fill="#ffffff"/>
    <path d="M1027.44,382.18C1027.28,382.64 1027.03,383.06 1026.72,383.44C1023.95,380.04 1018.37,381.11 1016.29,384.26C1016.24,384.22 1016.18,384.19 1016.13,384.15C1016.22,383.88 1016.33,383.63 1016.45,383.40C1018.37,379.69 1024.12,379.23 1027.44,382.18" fill="#110118"/>
    <path d="M1016.13,384.15C1017.71,379.47 1023.85,377.96 1027.91,382.03L1027.33,382.45C1022.28,377.87 1016.84,381.63 1016.29,384.26L1016.13,384.15" fill="#110118"/>
    <path d="M994.65,382.18C994.80,382.64 995.05,383.06 995.37,383.44C997.24,385.70 1001.61,386.46 1005.10,384.66C1005.33,384.54 1005.56,384.40 1005.79,384.26C1005.85,384.22 1005.90,384.19 1005.96,384.15C1005.86,383.88 1005.76,383.63 1005.63,383.40C1003.71,379.69 997.96,379.23 994.65,382.18" fill="#e9e6f3"/>
    <path d="M997.69,382.45C997.69,383.98 998.93,385.22 1000.46,385.22C1001.99,385.22 1003.23,383.98 1003.23,382.45C1003.23,380.92 1001.99,379.68 1000.46,379.68C998.93,379.68 997.69,380.92 997.69,382.45" fill="#432314"/>
    <path d="M999.29,382.45C999.29,383.10 999.81,383.62 1000.46,383.62C1001.11,383.62 1001.63,383.10 1001.63,382.45C1001.63,381.80 1001.11,381.28 1000.46,381.28C999.81,381.28 999.29,381.80 999.29,382.45" fill="#110118"/>
    <path d="M1001.27,383.15C1001.41,382.34 1002.03,382.39 1001.90,382.99C1001.77,383.58 1001.16,383.79 1001.27,383.15" fill="#ffffff"/>
    <path d="M994.65,382.18C994.80,382.64 995.05,383.06 995.37,383.44C998.13,380.04 1003.72,381.11 1005.79,384.26C1005.85,384.22 1005.90,384.19 1005.96,384.15C1005.86,383.88 1005.76,383.63 1005.63,383.40C1003.71,379.69 997.96,379.23 994.65,382.18" fill="#110118"/>
    <path d="M1005.96,384.15C1004.37,379.47 998.23,377.96 994.17,382.03L994.75,382.45C999.80,377.87 1005.24,381.63 1005.79,384.26L1005.96,384.15" fill="#110118"/>
    <path d="M1007.11,393.76C1006.74,394.49 1007.31,395.41 1008.16,395.12C1008.42,395.03 1008.57,395.03 1008.82,395.17C1008.98,395.28 1009.13,395.41 1009.30,395.52C1009.65,395.76 1010.08,395.88 1010.50,395.85C1010.93,395.83 1011.30,395.68 1011.65,395.43C1011.87,395.28 1012.06,395.17 1012.34,395.16C1012.56,395.16 1012.77,395.19 1012.99,395.19C1013.40,395.19 1013.79,395.08 1014.04,394.74C1014.27,394.44 1014.35,394.12 1014.10,393.81C1014.04,393.74 1013.91,393.76 1013.87,393.84C1013.74,394.09 1013.66,394.43 1013.39,394.56C1013.07,394.71 1012.68,394.59 1012.34,394.60C1012.01,394.61 1011.73,394.70 1011.45,394.89C1011.15,395.09 1010.88,395.28 1010.50,395.30C1009.78,395.34 1009.42,394.80 1008.82,394.56C1008.49,394.44 1008.27,394.54 1007.96,394.62C1007.46,394.74 1007.49,394.13 1007.43,393.80C1007.40,393.65 1007.18,393.63 1007.11,393.76" fill="#19171c"/>
    <path d="M1009.16,392.85C1009.09,392.89 1009.04,392.92 1008.99,392.99C1008.95,393.06 1008.92,393.13 1008.91,393.21C1008.88,393.37 1008.89,393.53 1008.91,393.69C1008.96,393.96 1009.13,394.23 1009.33,394.41C1009.53,394.59 1009.78,394.73 1010.05,394.78C1010.20,394.80 1010.35,394.81 1010.50,394.78C1010.65,394.76 1010.89,394.67 1010.91,394.50C1010.89,394.53 1010.88,394.57 1010.86,394.59C1010.90,394.55 1010.94,394.50 1010.97,394.45C1011.05,394.34 1010.92,394.15 1010.79,394.21C1010.74,394.22 1010.70,394.23 1010.65,394.24C1010.71,394.25 1010.76,394.26 1010.82,394.27C1010.69,394.20 1010.55,394.26 1010.42,394.28C1010.40,394.29 1010.39,394.29 1010.37,394.29C1010.39,394.29 1010.39,394.29 1010.38,394.29C1010.35,394.29 1010.32,394.29 1010.29,394.29C1010.26,394.29 1010.24,394.29 1010.21,394.29C1010.21,394.29 1010.13,394.28 1010.18,394.29C1010.13,394.28 1010.08,394.27 1010.03,394.25C1010.00,394.24 1009.97,394.23 1009.95,394.22C1009.99,394.24 1009.92,394.21 1009.92,394.21C1009.87,394.19 1009.82,394.16 1009.78,394.13C1009.77,394.12 1009.71,394.08 1009.74,394.10C1009.72,394.09 1009.70,394.07 1009.68,394.06C1009.64,394.02 1009.61,393.99 1009.58,393.95C1009.57,393.94 1009.56,393.92 1009.55,393.91C1009.56,393.93 1009.56,393.93 1009.55,393.91C1009.53,393.89 1009.51,393.87 1009.50,393.84C1009.43,393.74 1009.41,393.68 1009.38,393.56C1009.34,393.44 1009.33,393.36 1009.34,393.24C1009.34,393.19 1009.34,393.13 1009.34,393.08C1009.33,393.05 1009.33,393.01 1009.32,392.98C1009.31,392.95 1009.30,392.93 1009.29,392.90C1009.27,392.85 1009.21,392.83 1009.16,392.85" fill="#19171c"/>
    <path d="M946.17,537.75C945.07,532.23 944.38,526.60 944.52,520.96C944.58,518.08 944.87,515.20 944.94,512.31C944.98,510.89 944.95,509.47 944.84,508.05C944.73,506.63 944.56,505.22 944.48,503.80C944.32,500.93 944.66,498.08 944.94,495.24C945.20,492.54 945.46,489.85 945.72,487.15C946.22,481.89 946.72,476.62 947.24,471.35C955.21,474.80 962.64,477.97 967.88,480.04C967.57,484.98 967.09,489.91 966.42,494.82C966.07,497.37 965.66,499.90 965.23,502.44C964.80,504.93 964.44,507.43 964.52,509.96C964.60,512.48 964.95,514.99 965.15,517.51C965.36,520.06 965.51,522.62 965.60,525.18C965.93,534.98 965.37,544.80 963.95,554.50L950.65,555.22C950.54,554.83 950.42,554.44 950.31,554.06C948.77,548.67 947.26,543.25 946.17,537.75" fill="#f1d1a7"/>
    <path d="M965.68,525.18C965.59,522.62 965.44,520.06 965.24,517.51C965.03,514.99 964.69,512.48 964.60,509.96C964.52,507.42 964.88,504.93 965.31,502.44C965.74,499.90 966.15,497.36 966.50,494.82C967.17,489.91 967.65,484.98 967.96,480.04L968.49,480.26C968.21,484.48 967.82,488.70 967.29,492.89C966.97,495.42 966.60,497.95 966.18,500.46C965.77,503.00 965.25,505.53 965.14,508.11C965.04,510.69 965.39,513.26 965.63,515.83C965.86,518.40 966.04,520.98 966.15,523.57C966.38,528.68 966.36,533.81 966.11,538.92C965.85,544.01 965.36,549.09 964.63,554.13C964.62,554.24 964.60,554.35 964.58,554.47L964.03,554.50C965.45,544.80 966.01,534.97 965.68,525.18" fill="#231f20"/>
    <path d="M946.15,539.90C944.96,534.43 944.13,528.86 944.05,523.25C944.01,520.38 944.23,517.53 944.39,514.66C944.47,513.21 944.53,511.75 944.50,510.29C944.47,508.88 944.34,507.49 944.21,506.09C944.07,504.66 943.96,503.23 943.98,501.80C944.00,500.33 944.13,498.87 944.27,497.41C944.53,494.65 944.81,491.89 945.07,489.14C945.58,483.86 946.08,478.59 946.59,473.32C946.66,472.61 946.73,471.89 946.80,471.17C946.80,471.16 946.81,471.15 946.82,471.14L947.32,471.35C946.80,476.62 946.30,481.89 945.80,487.15C945.54,489.85 945.28,492.54 945.02,495.24C944.74,498.08 944.40,500.93 944.56,503.80C944.64,505.22 944.81,506.63 944.92,508.05C945.03,509.47 945.06,510.89 945.03,512.31C944.95,515.20 944.66,518.07 944.60,520.96C944.47,526.60 945.15,532.23 946.25,537.75C947.35,543.25 948.85,548.67 950.40,554.06C950.51,554.44 950.62,554.83 950.73,555.22L950.18,555.24C948.72,550.16 947.27,545.07 946.15,539.90" fill="#231f20"/>
    <path d="M995.19,420.16C994.69,419.30 993.61,418.98 992.70,419.39C986.22,422.35 967.77,422.50 962.97,423.97C948.35,428.45 950.71,459.91 942.29,471.05C940.65,473.21 942.02,473.23 950.39,475.75C957.62,477.92 962.80,483.49 969.86,482.13C973.79,481.37 970.84,469.54 971.60,470.04C976.33,495.12 976.94,530.50 970.80,553.55C970.53,554.57 971.09,555.64 972.10,555.95C997.87,564.06 1023.98,564.33 1050.47,556.30C1051.46,556.00 1052.04,554.97 1051.80,553.96C1045.74,528.72 1044.67,502.17 1051.17,482.80L1052.24,460.99C1052.89,460.68 1053.50,468.05 1054.56,470.34C1056.50,474.53 1079.90,478.00 1079.30,476.07C1070.79,448.84 1072.30,440.58 1069.04,436.24C1067.64,434.38 1060.79,425.79 1058.63,424.93C1045.81,419.80 1038.93,422.51 1031.37,418.81C1030.34,418.31 1029.11,418.76 1028.70,419.83C1024.08,431.85 1001.46,431.03 995.19,420.16" fill="#fed228" stroke="#231f20" stroke-width="0.54"/>
    <path d="M1040.63,490.80C1037.79,493.04 1034.13,494.19 1030.52,493.97C1028.56,493.85 1026.66,493.34 1024.78,492.81C1022.85,492.26 1020.91,491.70 1018.92,491.40C1016.87,491.10 1014.81,490.98 1012.74,490.91C1010.71,490.85 1008.68,490.78 1006.65,490.78C1004.60,490.79 1002.56,490.89 1000.53,491.18C998.51,491.48 996.56,492.05 994.58,492.56C990.86,493.52 986.31,494.27 983.09,491.58C982.83,491.37 982.45,491.74 982.71,491.96C985.47,494.27 989.28,494.26 992.63,493.57C994.66,493.16 996.64,492.52 998.66,492.07C1000.73,491.61 1002.85,491.41 1004.97,491.35C1007.08,491.28 1009.19,491.34 1011.31,491.41C1013.39,491.47 1015.48,491.53 1017.55,491.76C1019.64,492.00 1021.67,492.48 1023.69,493.05C1025.61,493.60 1027.54,494.17 1029.53,494.41C1033.62,494.91 1037.78,493.72 1041.01,491.18C1041.28,490.97 1040.90,490.59 1040.63,490.80" fill="#231f20"/>
    <path d="M972.67,453.32C972.75,454.16 972.62,455.04 972.51,455.88C972.35,457.14 972.13,458.40 971.92,459.66C971.50,462.23 971.00,464.84 970.91,467.46C970.90,467.98 970.90,468.51 970.97,469.03C971.01,469.30 971.09,470.10 971.47,470.09C971.63,470.09 971.73,469.97 971.74,469.83C971.75,469.73 971.71,469.57 971.65,469.49C971.57,469.38 971.42,469.32 971.28,469.40C971.11,469.50 971.10,469.84 971.22,470.00C971.32,470.12 971.44,470.16 971.59,470.09C971.81,469.99 971.80,469.49 971.60,469.38C971.50,469.33 971.35,469.33 971.27,469.42C971.21,469.49 971.18,469.57 971.16,469.66C971.09,470.00 971.61,470.14 971.68,469.80C971.70,469.70 971.74,469.70 971.65,469.80C971.54,469.81 971.43,469.83 971.33,469.84C971.33,469.84 971.33,469.84 971.33,469.84C971.29,469.79 971.25,469.74 971.21,469.68C971.21,469.69 971.22,469.67 971.21,469.72C971.19,469.84 971.27,469.65 971.32,469.63C971.44,469.66 971.56,469.69 971.68,469.73C971.72,469.77 971.68,469.68 971.68,469.63C971.64,469.71 971.59,469.79 971.55,469.86C971.55,469.86 971.55,469.86 971.56,469.86C971.43,469.83 971.31,469.80 971.19,469.76C971.18,469.75 971.20,469.85 971.21,469.83C971.30,469.74 971.39,469.65 971.47,469.56L971.47,469.56C971.55,469.60 971.62,469.65 971.70,469.69C971.54,469.47 971.51,469.07 971.48,468.81C971.43,468.35 971.44,467.89 971.45,467.43C971.49,466.25 971.64,465.07 971.80,463.90C972.16,461.33 972.65,458.78 973.00,456.21C973.13,455.26 973.30,454.27 973.21,453.32C973.17,452.98 972.64,452.97 972.67,453.32" fill="#231f20"/>
    <path d="M993.60,424.50C995.62,428.08 999.01,430.80 1002.90,432.09C1004.01,432.45 1005.15,432.69 1006.31,432.81C1006.65,432.85 1006.65,432.31 1006.31,432.28C1002.37,431.87 998.64,429.90 996.01,426.95C995.26,426.12 994.61,425.20 994.06,424.23C993.89,423.93 993.43,424.20 993.60,424.50" fill="#231f20"/>
    <path d="M1031.81,423.84C1029.57,427.44 1026.23,430.32 1022.36,432.05C1021.25,432.55 1020.09,432.94 1018.91,433.24C1018.57,433.33 1018.71,433.84 1019.05,433.76C1023.28,432.70 1027.17,430.33 1030.07,427.07C1030.88,426.14 1031.62,425.15 1032.27,424.11C1032.46,423.81 1031.99,423.55 1031.81,423.84" fill="#231f20"/>
    <path d="M1052.51,460.99C1052.31,458.82 1052.18,456.66 1051.86,454.50C1051.81,454.16 1051.29,454.31 1051.34,454.65C1051.66,456.75 1051.78,458.87 1051.98,460.99C1052.01,461.33 1052.54,461.33 1052.51,460.99" fill="#231f20"/>
    <path d="M1099.25,418.43C1099.77,418.22 1100.31,418.07 1100.85,417.94C1101.56,417.77 1102.28,417.64 1102.99,417.51C1102.98,417.48 1102.96,417.47 1102.95,417.44C1102.85,416.50 1102.77,415.56 1102.72,414.61C1102.69,413.91 1102.66,413.21 1102.74,412.51C1102.68,412.49 1102.63,412.43 1102.62,412.35C1102.41,411.30 1101.31,410.71 1100.31,410.64C1099.39,410.58 1098.34,410.90 1097.77,411.67C1096.99,412.71 1097.56,414.02 1098.04,415.05C1098.56,416.14 1098.99,417.24 1099.25,418.43" fill="#f1d1a7"/>
    <path d="M1106.58,417.47C1106.13,417.53 1105.68,417.59 1105.23,417.65C1104.86,417.71 1104.49,417.78 1104.12,417.84C1104.11,417.86 1104.10,417.86 1104.09,417.88C1104.08,417.88 1104.09,417.88 1104.08,417.89L1104.07,417.98C1104.07,418.05 1104.06,418.12 1104.06,418.19C1104.05,418.32 1104.04,418.44 1104.05,418.57C1104.06,418.82 1104.11,419.07 1104.22,419.30C1104.42,419.73 1104.80,419.97 1105.27,420.00C1105.77,420.03 1106.29,419.90 1106.77,419.76C1107.28,419.62 1107.78,419.42 1108.26,419.18C1108.26,419.18 1108.26,419.18 1108.27,419.18C1108.36,418.63 1108.31,418.04 1107.97,417.61C1107.66,417.21 1107.03,417.42 1106.58,417.47" fill="#f1d1a7"/>
    <path d="M1057.73,477.08C1059.91,479.47 1061.76,482.13 1063.80,484.63C1064.32,485.26 1064.85,485.88 1065.40,486.49C1065.66,486.77 1065.92,487.12 1066.24,487.34C1066.65,487.63 1067.00,487.37 1067.35,487.13C1068.75,486.22 1070.13,485.28 1071.51,484.34C1076.95,480.60 1082.23,476.62 1087.29,472.38C1087.97,470.85 1088.75,469.36 1089.53,467.88C1090.05,466.92 1090.56,465.97 1091.08,465.00C1090.73,464.67 1090.39,464.34 1090.05,464.00C1087.04,460.93 1084.46,457.48 1082.07,453.93C1079.65,450.33 1077.42,446.61 1075.07,442.96C1072.73,439.32 1070.26,435.73 1067.38,432.47C1064.33,429.00 1060.84,425.71 1056.36,424.25C1053.96,423.48 1051.43,423.04 1048.95,422.60C1048.21,422.46 1047.47,422.35 1046.73,422.23L1050.40,471.52C1053.25,472.76 1055.65,474.80 1057.73,477.08" fill="#fed228"/>
    <path d="M1103.93,417.32C1104.94,417.15 1105.95,417.00 1106.97,416.89C1107.45,416.84 1107.90,416.77 1108.26,417.13C1108.33,417.20 1108.38,417.29 1108.44,417.37C1108.72,416.14 1109.02,414.89 1109.05,413.63C1109.08,412.45 1108.82,411.13 1107.85,410.36C1106.94,409.64 1105.68,409.55 1104.68,410.14C1103.56,410.81 1103.24,412.04 1103.22,413.27C1103.21,414.65 1103.33,416.04 1103.49,417.41C1103.63,417.38 1103.78,417.34 1103.93,417.32" fill="#f1d1a7"/>
    <path d="M1094.71,418.88C1095.28,419.02 1096.02,419.22 1096.52,418.81C1096.63,418.72 1096.78,418.70 1096.89,418.81C1096.99,418.91 1097.01,419.10 1096.89,419.19C1096.58,419.44 1096.21,419.57 1095.82,419.58C1095.39,419.61 1094.97,419.50 1094.57,419.40C1094.23,419.31 1094.37,418.79 1094.71,418.88M1104.34,441.05C1105.05,441.00 1105.74,440.89 1106.43,440.71C1106.77,440.63 1106.91,441.14 1106.57,441.23C1105.84,441.41 1105.09,441.53 1104.34,441.59C1104.20,441.60 1104.07,441.46 1104.07,441.32C1104.07,441.17 1104.20,441.06 1104.34,441.05M1106.37,425.09C1106.46,424.98 1106.65,424.98 1106.75,425.09C1107.02,425.38 1107.29,425.68 1107.57,425.98C1107.67,426.09 1107.67,426.25 1107.57,426.36C1107.47,426.46 1107.28,426.46 1107.19,426.36C1106.91,426.06 1106.64,425.76 1106.37,425.47C1106.27,425.36 1106.27,425.20 1106.37,425.09M1107.59,431.65C1106.88,430.15 1106.56,428.49 1106.68,426.84C1106.71,426.50 1107.24,426.50 1107.22,426.84C1107.10,428.40 1107.38,429.96 1108.05,431.38C1108.20,431.68 1107.74,431.96 1107.59,431.65M1108.29,433.10C1108.93,433.98 1109.42,434.84 1109.43,435.96C1109.43,437.06 1109.32,438.25 1108.92,439.28C1108.80,439.60 1108.28,439.46 1108.40,439.14C1108.78,438.17 1108.87,437.10 1108.89,436.07C1108.90,435.54 1108.82,435.04 1108.59,434.56C1108.39,434.14 1108.10,433.75 1107.82,433.37C1107.62,433.09 1108.09,432.82 1108.29,433.10M1110.53,406.90C1109.92,406.89 1109.31,406.76 1108.75,406.53C1108.61,406.47 1108.52,406.35 1108.56,406.20C1108.59,406.07 1108.76,405.96 1108.89,406.01C1109.15,406.12 1109.43,406.21 1109.71,406.27C1109.99,406.33 1110.23,406.36 1110.53,406.36C1110.68,406.37 1110.79,406.48 1110.79,406.63C1110.80,406.77 1110.67,406.90 1110.53,406.90M1110.41,410.92C1110.35,410.96 1110.27,410.96 1110.20,410.95C1109.97,410.90 1109.73,410.85 1109.50,410.80C1109.43,410.78 1109.38,410.73 1109.34,410.68C1109.30,410.62 1109.30,410.54 1109.31,410.47C1109.33,410.41 1109.38,410.34 1109.44,410.31C1109.50,410.27 1109.57,410.27 1109.64,410.28C1109.88,410.33 1110.11,410.38 1110.35,410.43C1110.41,410.45 1110.47,410.50 1110.51,410.56C1110.55,410.62 1110.55,410.69 1110.53,410.76C1110.52,410.83 1110.47,410.89 1110.41,410.92M1080.73,491.54C1083.04,493.21 1085.46,494.77 1088.12,495.81C1090.45,496.71 1092.90,497.16 1095.40,496.93C1097.68,496.72 1099.98,495.93 1101.75,494.44C1103.92,492.59 1104.81,489.80 1105.85,487.24C1107.02,484.38 1108.16,481.50 1109.17,478.58C1110.17,475.67 1111.05,472.71 1111.67,469.70C1112.32,466.55 1112.62,463.37 1112.90,460.17C1113.45,453.91 1114.05,447.66 1114.60,441.40C1114.52,441.43 1114.44,441.48 1114.36,441.51C1114.04,441.64 1113.90,441.12 1114.22,441.00C1116.03,440.28 1116.59,438.17 1116.62,436.41C1116.66,434.30 1116.37,432.16 1115.98,430.09C1115.29,426.41 1114.17,422.83 1113.43,419.17C1112.69,415.51 1112.15,411.81 1111.82,408.10C1111.68,406.49 1111.70,404.83 1111.34,403.25C1111.20,402.59 1110.97,401.93 1110.58,401.37C1110.20,400.82 1109.42,400.07 1108.68,400.32C1108.07,400.53 1107.92,401.31 1107.87,401.87C1107.80,402.66 1107.86,403.47 1107.86,404.26C1107.89,406.07 1107.91,407.88 1107.93,409.69C1107.93,409.72 1107.91,409.73 1107.90,409.75C1108.09,409.87 1108.27,410.00 1108.43,410.16C1109.38,411.07 1109.62,412.47 1109.58,413.74C1109.56,414.34 1109.47,414.94 1109.37,415.54C1109.39,415.54 1109.40,415.52 1109.42,415.52C1109.85,415.55 1110.29,415.59 1110.72,415.62C1110.88,415.63 1110.99,415.74 1110.99,415.89C1111.00,416.03 1110.86,416.17 1110.72,416.16C1110.29,416.12 1109.85,416.09 1109.42,416.06C1109.36,416.05 1109.32,416.03 1109.29,416.00C1109.16,416.62 1109.02,417.24 1108.87,417.86C1108.85,417.94 1108.81,418.00 1108.75,418.02C1108.75,418.03 1108.76,418.04 1108.76,418.05C1109.12,419.38 1108.45,420.56 1107.55,421.48C1107.55,421.50 1107.56,421.50 1107.56,421.52C1107.49,422.58 1107.21,423.70 1106.33,424.39C1105.56,425.00 1104.42,425.09 1103.69,424.37C1103.60,424.29 1103.60,424.20 1103.63,424.11C1103.08,424.37 1102.51,424.61 1101.93,424.80C1101.98,425.61 1101.69,426.39 1101.32,427.12C1102.28,427.54 1102.73,428.56 1103.08,429.50C1103.13,429.63 1103.02,429.79 1102.90,429.83C1102.75,429.87 1102.62,429.78 1102.57,429.64C1102.27,428.86 1101.91,427.91 1101.07,427.59C1101.02,427.68 1100.97,427.77 1100.92,427.86C1100.75,428.16 1100.29,427.89 1100.45,427.59C1100.70,427.14 1100.96,426.69 1101.14,426.21C1101.32,425.74 1101.47,425.21 1101.39,424.70C1101.37,424.56 1101.43,424.42 1101.58,424.37C1101.59,424.37 1101.60,424.38 1101.61,424.38C1101.63,424.36 1101.64,424.33 1101.67,424.32C1103.45,423.75 1105.14,422.86 1106.58,421.66C1107.18,421.15 1107.76,420.58 1108.08,419.85C1108.08,419.84 1108.08,419.84 1108.08,419.84C1107.61,420.05 1107.13,420.23 1106.64,420.36C1106.05,420.50 1105.39,420.63 1104.80,420.46C1104.23,420.30 1103.84,419.86 1103.65,419.32C1103.54,419.02 1103.51,418.68 1103.51,418.36C1103.52,418.22 1103.53,418.08 1103.55,417.95C1103.19,418.01 1102.82,418.06 1102.46,418.13C1100.87,418.46 1099.02,418.71 1097.90,420.02C1097.35,420.67 1096.92,421.42 1096.40,422.09C1095.86,422.79 1095.28,423.46 1094.67,424.10C1094.43,424.35 1094.05,423.97 1094.29,423.72C1094.43,423.57 1094.56,423.41 1094.70,423.26C1093.92,422.60 1093.35,421.69 1092.76,420.87C1092.71,420.81 1092.66,420.74 1092.62,420.68C1092.28,420.69 1091.93,420.64 1091.62,420.51C1091.48,420.46 1091.40,420.34 1091.43,420.18C1091.44,420.12 1091.50,420.06 1091.55,420.03C1091.61,419.99 1091.70,419.97 1091.76,420.00C1091.91,420.06 1092.06,420.10 1092.21,420.12C1091.74,419.45 1091.30,418.77 1091.01,417.98C1090.89,417.65 1091.41,417.51 1091.53,417.83C1091.89,418.84 1092.54,419.66 1093.16,420.52C1093.48,420.96 1093.81,421.41 1094.14,421.85C1094.41,422.22 1094.70,422.58 1095.05,422.87C1095.54,422.31 1096.02,421.74 1096.45,421.13C1097.04,420.31 1097.56,419.41 1098.42,418.85C1098.53,418.78 1098.64,418.72 1098.76,418.66C1098.62,418.03 1098.45,417.41 1098.23,416.80C1098.00,416.18 1097.70,415.59 1097.42,414.99C1097.36,414.85 1097.30,414.70 1097.24,414.56C1097.22,414.54 1097.19,414.54 1097.17,414.50C1096.53,413.39 1095.20,412.66 1093.92,412.64C1092.69,412.63 1091.49,413.28 1090.84,414.32C1090.13,415.46 1089.83,417.03 1090.00,418.36C1090.16,419.69 1090.90,420.88 1091.24,422.17C1091.50,423.16 1091.70,424.23 1092.32,425.07C1092.41,425.06 1092.49,425.09 1092.55,425.18C1093.23,426.20 1093.65,427.34 1094.00,428.51C1094.66,430.70 1095.29,432.88 1096.13,435.02C1096.98,437.16 1097.98,439.24 1099.10,441.25C1099.20,441.28 1099.28,441.34 1099.29,441.47C1099.43,443.24 1099.10,445.01 1098.69,446.73C1098.30,448.39 1097.84,450.04 1097.33,451.67C1096.44,454.55 1095.36,457.37 1094.11,460.12C1092.83,462.97 1091.31,465.69 1089.84,468.44C1087.11,473.56 1084.12,479.79 1086.59,485.60C1086.72,485.92 1086.26,486.19 1086.13,485.87C1084.84,482.84 1084.96,479.44 1085.83,476.31C1086.10,475.33 1086.46,474.37 1086.84,473.43C1084.21,475.61 1081.52,477.74 1078.78,479.79C1076.49,481.50 1074.16,483.15 1071.80,484.77C1072.33,485.18 1072.86,485.58 1073.39,485.98C1075.83,487.84 1078.24,489.74 1080.73,491.54" fill="#f1d1a7"/>
    <path d="M1104.06,423.99C1104.63,424.54 1105.52,424.40 1106.07,423.91C1106.62,423.42 1106.86,422.73 1106.97,422.02C1106.86,422.11 1106.76,422.20 1106.65,422.28C1105.82,422.93 1104.92,423.49 1103.97,423.95C1104.00,423.96 1104.04,423.96 1104.06,423.99" fill="#f1d1a7"/>
    <path d="M1049.83,471.27C1049.51,471.14 1049.37,471.66 1049.69,471.78C1049.95,471.89 1050.20,472.00 1050.45,472.12L1050.40,471.52C1050.21,471.43 1050.03,471.34 1049.83,471.27" fill="#231f20"/>
    <path d="M1042.95,421.10C1042.32,421.01 1041.69,420.93 1041.06,420.85C1040.72,420.81 1040.72,421.34 1041.06,421.38C1042.95,421.63 1044.84,421.91 1046.73,422.23L1046.69,421.67C1045.44,421.46 1044.20,421.27 1042.95,421.10" fill="#231f20"/>
    <path d="M1106.97,422.02C1106.86,422.73 1106.62,423.42 1106.07,423.91C1105.52,424.40 1104.63,424.54 1104.06,423.99C1104.04,423.96 1104.00,423.96 1103.97,423.95C1104.92,423.49 1105.82,422.93 1106.65,422.28C1106.76,422.20 1106.86,422.11 1106.97,422.02M1078.78,479.79C1081.52,477.74 1084.21,475.61 1086.84,473.42C1086.46,474.37 1086.10,475.33 1085.83,476.31C1084.96,479.44 1084.84,482.84 1086.13,485.87C1086.26,486.19 1086.72,485.92 1086.59,485.60C1084.12,479.78 1087.11,473.56 1089.84,468.44C1091.31,465.69 1092.83,462.97 1094.12,460.13C1095.36,457.37 1096.43,454.55 1097.34,451.67C1097.85,450.04 1098.30,448.39 1098.69,446.73C1099.10,445.01 1099.43,443.24 1099.28,441.47C1099.27,441.34 1099.19,441.28 1099.10,441.24C1097.98,439.24 1096.98,437.16 1096.13,435.02C1095.29,432.88 1094.66,430.70 1094.00,428.50C1093.65,427.34 1093.23,426.20 1092.55,425.18C1092.49,425.10 1092.40,425.06 1092.32,425.07C1091.70,424.23 1091.50,423.16 1091.24,422.17C1090.90,420.88 1090.16,419.69 1090.00,418.36C1089.83,417.03 1090.13,415.46 1090.84,414.32C1091.49,413.28 1092.69,412.63 1093.92,412.64C1095.20,412.66 1096.53,413.39 1097.17,414.50C1097.19,414.54 1097.22,414.54 1097.24,414.56C1097.30,414.70 1097.36,414.85 1097.42,414.99C1097.70,415.59 1098.00,416.18 1098.23,416.80C1098.46,417.41 1098.62,418.03 1098.76,418.66C1098.64,418.72 1098.53,418.78 1098.42,418.85C1097.55,419.41 1097.04,420.31 1096.45,421.13C1096.02,421.74 1095.54,422.31 1095.05,422.87C1094.69,422.58 1094.40,422.22 1094.13,421.85C1093.81,421.41 1093.48,420.96 1093.16,420.52C1092.53,419.66 1091.89,418.83 1091.53,417.83C1091.41,417.51 1090.89,417.65 1091.01,417.98C1091.30,418.77 1091.74,419.45 1092.22,420.12C1092.06,420.10 1091.91,420.06 1091.76,420.00C1091.70,419.97 1091.61,419.99 1091.55,420.03C1091.50,420.06 1091.44,420.12 1091.43,420.19C1091.39,420.34 1091.48,420.46 1091.62,420.52C1091.93,420.64 1092.28,420.69 1092.62,420.68C1092.67,420.74 1092.71,420.81 1092.76,420.87C1093.35,421.69 1093.92,422.60 1094.70,423.26C1094.56,423.41 1094.43,423.57 1094.29,423.72C1094.05,423.97 1094.43,424.35 1094.67,424.10C1095.28,423.46 1095.86,422.79 1096.40,422.09C1096.92,421.42 1097.35,420.67 1097.90,420.02C1099.02,418.71 1100.87,418.46 1102.46,418.14C1102.82,418.06 1103.19,418.01 1103.55,417.95C1103.53,418.08 1103.52,418.22 1103.51,418.36C1103.51,418.68 1103.54,419.02 1103.65,419.32C1103.84,419.86 1104.24,420.30 1104.80,420.46C1105.39,420.63 1106.05,420.50 1106.64,420.35C1107.13,420.23 1107.61,420.05 1108.08,419.84C1108.08,419.84 1108.08,419.84 1108.08,419.85C1107.76,420.58 1107.18,421.15 1106.58,421.66C1105.14,422.86 1103.45,423.75 1101.67,424.32C1101.64,424.33 1101.63,424.36 1101.61,424.38C1101.60,424.38 1101.59,424.37 1101.58,424.37C1101.43,424.42 1101.37,424.56 1101.39,424.70C1101.47,425.21 1101.32,425.74 1101.14,426.21C1100.96,426.69 1100.70,427.14 1100.45,427.59C1100.29,427.89 1100.75,428.16 1100.92,427.86C1100.97,427.77 1101.02,427.68 1101.07,427.59C1101.91,427.91 1102.27,428.86 1102.57,429.64C1102.62,429.77 1102.75,429.87 1102.90,429.83C1103.03,429.79 1103.13,429.63 1103.08,429.50C1102.73,428.56 1102.28,427.54 1101.32,427.12C1101.69,426.39 1101.98,425.61 1101.93,424.80C1102.51,424.61 1103.08,424.37 1103.63,424.11C1103.61,424.20 1103.60,424.29 1103.69,424.37C1104.42,425.09 1105.56,425.00 1106.33,424.39C1107.21,423.70 1107.49,422.58 1107.56,421.52C1107.56,421.50 1107.55,421.50 1107.55,421.48C1108.45,420.56 1109.12,419.38 1108.76,418.05C1108.76,418.04 1108.75,418.03 1108.75,418.02C1108.81,418.00 1108.85,417.94 1108.87,417.86C1109.01,417.24 1109.16,416.62 1109.29,416.00C1109.33,416.03 1109.36,416.05 1109.42,416.06C1109.85,416.09 1110.29,416.12 1110.73,416.16C1110.86,416.17 1111.00,416.03 1110.99,415.89C1110.99,415.73 1110.88,415.63 1110.73,415.62C1110.29,415.59 1109.85,415.55 1109.42,415.52C1109.40,415.52 1109.39,415.54 1109.37,415.54C1109.47,414.94 1109.56,414.34 1109.58,413.74C1109.63,412.47 1109.38,411.07 1108.43,410.16C1108.27,410.00 1108.09,409.87 1107.90,409.75C1107.91,409.73 1107.93,409.72 1107.93,409.69C1107.91,407.88 1107.88,406.07 1107.86,404.26C1107.86,403.47 1107.80,402.66 1107.87,401.87C1107.92,401.31 1108.07,400.53 1108.68,400.32C1109.42,400.07 1110.20,400.82 1110.58,401.37C1110.97,401.93 1111.20,402.59 1111.35,403.25C1111.70,404.83 1111.68,406.49 1111.82,408.10C1112.15,411.81 1112.69,415.51 1113.43,419.17C1114.17,422.83 1115.29,426.42 1115.98,430.09C1116.37,432.15 1116.66,434.30 1116.62,436.41C1116.59,438.17 1116.03,440.28 1114.22,441.00C1113.90,441.12 1114.04,441.64 1114.36,441.51C1114.44,441.48 1114.52,441.43 1114.60,441.40C1114.05,447.66 1113.45,453.91 1112.90,460.17C1112.62,463.36 1112.32,466.55 1111.67,469.70C1111.05,472.71 1110.17,475.67 1109.17,478.58C1108.16,481.51 1107.02,484.38 1105.85,487.24C1104.81,489.80 1103.92,492.59 1101.75,494.44C1099.98,495.93 1097.68,496.72 1095.40,496.93C1092.90,497.16 1090.44,496.71 1088.12,495.81C1085.46,494.77 1083.04,493.21 1080.73,491.54C1078.25,489.74 1075.83,487.84 1073.39,485.98C1072.86,485.58 1072.33,485.18 1071.80,484.77C1074.16,483.15 1076.49,481.50 1078.78,479.79M1097.77,411.67C1098.34,410.90 1099.39,410.58 1100.31,410.64C1101.31,410.71 1102.41,411.30 1102.62,412.35C1102.63,412.43 1102.68,412.49 1102.74,412.51C1102.66,413.21 1102.69,413.91 1102.73,414.61C1102.77,415.56 1102.85,416.50 1102.95,417.44C1102.96,417.47 1102.98,417.48 1102.99,417.51C1102.28,417.64 1101.56,417.77 1100.86,417.94C1100.32,418.07 1099.77,418.22 1099.25,418.43C1098.99,417.24 1098.56,416.14 1098.04,415.05C1097.55,414.02 1096.99,412.71 1097.77,411.67M1108.27,419.18C1108.26,419.18 1108.26,419.18 1108.26,419.18C1107.78,419.42 1107.28,419.62 1106.77,419.76C1106.29,419.90 1105.77,420.03 1105.27,420.00C1104.80,419.97 1104.42,419.73 1104.22,419.30C1104.11,419.07 1104.06,418.82 1104.05,418.57C1104.04,418.44 1104.05,418.32 1104.06,418.19C1104.06,418.12 1104.07,418.05 1104.07,417.98L1104.08,417.89C1104.09,417.88 1104.09,417.88 1104.09,417.88C1104.10,417.86 1104.11,417.86 1104.12,417.84C1104.49,417.78 1104.86,417.71 1105.23,417.65C1105.68,417.59 1106.13,417.53 1106.58,417.47C1107.03,417.42 1107.66,417.21 1107.97,417.61C1108.31,418.04 1108.36,418.63 1108.27,419.18M1104.68,410.14C1105.68,409.55 1106.94,409.64 1107.85,410.36C1108.82,411.13 1109.08,412.45 1109.05,413.63C1109.02,414.90 1108.72,416.14 1108.44,417.37C1108.38,417.29 1108.33,417.20 1108.26,417.13C1107.90,416.77 1107.45,416.84 1106.97,416.89C1105.96,417.00 1104.94,417.15 1103.93,417.32C1103.78,417.34 1103.63,417.38 1103.49,417.41C1103.34,416.04 1103.21,414.65 1103.22,413.27C1103.24,412.04 1103.56,410.81 1104.68,410.14M1063.19,484.72C1063.73,485.39 1064.28,486.05 1064.86,486.69C1065.28,487.16 1065.79,487.91 1066.47,488.01C1066.82,488.05 1067.14,487.91 1067.43,487.73C1067.78,487.51 1068.12,487.27 1068.47,487.04C1069.20,486.55 1069.92,486.06 1070.65,485.57C1070.88,485.41 1071.11,485.25 1071.34,485.09C1073.87,487.02 1076.38,488.95 1078.92,490.86C1081.23,492.60 1083.61,494.30 1086.23,495.56C1088.58,496.70 1091.11,497.48 1093.73,497.53C1096.06,497.57 1098.45,497.10 1100.49,495.95C1101.50,495.39 1102.42,494.66 1103.17,493.78C1104.07,492.72 1104.67,491.48 1105.21,490.21C1106.43,487.29 1107.62,484.36 1108.72,481.39C1109.82,478.45 1110.82,475.46 1111.59,472.41C1112.38,469.31 1112.87,466.17 1113.18,462.99C1113.82,456.48 1114.37,449.97 1114.95,443.46C1115.02,442.66 1115.09,441.86 1115.16,441.06C1116.19,440.32 1116.81,439.10 1117.03,437.84C1117.19,436.91 1117.17,435.97 1117.12,435.04C1117.06,434.01 1116.96,432.98 1116.82,431.96C1116.28,427.96 1115.03,424.11 1114.18,420.17C1113.33,416.21 1112.72,412.20 1112.36,408.16C1112.21,406.46 1112.23,404.69 1111.84,403.01C1111.54,401.71 1110.74,400.08 1109.29,399.78C1108.53,399.62 1107.89,400.04 1107.59,400.73C1107.27,401.48 1107.31,402.32 1107.32,403.12C1107.34,405.24 1107.37,407.36 1107.39,409.48C1106.64,409.17 1105.78,409.11 1105.00,409.40C1103.96,409.78 1103.26,410.62 1102.93,411.64C1102.25,410.25 1100.24,409.83 1098.85,410.30C1098.07,410.57 1097.36,411.10 1097.04,411.88C1096.84,412.36 1096.82,412.85 1096.89,413.34C1096.26,412.75 1095.45,412.33 1094.62,412.18C1093.34,411.94 1092.01,412.34 1091.05,413.23C1089.99,414.22 1089.55,415.79 1089.44,417.20C1089.38,417.97 1089.47,418.74 1089.71,419.48C1089.95,420.25 1090.31,420.96 1090.55,421.73C1091.00,423.11 1091.11,424.66 1092.17,425.75C1092.21,425.79 1092.25,425.79 1092.30,425.80C1093.37,427.59 1093.75,429.71 1094.38,431.68C1095.07,433.87 1095.91,436.02 1096.89,438.11C1097.45,439.30 1098.05,440.47 1098.69,441.61C1098.71,441.64 1098.73,441.64 1098.75,441.66C1098.85,443.22 1098.60,444.76 1098.25,446.27C1097.90,447.78 1097.50,449.27 1097.06,450.75C1096.16,453.72 1095.09,456.63 1093.83,459.46C1093.07,461.17 1092.22,462.85 1091.34,464.50C1088.28,461.55 1085.64,458.19 1083.23,454.68C1080.75,451.08 1078.50,447.33 1076.15,443.65C1073.81,439.98 1071.38,436.35 1068.57,433.02C1067.15,431.34 1065.64,429.74 1064.01,428.27C1062.25,426.68 1060.32,425.27 1058.13,424.34C1055.80,423.36 1053.30,422.88 1050.84,422.40C1049.46,422.14 1048.07,421.90 1046.69,421.67L1046.73,422.23C1047.47,422.35 1048.21,422.46 1048.95,422.60C1051.44,423.04 1053.96,423.48 1056.36,424.25C1060.84,425.71 1064.33,429.00 1067.38,432.47C1070.26,435.73 1072.73,439.31 1075.07,442.96C1077.42,446.61 1079.65,450.33 1082.07,453.93C1084.46,457.48 1087.04,460.94 1090.05,464.00C1090.39,464.34 1090.73,464.67 1091.08,465.01C1090.56,465.97 1090.05,466.92 1089.54,467.88C1088.75,469.35 1087.97,470.85 1087.29,472.38C1082.23,476.62 1076.95,480.60 1071.51,484.34C1070.13,485.28 1068.75,486.22 1067.35,487.13C1067.00,487.37 1066.65,487.63 1066.24,487.34C1065.92,487.12 1065.66,486.77 1065.40,486.49C1064.85,485.88 1064.32,485.26 1063.80,484.63C1061.76,482.13 1059.91,479.47 1057.73,477.08C1055.65,474.80 1053.25,472.76 1050.40,471.52L1050.45,472.12C1056.02,474.64 1059.46,480.12 1063.19,484.72" fill="#231f20"/>
    <path d="M1107.82,433.37C1108.10,433.75 1108.39,434.14 1108.59,434.56C1108.82,435.04 1108.90,435.54 1108.89,436.07C1108.87,437.10 1108.78,438.17 1108.40,439.14C1108.28,439.46 1108.80,439.60 1108.92,439.28C1109.32,438.25 1109.43,437.06 1109.43,435.96C1109.42,434.83 1108.93,433.98 1108.29,433.10C1108.08,432.82 1107.62,433.09 1107.82,433.37" fill="#231f20"/>
    <path d="M1104.34,441.59C1105.09,441.53 1105.84,441.41 1106.57,441.23C1106.91,441.14 1106.77,440.63 1106.43,440.71C1105.74,440.89 1105.05,441.00 1104.34,441.05C1104.19,441.06 1104.07,441.17 1104.07,441.32C1104.07,441.46 1104.19,441.60 1104.34,441.59" fill="#231f20"/>
    <path d="M1107.19,426.36C1107.28,426.46 1107.47,426.46 1107.57,426.36C1107.67,426.25 1107.67,426.09 1107.57,425.98C1107.29,425.68 1107.02,425.38 1106.75,425.09C1106.65,424.98 1106.46,424.98 1106.37,425.09C1106.27,425.20 1106.27,425.35 1106.37,425.46C1106.64,425.76 1106.91,426.06 1107.19,426.36" fill="#231f20"/>
    <path d="M1107.22,426.84C1107.24,426.50 1106.71,426.50 1106.68,426.84C1106.56,428.49 1106.88,430.15 1107.59,431.64C1107.74,431.96 1108.20,431.68 1108.05,431.37C1107.38,429.96 1107.10,428.40 1107.22,426.84" fill="#231f20"/>
    <path d="M1110.53,406.36C1110.23,406.36 1109.99,406.33 1109.71,406.27C1109.43,406.21 1109.15,406.12 1108.89,406.01C1108.76,405.96 1108.59,406.07 1108.56,406.20C1108.52,406.35 1108.61,406.47 1108.75,406.53C1109.31,406.76 1109.92,406.89 1110.53,406.90C1110.67,406.90 1110.80,406.77 1110.79,406.63C1110.79,406.48 1110.68,406.37 1110.53,406.36" fill="#231f20"/>
    <path d="M1110.35,410.43C1110.11,410.38 1109.88,410.33 1109.64,410.28C1109.57,410.27 1109.50,410.27 1109.44,410.31C1109.38,410.34 1109.33,410.41 1109.31,410.47C1109.30,410.54 1109.30,410.62 1109.34,410.68C1109.38,410.73 1109.43,410.79 1109.50,410.80C1109.73,410.85 1109.97,410.90 1110.20,410.95C1110.27,410.97 1110.35,410.96 1110.41,410.92C1110.47,410.89 1110.52,410.83 1110.53,410.76C1110.55,410.69 1110.55,410.62 1110.51,410.56C1110.47,410.50 1110.42,410.45 1110.35,410.43" fill="#231f20"/>
    <path d="M1094.57,419.39C1094.97,419.50 1095.39,419.60 1095.82,419.58C1096.21,419.57 1096.58,419.44 1096.89,419.19C1097.01,419.10 1096.99,418.91 1096.89,418.81C1096.78,418.70 1096.63,418.72 1096.51,418.81C1096.02,419.22 1095.28,419.02 1094.71,418.88C1094.37,418.79 1094.23,419.31 1094.57,419.39" fill="#231f20"/>
    <path d="M1035.29,418.83C1035.81,418.62 1036.35,418.47 1036.89,418.34C1037.60,418.17 1038.31,418.04 1039.03,417.91C1039.02,417.88 1038.99,417.87 1038.99,417.84C1038.89,416.90 1038.81,415.96 1038.76,415.01C1038.73,414.32 1038.70,413.61 1038.77,412.92C1038.72,412.89 1038.67,412.83 1038.65,412.75C1038.44,411.70 1037.35,411.11 1036.35,411.05C1035.42,410.99 1034.38,411.30 1033.80,412.07C1033.03,413.11 1033.59,414.42 1034.08,415.45C1034.59,416.55 1035.03,417.65 1035.29,418.83" fill="#f1d1a7"/>
    <path d="M1042.62,417.87C1042.17,417.93 1041.72,417.99 1041.27,418.05C1040.90,418.11 1040.53,418.18 1040.16,418.25C1040.15,418.26 1040.14,418.27 1040.12,418.28C1040.12,418.29 1040.12,418.28 1040.12,418.29L1040.11,418.38C1040.10,418.45 1040.10,418.52 1040.09,418.59C1040.08,418.72 1040.08,418.85 1040.09,418.97C1040.10,419.22 1040.15,419.48 1040.25,419.70C1040.46,420.13 1040.83,420.37 1041.30,420.40C1041.81,420.44 1042.32,420.30 1042.80,420.17C1043.32,420.02 1043.82,419.82 1044.29,419.58C1044.30,419.58 1044.30,419.58 1044.31,419.58C1044.40,419.03 1044.35,418.44 1044.01,418.01C1043.70,417.61 1043.06,417.82 1042.62,417.87" fill="#f1d1a7"/>
    <path d="M1039.96,417.72C1040.97,417.55 1041.99,417.41 1043.01,417.30C1043.48,417.24 1043.93,417.17 1044.30,417.54C1044.37,417.60 1044.42,417.69 1044.47,417.77C1044.76,416.54 1045.05,415.30 1045.08,414.03C1045.11,412.85 1044.86,411.53 1043.88,410.76C1042.97,410.04 1041.71,409.95 1040.72,410.55C1039.60,411.21 1039.27,412.44 1039.26,413.67C1039.24,415.05 1039.37,416.44 1039.52,417.81C1039.67,417.78 1039.82,417.75 1039.96,417.72" fill="#f1d1a7"/>
    <path d="M1030.74,419.28C1031.32,419.43 1032.06,419.62 1032.55,419.21C1032.66,419.12 1032.82,419.10 1032.93,419.21C1033.03,419.31 1033.04,419.50 1032.93,419.59C1032.62,419.85 1032.25,419.97 1031.85,419.99C1031.43,420.01 1031.01,419.90 1030.60,419.80C1030.27,419.71 1030.41,419.20 1030.74,419.28M1040.38,441.45C1041.08,441.40 1041.78,441.29 1042.47,441.11C1042.80,441.03 1042.94,441.54 1042.61,441.63C1041.88,441.82 1041.13,441.94 1040.38,441.99C1040.23,442.00 1040.11,441.86 1040.11,441.72C1040.11,441.57 1040.23,441.47 1040.38,441.45M1042.41,425.49C1042.50,425.39 1042.69,425.39 1042.78,425.49C1043.06,425.79 1043.33,426.08 1043.60,426.38C1043.70,426.49 1043.70,426.65 1043.60,426.76C1043.51,426.86 1043.32,426.86 1043.22,426.76C1042.95,426.46 1042.68,426.16 1042.41,425.87C1042.30,425.76 1042.30,425.60 1042.41,425.49M1043.63,432.05C1042.92,430.55 1042.60,428.90 1042.72,427.24C1042.74,426.90 1043.28,426.90 1043.25,427.24C1043.14,428.80 1043.42,430.36 1044.09,431.78C1044.24,432.09 1043.78,432.36 1043.63,432.05M1044.32,433.50C1044.97,434.38 1045.46,435.24 1045.46,436.36C1045.46,437.46 1045.36,438.65 1044.96,439.68C1044.83,440.00 1044.32,439.86 1044.44,439.54C1044.82,438.57 1044.91,437.50 1044.93,436.47C1044.93,435.94 1044.86,435.44 1044.63,434.97C1044.42,434.54 1044.14,434.15 1043.86,433.77C1043.66,433.49 1044.12,433.22 1044.32,433.50M1046.56,407.30C1045.95,407.29 1045.34,407.17 1044.78,406.93C1044.64,406.87 1044.56,406.76 1044.60,406.60C1044.62,406.47 1044.80,406.36 1044.92,406.41C1045.19,406.52 1045.46,406.61 1045.75,406.67C1046.02,406.73 1046.27,406.76 1046.56,406.77C1046.71,406.77 1046.82,406.89 1046.83,407.03C1046.84,407.18 1046.70,407.30 1046.56,407.30M1027.28,422.57C1027.54,423.57 1027.74,424.63 1028.36,425.47C1028.44,425.47 1028.53,425.50 1028.58,425.58C1029.26,426.60 1029.69,427.74 1030.04,428.91C1030.70,431.10 1031.32,433.29 1032.17,435.42C1033.02,437.56 1034.02,439.64 1035.14,441.65C1035.23,441.68 1035.31,441.75 1035.32,441.87C1035.46,443.65 1035.14,445.41 1034.73,447.13C1034.66,447.42 1034.58,447.70 1034.51,447.99C1034.94,448.18 1035.38,448.36 1035.81,448.54C1039.54,450.11 1043.49,451.77 1047.59,451.83C1048.32,451.84 1049.04,451.76 1049.74,451.65C1050.05,448.37 1050.35,445.08 1050.64,441.80C1050.55,441.84 1050.48,441.88 1050.40,441.91C1050.08,442.04 1049.94,441.52 1050.25,441.40C1052.07,440.68 1052.62,438.58 1052.66,436.81C1052.69,434.70 1052.41,432.56 1052.02,430.49C1051.32,426.82 1050.21,423.24 1049.47,419.57C1048.72,415.91 1048.19,412.22 1047.86,408.50C1047.72,406.90 1047.73,405.23 1047.38,403.65C1047.24,402.99 1047.01,402.34 1046.62,401.77C1046.24,401.22 1045.46,400.47 1044.71,400.73C1044.11,400.93 1043.95,401.71 1043.90,402.27C1043.83,403.06 1043.89,403.87 1043.90,404.66C1043.92,406.47 1043.95,408.28 1043.96,410.09C1043.96,410.12 1043.94,410.13 1043.94,410.15C1044.13,410.27 1044.31,410.40 1044.47,410.56C1045.41,411.47 1045.66,412.88 1045.62,414.14C1045.59,414.75 1045.51,415.35 1045.40,415.94C1045.42,415.94 1045.44,415.92 1045.45,415.92C1045.89,415.96 1046.33,415.99 1046.76,416.02C1046.91,416.03 1047.02,416.14 1047.03,416.29C1047.04,416.43 1046.90,416.57 1046.76,416.56C1046.33,416.53 1045.89,416.49 1045.45,416.46C1045.40,416.45 1045.36,416.43 1045.32,416.40C1045.20,417.03 1045.05,417.65 1044.91,418.26C1044.89,418.35 1044.84,418.40 1044.79,418.43C1044.79,418.44 1044.79,418.44 1044.80,418.45C1045.16,419.78 1044.48,420.96 1043.58,421.88C1043.58,421.90 1043.60,421.90 1043.60,421.92C1043.53,422.98 1043.24,424.11 1042.37,424.79C1041.60,425.40 1040.45,425.49 1039.72,424.77C1039.64,424.69 1039.64,424.60 1039.67,424.52C1039.11,424.77 1038.55,425.01 1037.96,425.20C1038.01,426.01 1037.72,426.79 1037.35,427.52C1038.32,427.94 1038.76,428.96 1039.12,429.90C1039.17,430.03 1039.06,430.19 1038.93,430.23C1038.78,430.27 1038.65,430.18 1038.60,430.04C1038.31,429.26 1037.94,428.31 1037.10,427.99C1037.05,428.08 1037.00,428.17 1036.95,428.26C1036.79,428.57 1036.32,428.29 1036.49,427.99C1036.74,427.54 1036.99,427.09 1037.18,426.61C1037.36,426.14 1037.51,425.61 1037.43,425.11C1037.41,424.96 1037.46,424.82 1037.62,424.78C1037.63,424.77 1037.63,424.78 1037.64,424.78C1037.67,424.76 1037.67,424.74 1037.70,424.73C1039.49,424.16 1041.17,423.26 1042.61,422.06C1043.22,421.56 1043.80,420.98 1044.12,420.25C1044.12,420.25 1044.12,420.24 1044.12,420.24C1043.65,420.45 1043.17,420.63 1042.67,420.76C1042.08,420.91 1041.43,421.04 1040.83,420.86C1040.27,420.70 1039.88,420.26 1039.69,419.72C1039.58,419.42 1039.54,419.08 1039.55,418.76C1039.55,418.62 1039.57,418.49 1039.58,418.35C1039.22,418.41 1038.86,418.46 1038.50,418.54C1036.90,418.86 1035.06,419.11 1033.94,420.42C1033.39,421.07 1032.96,421.82 1032.44,422.49C1031.90,423.19 1031.32,423.86 1030.70,424.50C1030.46,424.75 1030.09,424.37 1030.33,424.12C1030.47,423.97 1030.60,423.81 1030.74,423.66C1029.95,423.01 1029.39,422.09 1028.79,421.27C1028.75,421.21 1028.70,421.15 1028.66,421.08C1028.32,421.09 1027.97,421.04 1027.65,420.92C1027.51,420.86 1027.43,420.74 1027.47,420.59C1027.48,420.52 1027.53,420.46 1027.59,420.43C1027.64,420.40 1027.73,420.38 1027.80,420.40C1027.94,420.46 1028.10,420.50 1028.25,420.53C1027.78,419.85 1027.33,419.17 1027.05,418.38C1026.93,418.05 1027.45,417.91 1027.56,418.23C1027.93,419.24 1028.57,420.07 1029.20,420.92C1029.52,421.36 1029.84,421.81 1030.17,422.25C1030.44,422.62 1030.73,422.98 1031.09,423.27C1031.58,422.71 1032.05,422.14 1032.49,421.53C1033.08,420.71 1033.59,419.82 1034.46,419.25C1034.56,419.18 1034.68,419.12 1034.79,419.06C1034.66,418.43 1034.49,417.81 1034.27,417.21C1034.04,416.58 1033.73,416.00 1033.46,415.39C1033.40,415.25 1033.34,415.11 1033.28,414.96C1033.25,414.94 1033.22,414.94 1033.21,414.91C1032.57,413.79 1031.23,413.06 1029.96,413.04C1028.73,413.03 1027.53,413.68 1026.88,414.72C1026.17,415.86 1025.87,417.43 1026.03,418.76C1026.20,420.09 1026.94,421.28 1027.28,422.57" fill="#f1d1a7"/>
    <path d="M1046.45,411.33C1046.38,411.36 1046.31,411.37 1046.24,411.35C1046.00,411.30 1045.77,411.25 1045.54,411.20C1045.47,411.19 1045.41,411.14 1045.38,411.08C1045.34,411.02 1045.33,410.94 1045.35,410.87C1045.36,410.81 1045.42,410.74 1045.47,410.71C1045.54,410.68 1045.61,410.67 1045.68,410.68C1045.91,410.74 1046.15,410.79 1046.38,410.84C1046.45,410.85 1046.51,410.90 1046.54,410.96C1046.58,411.02 1046.58,411.10 1046.57,411.17C1046.55,411.23 1046.50,411.29 1046.45,411.33" fill="#f1d1a7"/>
    <path d="M1040.10,424.39C1040.66,424.94 1041.56,424.80 1042.11,424.31C1042.66,423.83 1042.90,423.13 1043.00,422.42C1042.90,422.51 1042.79,422.60 1042.69,422.68C1041.86,423.34 1040.96,423.89 1040.01,424.36C1040.04,424.37 1040.07,424.36 1040.10,424.39" fill="#f1d1a7"/>
    <path d="M1033.80,412.07C1034.38,411.30 1035.42,410.99 1036.35,411.05C1037.35,411.11 1038.44,411.70 1038.65,412.75C1038.67,412.83 1038.72,412.89 1038.77,412.92C1038.70,413.61 1038.73,414.32 1038.76,415.01C1038.81,415.96 1038.89,416.90 1038.99,417.84C1038.99,417.87 1039.02,417.88 1039.03,417.91C1038.31,418.04 1037.60,418.17 1036.89,418.34C1036.35,418.47 1035.80,418.62 1035.29,418.83C1035.03,417.65 1034.59,416.55 1034.08,415.45C1033.59,414.42 1033.03,413.11 1033.80,412.07M1040.72,410.55C1041.71,409.95 1042.97,410.04 1043.88,410.76C1044.86,411.53 1045.11,412.85 1045.08,414.03C1045.05,415.30 1044.76,416.54 1044.47,417.77C1044.42,417.69 1044.37,417.60 1044.30,417.53C1043.93,417.17 1043.48,417.24 1043.01,417.29C1041.99,417.41 1040.97,417.55 1039.96,417.72C1039.82,417.75 1039.67,417.78 1039.52,417.81C1039.37,416.44 1039.24,415.05 1039.26,413.67C1039.27,412.44 1039.60,411.21 1040.72,410.55M1044.30,419.58C1044.30,419.58 1044.30,419.58 1044.29,419.58C1043.82,419.82 1043.32,420.02 1042.80,420.17C1042.32,420.30 1041.81,420.44 1041.30,420.40C1040.83,420.37 1040.46,420.13 1040.25,419.70C1040.15,419.48 1040.10,419.22 1040.09,418.97C1040.08,418.85 1040.08,418.72 1040.09,418.59C1040.10,418.52 1040.10,418.45 1040.11,418.38L1040.12,418.29C1040.12,418.28 1040.12,418.29 1040.12,418.28C1040.13,418.27 1040.15,418.26 1040.16,418.25C1040.53,418.18 1040.90,418.11 1041.27,418.05C1041.72,417.99 1042.17,417.93 1042.62,417.88C1043.06,417.82 1043.69,417.62 1044.01,418.01C1044.35,418.44 1044.40,419.03 1044.30,419.58M1042.11,424.31C1041.56,424.80 1040.66,424.94 1040.10,424.39C1040.07,424.36 1040.04,424.37 1040.01,424.35C1040.96,423.89 1041.86,423.34 1042.69,422.68C1042.79,422.60 1042.90,422.51 1043.00,422.42C1042.90,423.13 1042.66,423.83 1042.11,424.31M1026.59,422.13C1027.03,423.51 1027.15,425.06 1028.20,426.15C1028.24,426.19 1028.29,426.20 1028.33,426.21C1029.40,427.99 1029.79,430.11 1030.41,432.08C1031.11,434.27 1031.95,436.42 1032.92,438.51C1033.48,439.70 1034.08,440.87 1034.73,442.02C1034.74,442.04 1034.77,442.04 1034.79,442.06C1034.88,443.62 1034.64,445.16 1034.29,446.67C1034.20,447.04 1034.10,447.41 1034.01,447.78C1034.18,447.85 1034.34,447.92 1034.51,447.99C1034.58,447.70 1034.66,447.42 1034.73,447.13C1035.14,445.41 1035.46,443.64 1035.32,441.87C1035.31,441.74 1035.23,441.68 1035.14,441.65C1034.02,439.64 1033.02,437.56 1032.17,435.42C1031.32,433.29 1030.70,431.10 1030.04,428.91C1029.69,427.74 1029.26,426.60 1028.58,425.58C1028.53,425.50 1028.44,425.47 1028.36,425.47C1027.74,424.63 1027.54,423.57 1027.28,422.57C1026.94,421.28 1026.20,420.09 1026.03,418.76C1025.87,417.43 1026.17,415.86 1026.88,414.72C1027.53,413.68 1028.73,413.03 1029.96,413.04C1031.23,413.06 1032.57,413.79 1033.21,414.91C1033.22,414.94 1033.25,414.94 1033.28,414.96C1033.34,415.11 1033.40,415.25 1033.46,415.39C1033.73,415.99 1034.04,416.58 1034.27,417.21C1034.49,417.81 1034.66,418.43 1034.79,419.06C1034.68,419.12 1034.56,419.18 1034.46,419.25C1033.59,419.82 1033.08,420.71 1032.49,421.53C1032.05,422.14 1031.58,422.71 1031.09,423.27C1030.73,422.98 1030.44,422.62 1030.17,422.25C1029.84,421.81 1029.52,421.36 1029.19,420.92C1028.57,420.07 1027.93,419.24 1027.56,418.23C1027.44,417.91 1026.93,418.05 1027.04,418.38C1027.33,419.17 1027.77,419.85 1028.25,420.53C1028.10,420.50 1027.94,420.46 1027.80,420.40C1027.73,420.38 1027.64,420.40 1027.59,420.43C1027.53,420.46 1027.48,420.52 1027.47,420.59C1027.43,420.74 1027.51,420.86 1027.65,420.92C1027.97,421.04 1028.31,421.09 1028.66,421.08C1028.70,421.15 1028.75,421.21 1028.79,421.27C1029.39,422.09 1029.95,423.01 1030.74,423.66C1030.60,423.81 1030.47,423.97 1030.33,424.12C1030.09,424.37 1030.46,424.75 1030.70,424.50C1031.32,423.86 1031.90,423.19 1032.44,422.49C1032.96,421.82 1033.39,421.07 1033.94,420.42C1035.06,419.11 1036.90,418.86 1038.50,418.54C1038.86,418.46 1039.22,418.41 1039.58,418.35C1039.57,418.49 1039.55,418.62 1039.55,418.76C1039.54,419.08 1039.57,419.42 1039.69,419.72C1039.88,420.26 1040.27,420.70 1040.83,420.86C1041.43,421.04 1042.08,420.90 1042.67,420.76C1043.17,420.63 1043.65,420.45 1044.12,420.24C1044.12,420.24 1044.12,420.25 1044.12,420.25C1043.80,420.98 1043.22,421.56 1042.61,422.06C1041.17,423.26 1039.49,424.16 1037.70,424.73C1037.67,424.74 1037.67,424.76 1037.64,424.78C1037.63,424.78 1037.62,424.77 1037.62,424.78C1037.46,424.82 1037.41,424.96 1037.43,425.11C1037.50,425.61 1037.36,426.14 1037.18,426.61C1036.99,427.09 1036.74,427.54 1036.49,427.99C1036.32,428.29 1036.78,428.57 1036.95,428.26C1037.00,428.17 1037.05,428.08 1037.10,427.99C1037.94,428.31 1038.31,429.26 1038.60,430.04C1038.65,430.18 1038.78,430.27 1038.93,430.23C1039.06,430.19 1039.17,430.03 1039.12,429.90C1038.76,428.96 1038.32,427.94 1037.35,427.52C1037.72,426.79 1038.01,426.01 1037.96,425.20C1038.55,425.01 1039.11,424.77 1039.67,424.52C1039.64,424.60 1039.64,424.69 1039.72,424.77C1040.45,425.49 1041.60,425.40 1042.37,424.79C1043.24,424.11 1043.53,422.98 1043.60,421.92C1043.60,421.90 1043.58,421.90 1043.58,421.88C1044.48,420.96 1045.16,419.78 1044.80,418.45C1044.79,418.44 1044.79,418.44 1044.79,418.43C1044.84,418.40 1044.89,418.34 1044.91,418.26C1045.05,417.65 1045.20,417.03 1045.32,416.40C1045.36,416.43 1045.40,416.46 1045.45,416.46C1045.89,416.49 1046.33,416.53 1046.76,416.56C1046.90,416.57 1047.04,416.43 1047.03,416.29C1047.02,416.14 1046.91,416.03 1046.76,416.02C1046.33,415.99 1045.89,415.96 1045.45,415.92C1045.44,415.92 1045.42,415.94 1045.40,415.94C1045.51,415.35 1045.59,414.75 1045.62,414.14C1045.66,412.88 1045.41,411.47 1044.47,410.56C1044.30,410.41 1044.12,410.27 1043.94,410.15C1043.94,410.13 1043.96,410.12 1043.96,410.09C1043.95,408.28 1043.92,406.47 1043.90,404.66C1043.89,403.87 1043.83,403.06 1043.91,402.27C1043.95,401.71 1044.11,400.93 1044.71,400.73C1045.45,400.47 1046.23,401.22 1046.62,401.77C1047.01,402.34 1047.23,402.99 1047.38,403.65C1047.73,405.23 1047.71,406.89 1047.86,408.50C1048.19,412.22 1048.72,415.91 1049.47,419.57C1050.21,423.24 1051.32,426.82 1052.02,430.49C1052.41,432.56 1052.69,434.70 1052.66,436.81C1052.62,438.58 1052.07,440.68 1050.25,441.40C1049.94,441.52 1050.08,442.04 1050.40,441.92C1050.48,441.88 1050.55,441.84 1050.63,441.80C1050.35,445.08 1050.05,448.37 1049.74,451.65C1049.93,451.62 1050.12,451.59 1050.31,451.55C1050.54,448.99 1050.76,446.43 1050.99,443.86C1051.06,443.06 1051.13,442.26 1051.20,441.46C1052.23,440.72 1052.85,439.51 1053.06,438.24C1053.22,437.32 1053.21,436.37 1053.16,435.44C1053.10,434.41 1053.00,433.38 1052.86,432.36C1052.32,428.36 1051.07,424.51 1050.22,420.57C1049.37,416.61 1048.76,412.60 1048.40,408.56C1048.25,406.86 1048.27,405.09 1047.88,403.42C1047.57,402.12 1046.78,400.48 1045.33,400.18C1044.57,400.02 1043.92,400.45 1043.63,401.13C1043.30,401.89 1043.34,402.73 1043.35,403.53C1043.37,405.65 1043.40,407.77 1043.43,409.88C1042.67,409.57 1041.82,409.52 1041.04,409.80C1040.00,410.18 1039.29,411.02 1038.97,412.04C1038.28,410.65 1036.28,410.23 1034.89,410.70C1034.10,410.97 1033.40,411.50 1033.07,412.28C1032.88,412.76 1032.85,413.25 1032.93,413.74C1032.30,413.15 1031.49,412.74 1030.66,412.58C1029.38,412.34 1028.04,412.74 1027.09,413.63C1026.02,414.62 1025.59,416.19 1025.48,417.60C1025.42,418.37 1025.51,419.14 1025.74,419.88C1025.99,420.65 1026.35,421.37 1026.59,422.13" fill="#231f20"/>
    <path d="M1043.86,433.77C1044.14,434.15 1044.42,434.54 1044.63,434.97C1044.86,435.44 1044.93,435.94 1044.93,436.47C1044.91,437.50 1044.82,438.57 1044.44,439.54C1044.31,439.86 1044.83,440.00 1044.96,439.68C1045.36,438.65 1045.46,437.46 1045.46,436.36C1045.46,435.24 1044.97,434.38 1044.32,433.50C1044.12,433.22 1043.66,433.49 1043.86,433.77" fill="#231f20"/>
    <path d="M1040.38,441.99C1041.13,441.94 1041.88,441.82 1042.61,441.63C1042.94,441.54 1042.80,441.03 1042.47,441.11C1041.78,441.29 1041.08,441.40 1040.38,441.45C1040.23,441.47 1040.11,441.57 1040.11,441.72C1040.11,441.86 1040.23,442.00 1040.38,441.99" fill="#231f20"/>
    <path d="M1043.22,426.76C1043.32,426.86 1043.51,426.86 1043.60,426.76C1043.70,426.65 1043.70,426.49 1043.60,426.38C1043.33,426.08 1043.06,425.79 1042.79,425.49C1042.69,425.38 1042.50,425.38 1042.41,425.49C1042.30,425.60 1042.31,425.76 1042.41,425.87C1042.68,426.16 1042.95,426.46 1043.22,426.76" fill="#231f20"/>
    <path d="M1043.25,427.24C1043.28,426.90 1042.74,426.90 1042.72,427.24C1042.60,428.90 1042.92,430.55 1043.63,432.05C1043.78,432.36 1044.24,432.09 1044.09,431.78C1043.42,430.36 1043.14,428.80 1043.25,427.24" fill="#231f20"/>
    <path d="M1046.56,406.77C1046.27,406.76 1046.02,406.73 1045.75,406.67C1045.46,406.61 1045.19,406.52 1044.93,406.41C1044.80,406.36 1044.63,406.47 1044.60,406.60C1044.56,406.76 1044.64,406.87 1044.78,406.93C1045.35,407.17 1045.95,407.29 1046.56,407.30C1046.70,407.30 1046.84,407.18 1046.83,407.03C1046.82,406.89 1046.71,406.77 1046.56,406.77" fill="#231f20"/>
    <path d="M1046.38,410.84C1046.15,410.79 1045.91,410.73 1045.68,410.68C1045.61,410.67 1045.54,410.67 1045.47,410.71C1045.42,410.74 1045.36,410.81 1045.35,410.87C1045.33,410.94 1045.34,411.02 1045.38,411.08C1045.41,411.14 1045.47,411.19 1045.54,411.20C1045.77,411.25 1046.01,411.30 1046.24,411.35C1046.31,411.37 1046.38,411.36 1046.45,411.33C1046.50,411.29 1046.55,411.23 1046.57,411.17C1046.59,411.10 1046.58,411.02 1046.54,410.96C1046.51,410.90 1046.45,410.85 1046.38,410.84" fill="#231f20"/>
    <path d="M1030.60,419.80C1031.01,419.90 1031.43,420.01 1031.85,419.99C1032.25,419.97 1032.62,419.85 1032.93,419.59C1033.04,419.50 1033.03,419.31 1032.93,419.21C1032.82,419.10 1032.66,419.12 1032.55,419.21C1032.06,419.62 1031.32,419.43 1030.74,419.28C1030.41,419.20 1030.27,419.71 1030.60,419.80" fill="#231f20"/>
    <path d="M1038.31,456.86L1105.41,456.86" fill="none" stroke="#231f20" stroke-width="1.07"/>
    <path d="M1098.09,462.00C1097.93,461.75 1098.01,461.42 1098.26,461.26L1105.17,456.86L1098.26,452.46C1098.01,452.30 1097.93,451.97 1098.09,451.72C1098.25,451.47 1098.58,451.40 1098.83,451.55L1106.46,456.41C1106.61,456.51 1106.70,456.68 1106.70,456.86C1106.70,457.04 1106.61,457.21 1106.46,457.31L1098.83,462.17C1098.74,462.22 1098.64,462.25 1098.54,462.25C1098.37,462.25 1098.19,462.16 1098.09,462.00" fill="#231f20"/>
  </g>
</svg>