<svg xmlns="http://www.w3.org/2000/svg" viewBox="0 0 200 200" width="200" height="200">
  <g transform="translate(34.39, 12.00) scale(0.7798) translate(-944.21, -337.78)">
    <path d="M1008.80,418.57C1008.80,418.57 1011.88,411.77 1011.75,409.38C1011.75,409.38 1015.94,413.63 1026.29,413.84C1036.43,414.05 1041.99,407.44 1041.99,407.44C1041.99,407.44 1041.80,412.97 1044.48,416.64C1047.17,420.31 1044.48,416.64 1044.48,416.64L1046.13,431.88L1011.09,432.64L1008.80,418.57" fill="#f1d1a7" stroke="#231f20" stroke-width="0.54"/>
    <path d="M1051.88,360.99L1051.88,374.97C1050.77,375.57 1049.98,376.69 1049.34,377.85C1049.31,377.89 1049.30,377.92 1049.29,377.95C1049.17,377.09 1049.01,376.23 1048.81,375.38C1048.63,374.62 1048.42,373.85 1048.17,373.10C1047.56,371.24 1046.62,369.48 1046.10,367.59C1045.09,363.91 1046.69,360.08 1045.56,356.42C1045.15,355.06 1044.37,353.77 1043.14,353.02C1043.14,353.01 1043.13,353.01 1043.13,353.01L1043.13,352.99C1043.09,352.97 1043.04,352.94 1042.99,352.92C1042.89,352.85 1042.77,352.80 1042.67,352.75C1042.52,352.68 1042.37,352.76 1042.30,352.88C1040.30,352.83 1038.32,353.32 1036.36,353.60C1034.16,353.91 1031.96,354.10 1029.75,354.18C1025.40,354.33 1021.02,354.04 1016.72,353.30C1014.29,352.88 1012.72,352.40 1011.52,352.70L1011.51,352.70C1010.71,352.90 1009.95,353.31 1009.29,353.81C1007.85,354.93 1006.83,356.60 1006.27,358.32C1005.97,359.21 1005.81,360.15 1005.76,361.09C1005.72,362.17 1005.90,363.23 1006.03,364.31C1006.17,365.44 1006.18,366.55 1005.98,367.68C1005.79,368.76 1005.48,369.82 1005.16,370.88C1004.60,372.68 1003.93,374.46 1003.11,376.18C1002.94,376.54 1002.76,376.92 1002.57,377.27C1002.51,377.41 1002.44,377.54 1002.38,377.67C1002.04,377.09 1001.65,376.54 1001.19,376.04C1000.85,375.64 1000.46,375.26 1000.03,374.96L1000.03,360.99C1000.03,348.49 1010.20,338.32 1022.71,338.32L1029.19,338.32C1041.71,338.32 1051.88,348.49 1051.88,360.99" fill="#4b3e37"/>
    <path d="M1049.29,377.95C1049.17,377.09 1049.01,376.23 1048.81,375.38C1048.64,374.61 1048.42,373.85 1048.17,373.10C1047.56,371.24 1046.63,369.47 1046.10,367.58C1045.09,363.90 1046.69,360.08 1045.56,356.42C1045.15,355.06 1044.37,353.77 1043.14,353.01C1043.14,353.00 1043.13,353.00 1043.13,353.00L1043.13,352.99C1043.09,352.97 1043.05,352.94 1042.99,352.92C1042.89,352.85 1042.78,352.80 1042.67,352.74C1042.52,352.68 1042.37,352.75 1042.30,352.87C1040.30,352.83 1038.32,353.31 1036.36,353.59C1034.16,353.90 1031.96,354.10 1029.76,354.17C1025.40,354.32 1021.02,354.03 1016.72,353.29C1014.29,352.87 1012.72,352.40 1011.52,352.70L1011.51,352.70C1010.71,352.89 1009.95,353.30 1009.29,353.81C1007.85,354.93 1006.83,356.59 1006.27,358.31C1005.97,359.21 1005.81,360.14 1005.77,361.09C1005.72,362.16 1005.91,363.23 1006.04,364.30C1006.18,365.43 1006.19,366.55 1005.98,367.68C1005.79,368.75 1005.49,369.82 1005.16,370.87C1004.61,372.68 1003.93,374.45 1003.11,376.17C1002.94,376.54 1002.77,376.92 1002.57,377.27C1002.51,377.41 1002.44,377.54 1002.38,377.67C1002.05,377.09 1001.65,376.54 1001.20,376.03C1000.85,375.64 1000.47,375.26 1000.04,374.96L1000.04,360.99C1000.04,348.49 1010.21,338.31 1022.71,338.31L1029.20,338.31C1041.71,338.31 1051.88,348.49 1051.88,360.99L1051.88,374.97C1050.78,375.57 1049.98,376.69 1049.35,377.85C1049.31,377.88 1049.30,377.92 1049.29,377.95M1056.93,378.14C1056.77,376.30 1055.54,374.37 1053.46,374.51C1053.09,374.53 1052.74,374.60 1052.42,374.72L1052.42,360.99C1052.42,348.18 1042.00,337.78 1029.20,337.78L1022.71,337.78C1009.91,337.78 999.50,348.18 999.50,360.99L999.50,374.61C999.26,374.50 999.02,374.39 998.78,374.31C997.97,374.07 997.01,374.14 996.30,374.60C995.50,375.12 995.20,376.02 995.14,376.93C995.08,378.06 995.25,379.22 995.33,380.35C995.41,381.53 995.48,382.72 995.63,383.90C995.92,386.03 996.54,388.29 997.72,390.11C998.20,390.82 998.78,391.45 999.50,391.89C999.67,392.00 999.84,392.10 1000.04,392.17C1000.07,392.19 1000.11,392.22 1000.14,392.23C1000.94,392.55 1001.80,392.62 1002.61,392.40C1003.22,404.66 1013.39,414.44 1025.79,414.44L1026.12,414.44C1038.50,414.44 1048.65,404.71 1049.31,392.50C1050.15,392.82 1051.07,392.73 1051.88,392.39C1052.07,392.31 1052.25,392.23 1052.42,392.12C1052.87,391.86 1053.28,391.53 1053.60,391.14C1054.98,389.52 1055.46,387.23 1055.94,385.22C1056.22,384.04 1056.45,382.85 1056.64,381.67C1056.82,380.51 1057.03,379.31 1056.93,378.14" fill="#f1d1a7"/>
    <path d="M1056.16,381.27C1056.00,382.29 1055.82,383.30 1055.59,384.31C1055.38,385.32 1055.12,386.31 1054.83,387.30C1054.57,388.21 1054.27,389.10 1053.81,389.92C1053.45,390.54 1053.00,391.09 1052.42,391.49C1052.26,391.61 1052.08,391.72 1051.88,391.81C1051.85,391.83 1051.81,391.84 1051.78,391.86C1050.99,392.21 1050.10,392.28 1049.32,391.90C1049.35,391.68 1049.35,391.45 1049.35,391.23L1049.35,379.20C1049.41,379.14 1049.44,379.08 1049.43,378.98C1049.43,378.94 1049.42,378.89 1049.41,378.85L1049.41,378.84C1050.02,377.63 1050.73,376.32 1051.88,375.59C1052.06,375.49 1052.23,375.39 1052.42,375.31C1052.55,375.25 1052.69,375.21 1052.84,375.16C1053.70,374.92 1054.63,375.06 1055.29,375.68C1055.94,376.28 1056.28,377.15 1056.38,378.02C1056.50,379.10 1056.32,380.20 1056.16,381.27M1049.29,377.95C1049.17,377.09 1049.01,376.23 1048.81,375.38C1048.64,374.61 1048.42,373.85 1048.17,373.10C1047.56,371.24 1046.63,369.48 1046.10,367.58C1045.09,363.91 1046.69,360.08 1045.56,356.42C1045.15,355.06 1044.37,353.77 1043.14,353.01C1043.14,353.00 1043.13,353.00 1043.13,353.00L1043.13,352.99C1043.09,352.97 1043.05,352.94 1042.99,352.92C1042.89,352.85 1042.78,352.80 1042.67,352.74C1042.52,352.68 1042.37,352.75 1042.30,352.87C1040.30,352.83 1038.33,353.31 1036.36,353.59C1034.16,353.91 1031.96,354.10 1029.76,354.17C1025.40,354.32 1021.02,354.03 1016.72,353.29C1014.29,352.87 1012.72,352.40 1011.52,352.70L1011.51,352.70C1010.71,352.89 1009.95,353.30 1009.29,353.81C1007.85,354.93 1006.83,356.59 1006.27,358.31C1005.97,359.21 1005.81,360.14 1005.77,361.09C1005.72,362.16 1005.91,363.23 1006.04,364.30C1006.18,365.43 1006.19,366.55 1005.98,367.68C1005.79,368.75 1005.49,369.82 1005.16,370.87C1004.61,372.68 1003.93,374.45 1003.11,376.17C1002.94,376.54 1002.77,376.92 1002.57,377.27C1002.51,377.41 1002.44,377.54 1002.38,377.67C1002.05,377.09 1001.65,376.54 1001.20,376.03C1000.85,375.64 1000.47,375.26 1000.04,374.96L1000.04,360.99C1000.04,348.49 1010.21,338.31 1022.71,338.31L1029.20,338.31C1041.71,338.31 1051.88,348.49 1051.88,360.99L1051.88,374.97C1050.78,375.57 1049.98,376.69 1049.35,377.85C1049.31,377.88 1049.30,377.92 1049.29,377.95M1048.81,378.89C1048.78,378.96 1048.79,379.02 1048.81,379.09L1048.81,391.23C1048.81,391.44 1048.81,391.66 1048.79,391.87C1048.71,391.97 1048.69,392.11 1048.78,392.22C1048.26,404.27 1038.29,413.90 1026.12,413.90L1025.79,413.90C1013.61,413.90 1003.64,404.26 1003.14,392.20C1003.16,392.20 1003.18,392.18 1003.20,392.17C1003.43,392.04 1003.33,391.74 1003.12,391.69C1003.11,391.54 1003.11,391.38 1003.11,391.23L1003.11,377.40C1003.95,375.73 1004.68,374.02 1005.28,372.26C1005.94,370.35 1006.59,368.31 1006.68,366.28C1006.77,364.21 1006.09,362.20 1006.39,360.12C1006.66,358.31 1007.43,356.57 1008.63,355.19C1009.82,353.81 1012.02,352.71 1013.85,353.24C1013.98,353.28 1014.00,353.29 1014.04,353.29C1016.74,353.87 1019.48,354.30 1022.23,354.53C1026.60,354.89 1031.01,354.81 1035.37,354.26C1036.59,354.11 1037.82,353.91 1039.05,353.70C1040.29,353.50 1041.54,353.35 1042.81,353.44C1045.42,354.99 1045.57,358.62 1045.38,361.32C1045.24,363.26 1045.02,365.22 1045.43,367.14C1045.84,369.01 1046.77,370.73 1047.41,372.53C1048.07,374.39 1048.54,376.30 1048.81,378.25L1048.81,378.89M1000.04,391.57C999.85,391.46 999.67,391.36 999.50,391.23C999.04,390.88 998.63,390.46 998.32,390.01C997.21,388.43 996.61,386.43 996.27,384.55C995.91,382.50 995.86,380.37 995.72,378.29C995.66,377.42 995.55,376.41 996.04,375.64C996.47,374.92 997.33,374.65 998.12,374.73C998.62,374.79 999.08,374.97 999.50,375.24C999.68,375.36 999.86,375.49 1000.04,375.64C1000.26,375.82 1000.48,376.03 1000.67,376.24C1001.42,377.06 1002.02,378.00 1002.48,379.02C1002.50,379.08 1002.53,379.11 1002.57,379.13L1002.57,391.23C1002.57,391.43 1002.57,391.65 1002.59,391.85C1001.72,392.15 1000.82,391.99 1000.04,391.57M1056.93,378.14C1056.77,376.30 1055.54,374.37 1053.46,374.51C1053.09,374.53 1052.74,374.60 1052.42,374.72L1052.42,360.99C1052.42,348.19 1042.00,337.78 1029.20,337.78L1022.71,337.78C1009.91,337.78 999.50,348.19 999.50,360.99L999.50,374.61C999.26,374.50 999.02,374.39 998.78,374.31C997.97,374.07 997.01,374.14 996.30,374.60C995.50,375.12 995.20,376.02 995.14,376.93C995.08,378.06 995.25,379.22 995.33,380.35C995.41,381.53 995.48,382.72 995.63,383.90C995.92,386.03 996.54,388.29 997.72,390.11C998.20,390.82 998.78,391.45 999.50,391.89C999.67,392.00 999.84,392.10 1000.04,392.17C1000.07,392.20 1000.11,392.22 1000.14,392.23C1000.94,392.55 1001.80,392.63 1002.61,392.40C1003.22,404.66 1013.39,414.44 1025.79,414.44L1026.12,414.44C1038.50,414.44 1048.65,404.71 1049.31,392.50C1050.15,392.82 1051.07,392.73 1051.88,392.39C1052.07,392.31 1052.25,392.23 1052.42,392.12C1052.87,391.86 1053.28,391.53 1053.60,391.14C1054.98,389.52 1055.46,387.23 1055.94,385.22C1056.22,384.04 1056.45,382.85 1056.64,381.67C1056.82,380.51 1057.03,379.31 1056.93,378.14" fill="#231f20"/>
    <path d="M1054.02,377.75C1053.40,378.44 1052.86,379.20 1052.42,380.02C1052.21,380.37 1052.04,380.73 1051.88,381.10C1051.61,381.74 1051.39,382.40 1051.23,383.08C1051.02,384.03 1050.86,385.07 1051.00,386.04C1051.07,386.53 1051.39,387.22 1051.88,387.45C1052.04,387.53 1052.22,387.56 1052.42,387.52C1052.46,387.51 1052.50,387.50 1052.55,387.49C1053.04,387.33 1053.07,386.73 1053.11,386.28C1053.15,385.63 1053.07,384.97 1052.90,384.34C1052.84,384.09 1052.52,384.10 1052.42,384.27C1052.37,384.33 1052.36,384.40 1052.39,384.49C1052.40,384.53 1052.41,384.58 1052.42,384.62C1052.56,385.16 1052.61,385.72 1052.57,386.28C1052.55,386.45 1052.57,386.80 1052.42,386.93C1052.39,386.97 1052.35,386.99 1052.30,386.99C1052.14,387.01 1051.99,386.90 1051.88,386.77C1051.84,386.73 1051.80,386.68 1051.77,386.64C1051.49,386.21 1051.48,385.67 1051.49,385.18C1051.51,384.67 1051.58,384.16 1051.66,383.66C1051.72,383.36 1051.79,383.06 1051.88,382.76C1052.02,382.23 1052.20,381.72 1052.42,381.22C1052.90,380.09 1053.58,379.05 1054.41,378.12C1054.63,377.88 1054.26,377.49 1054.02,377.75" fill="#231f20"/>
    <path d="M1000.03,381.83C999.92,381.50 999.79,381.17 999.67,380.84C999.61,380.72 999.56,380.60 999.49,380.47C999.07,379.52 998.55,378.62 997.93,377.77C997.74,377.50 997.27,377.77 997.47,378.05C998.33,379.23 999.02,380.53 999.49,381.91C999.70,382.49 999.86,383.08 999.98,383.68C1000.00,383.78 1000.01,383.88 1000.03,383.97C1000.12,384.45 1000.18,384.92 1000.17,385.40C1000.16,385.68 1000.15,386.06 1000.03,386.36C999.97,386.53 999.87,386.68 999.72,386.78C999.64,386.83 999.56,386.87 999.49,386.88C999.11,386.95 998.91,386.45 998.88,386.07C998.83,385.55 998.98,385.06 999.28,384.64C999.47,384.35 999.01,384.08 998.82,384.36C998.31,385.07 998.15,386.09 998.56,386.89C998.76,387.29 999.13,387.44 999.49,387.40C999.68,387.39 999.87,387.32 1000.03,387.20C1000.18,387.10 1000.31,386.96 1000.41,386.80C1000.90,385.95 1000.72,384.75 1000.56,383.83C1000.44,383.16 1000.26,382.48 1000.03,381.83" fill="#231f20"/>
    <path d="M1009.21,416.90C1004.05,420.49 1001.81,419.42 996.48,420.92C987.82,423.35 977.06,434.02 958.54,445.49C956.28,446.90 968.07,461.44 974.96,457.90C984.06,453.24 990.16,463.95 990.23,466.56C990.99,494.36 990.22,530.62 985.05,554.28C1012.06,563.17 1039.46,563.48 1067.27,554.66C1063.04,528.53 1065.89,488.49 1066.90,466.56L1067.00,455.33C1067.06,455.69 1072.40,452.85 1072.75,452.76C1077.58,451.54 1086.00,458.51 1086.53,453.97C1086.54,453.87 1093.82,449.37 1093.79,449.27C1093.26,447.62 1088.96,448.39 1086.27,439.99C1083.26,426.23 1056.92,420.62 1047.78,416.76C1046.26,416.17 1043.68,416.17 1043.62,415.12C1044.46,430.28 1014.27,430.06 1009.21,416.90" fill="#0d68b2" stroke="#231f20" stroke-width="0.54"/>
    <path d="M987.26,455.37C987.47,457.38 987.88,459.36 988.52,461.28C988.83,462.23 989.26,463.12 989.58,464.06C989.82,464.77 989.79,465.58 990.23,466.22C990.42,466.51 990.89,466.24 990.69,465.95C990.27,465.33 990.32,464.54 990.08,463.86C989.75,462.95 989.34,462.07 989.04,461.14C988.42,459.27 988.00,457.33 987.80,455.37C987.76,455.03 987.22,455.03 987.26,455.37" fill="#231f20"/>
    <path d="M1007.80,422.96C1009.82,426.55 1013.23,429.28 1017.13,430.57C1018.24,430.94 1019.39,431.18 1020.55,431.30C1020.90,431.34 1020.89,430.80 1020.55,430.76C1016.60,430.35 1012.86,428.38 1010.21,425.42C1009.46,424.58 1008.81,423.67 1008.26,422.69C1008.09,422.39 1007.63,422.66 1007.80,422.96" fill="#231f20"/>
    <path d="M1046.14,422.30C1043.89,425.91 1040.54,428.80 1036.66,430.54C1035.54,431.04 1034.38,431.43 1033.19,431.73C1032.85,431.82 1033.00,432.33 1033.33,432.25C1037.58,431.18 1041.48,428.81 1044.39,425.53C1045.21,424.61 1045.95,423.62 1046.60,422.57C1046.79,422.27 1046.32,422.00 1046.14,422.30" fill="#231f20"/>
    <path d="M1031.08,375.87C1030.08,375.87 1029.46,374.76 1029.99,373.91C1030.23,373.52 1030.61,373.17 1031.23,372.98C1033.01,372.43 1039.63,371.54 1041.96,372.77C1044.28,374.00 1045.50,377.56 1045.50,377.56C1045.50,377.56 1043.80,375.36 1040.98,374.87C1038.80,374.49 1033.66,375.87 1031.08,375.87" fill="#433935"/>
    <path d="M1020.02,375.52C1021.02,375.52 1021.64,374.41 1021.12,373.56C1020.88,373.18 1020.50,372.82 1019.88,372.63C1018.10,372.09 1011.47,371.19 1009.15,372.43C1006.82,373.66 1005.61,377.21 1005.61,377.21C1005.61,377.21 1007.31,375.01 1010.13,374.52C1012.31,374.14 1017.45,375.52 1020.02,375.52" fill="#433935"/>
    <path d="M1041.75,380.50C1041.59,380.96 1041.35,381.38 1041.03,381.76C1039.15,384.03 1034.76,384.80 1031.26,382.98C1031.03,382.86 1030.79,382.73 1030.57,382.58C1030.51,382.55 1030.46,382.51 1030.40,382.47C1030.49,382.21 1030.60,381.95 1030.72,381.72C1032.65,378.00 1038.42,377.53 1041.75,380.50" fill="#e9e6f3"/>
    <path d="M1038.69,380.77C1038.69,382.30 1037.45,383.55 1035.91,383.55C1034.38,383.55 1033.14,382.30 1033.14,380.77C1033.14,379.23 1034.38,377.99 1035.91,377.99C1037.45,377.99 1038.69,379.23 1038.69,380.77" fill="#432314"/>
    <path d="M1037.09,380.77C1037.09,381.42 1036.56,381.94 1035.92,381.94C1035.27,381.94 1034.74,381.42 1034.74,380.77C1034.74,380.12 1035.27,379.59 1035.92,379.59C1036.56,379.59 1037.09,380.12 1037.09,380.77" fill="#110118"/>
    <path d="M1036.75,381.47C1036.89,380.65 1037.51,380.71 1037.38,381.30C1037.25,381.90 1036.64,382.11 1036.75,381.47" fill="#ffffff"/>
    <path d="M1041.75,380.50C1041.59,380.96 1041.35,381.38 1041.03,381.76C1038.25,378.34 1032.65,379.43 1030.57,382.58C1030.51,382.55 1030.46,382.51 1030.40,382.47C1030.49,382.21 1030.60,381.95 1030.72,381.72C1032.65,378.00 1038.42,377.53 1041.75,380.50" fill="#110118"/>
    <path d="M1030.40,382.47C1031.99,377.78 1038.15,376.26 1042.23,380.34L1041.64,380.77C1036.58,376.17 1031.12,379.94 1030.57,382.58L1030.40,382.47" fill="#110118"/>
    <path d="M1008.85,380.50C1009.00,380.96 1009.25,381.38 1009.57,381.76C1011.44,384.03 1015.83,384.80 1019.33,382.98C1019.57,382.86 1019.80,382.73 1020.03,382.58C1020.08,382.55 1020.14,382.51 1020.19,382.47C1020.10,382.21 1019.99,381.95 1019.87,381.72C1017.94,378.00 1012.17,377.53 1008.85,380.50" fill="#e9e6f3"/>
    <path d="M1011.90,380.77C1011.90,382.30 1013.15,383.55 1014.68,383.55C1016.22,383.55 1017.46,382.30 1017.46,380.77C1017.46,379.23 1016.22,377.99 1014.68,377.99C1013.15,377.99 1011.90,379.23 1011.90,380.77" fill="#432314"/>
    <path d="M1013.51,380.77C1013.51,381.42 1014.03,381.94 1014.68,381.94C1015.33,381.94 1015.86,381.42 1015.86,380.77C1015.86,380.12 1015.33,379.59 1014.68,379.59C1014.03,379.59 1013.51,380.12 1013.51,380.77" fill="#110118"/>
    <path d="M1015.50,381.47C1015.64,380.65 1016.25,380.71 1016.13,381.30C1016.00,381.90 1015.39,382.11 1015.50,381.47" fill="#ffffff"/>
    <path d="M1008.85,380.50C1009.00,380.96 1009.25,381.38 1009.57,381.76C1012.34,378.34 1017.95,379.43 1020.03,382.58C1020.08,382.55 1020.14,382.51 1020.19,382.47C1020.10,382.21 1019.99,381.95 1019.87,381.72C1017.94,378.00 1012.17,377.53 1008.85,380.50" fill="#110118"/>
    <path d="M1020.20,382.47C1018.61,377.78 1012.45,376.26 1008.37,380.34L1008.95,380.77C1014.02,376.17 1019.48,379.94 1020.03,382.58L1020.20,382.47" fill="#110118"/>
    <path d="M1022.52,392.11C1022.15,392.85 1022.71,393.77 1023.56,393.48C1023.83,393.39 1023.98,393.38 1024.23,393.53C1024.39,393.64 1024.55,393.77 1024.71,393.88C1025.07,394.12 1025.49,394.24 1025.92,394.22C1026.35,394.19 1026.72,394.04 1027.07,393.79C1027.29,393.64 1027.48,393.53 1027.76,393.52C1027.98,393.52 1028.20,393.55 1028.42,393.55C1028.83,393.55 1029.21,393.44 1029.47,393.10C1029.70,392.80 1029.78,392.47 1029.53,392.17C1029.46,392.10 1029.34,392.12 1029.30,392.20C1029.17,392.45 1029.09,392.79 1028.82,392.92C1028.50,393.07 1028.10,392.95 1027.76,392.96C1027.43,392.96 1027.15,393.06 1026.87,393.25C1026.57,393.45 1026.30,393.64 1025.92,393.66C1025.20,393.71 1024.84,393.16 1024.23,392.92C1023.90,392.80 1023.68,392.90 1023.37,392.98C1022.86,393.10 1022.90,392.48 1022.83,392.15C1022.80,392.01 1022.58,391.98 1022.52,392.11" fill="#19171c"/>
    <path d="M1024.57,391.20C1024.50,391.24 1024.45,391.27 1024.40,391.34C1024.36,391.41 1024.33,391.48 1024.32,391.57C1024.29,391.73 1024.30,391.88 1024.32,392.04C1024.37,392.32 1024.54,392.58 1024.74,392.77C1024.94,392.95 1025.20,393.09 1025.46,393.13C1025.62,393.16 1025.77,393.16 1025.92,393.14C1026.07,393.12 1026.30,393.03 1026.33,392.86C1026.31,392.89 1026.29,392.92 1026.28,392.95C1026.32,392.91 1026.36,392.86 1026.39,392.81C1026.47,392.69 1026.34,392.51 1026.20,392.56C1026.16,392.58 1026.12,392.59 1026.07,392.60C1026.13,392.61 1026.18,392.62 1026.23,392.62C1026.10,392.56 1025.97,392.61 1025.83,392.64C1025.82,392.64 1025.80,392.65 1025.78,392.65C1025.81,392.65 1025.81,392.65 1025.79,392.65C1025.76,392.65 1025.73,392.65 1025.70,392.65C1025.68,392.65 1025.65,392.65 1025.63,392.65C1025.63,392.65 1025.55,392.64 1025.60,392.65C1025.55,392.64 1025.49,392.62 1025.44,392.61C1025.41,392.60 1025.39,392.59 1025.36,392.58C1025.40,392.60 1025.34,392.57 1025.33,392.57C1025.28,392.54 1025.23,392.52 1025.19,392.48C1025.18,392.48 1025.12,392.43 1025.15,392.46C1025.13,392.44 1025.11,392.43 1025.09,392.41C1025.06,392.38 1025.02,392.34 1024.99,392.31C1024.98,392.29 1024.97,392.28 1024.96,392.27C1024.97,392.28 1024.97,392.28 1024.96,392.27C1024.94,392.24 1024.93,392.22 1024.91,392.20C1024.85,392.09 1024.83,392.03 1024.79,391.91C1024.75,391.80 1024.74,391.72 1024.75,391.60C1024.75,391.54 1024.75,391.49 1024.75,391.43C1024.74,391.40 1024.74,391.37 1024.73,391.34C1024.72,391.31 1024.71,391.28 1024.70,391.25C1024.68,391.20 1024.62,391.18 1024.57,391.20" fill="#19171c"/>
    <path d="M1020.57,400.51C1020.67,400.46 1021.52,400.28 1022.34,400.20C1023.17,400.13 1024.66,400.07 1025.23,400.05C1025.79,400.02 1026.33,399.89 1027.24,399.92C1028.14,399.94 1029.09,399.89 1029.45,399.92C1029.81,399.94 1031.82,400.82 1031.82,400.82C1031.82,400.82 1032.13,401.03 1032.20,401.08C1032.28,401.13 1032.38,401.28 1032.23,401.46C1032.08,401.64 1031.61,401.88 1031.15,402.16C1030.69,402.44 1028.06,403.09 1027.83,403.21C1027.60,403.34 1025.54,403.50 1025.25,403.50C1024.97,403.50 1024.66,403.42 1024.02,403.34C1023.37,403.27 1021.93,402.83 1021.86,402.78C1021.78,402.73 1021.01,402.06 1020.85,401.93C1020.70,401.80 1019.90,401.18 1019.90,401.18L1019.90,400.67L1020.57,400.51" fill="#953a1f"/>
    <path d="M1032.58,401.23C1032.58,401.23 1029.25,400.66 1027.70,400.57C1027.13,400.54 1026.45,400.45 1025.51,400.53C1023.07,400.72 1019.46,400.90 1019.46,400.90C1019.58,400.81 1023.79,397.72 1025.59,398.93C1025.93,399.16 1026.32,399.17 1026.67,398.95C1027.43,398.47 1029.14,398.28 1032.62,401.23" fill="#e2a896" stroke="#c08b78" stroke-width="0.54"/>
    <path d="M1032.58,401.27C1025.49,410.57 1019.51,400.97 1019.51,400.97L1019.51,400.97C1020.66,401.37 1022.23,402.60 1024.11,402.82C1025.21,402.94 1026.40,403.00 1027.68,402.93C1029.21,402.85 1030.86,401.78 1032.58,401.27" fill="#e2a896" stroke="#c08b78" stroke-width="0.54"/>
    <path d="M985.45,431.43C985.45,431.43 985.45,431.43 985.46,431.43C985.45,431.43 985.45,431.43 985.45,431.43" fill="#f1d1a7"/>
    <path d="M987.82,418.89C987.87,418.74 987.92,418.59 987.98,418.44C987.55,418.49 987.12,418.55 986.69,418.58C987.01,418.60 987.33,418.66 987.63,418.78C987.70,418.81 987.76,418.85 987.82,418.89" fill="#f1d1a7"/>
    <path d="M985.77,420.73C986.06,420.45 986.36,420.20 986.69,419.98C986.81,419.89 986.98,419.96 987.05,420.08C987.09,420.13 987.10,420.22 987.08,420.28C987.06,420.35 987.02,420.40 986.96,420.44C986.88,420.50 986.79,420.56 986.71,420.62C986.52,420.77 986.33,420.94 986.15,421.11C986.05,421.21 985.88,421.21 985.77,421.11C985.67,421.01 985.67,420.83 985.77,420.73M981.71,433.79C981.71,433.79 981.72,433.80 981.73,433.80C981.74,433.80 981.76,433.80 981.76,433.80C981.77,433.80 981.79,433.80 981.80,433.80C981.82,433.80 981.83,433.80 981.85,433.80C981.85,433.80 981.87,433.80 981.88,433.80C981.89,433.79 981.90,433.79 981.90,433.79C981.92,433.79 981.93,433.79 981.95,433.78C981.98,433.78 982.01,433.76 982.04,433.75C982.07,433.75 982.07,433.74 982.04,433.76C982.06,433.75 982.07,433.74 982.09,433.74C982.12,433.72 982.15,433.70 982.17,433.68C982.19,433.68 982.20,433.67 982.21,433.66C982.21,433.66 982.21,433.66 982.21,433.66C982.23,433.63 982.26,433.61 982.28,433.59C982.39,433.48 982.56,433.49 982.66,433.59C982.77,433.69 982.76,433.87 982.66,433.97C982.41,434.24 982.03,434.38 981.66,434.33C981.30,434.28 980.98,434.07 980.79,433.76C980.71,433.64 980.77,433.47 980.89,433.40C981.02,433.32 981.18,433.37 981.26,433.49C981.27,433.51 981.28,433.52 981.29,433.54C981.30,433.55 981.33,433.58 981.29,433.54C981.31,433.56 981.33,433.59 981.35,433.61C981.36,433.62 981.37,433.63 981.38,433.64C981.38,433.64 981.39,433.65 981.40,433.66C981.41,433.66 981.42,433.67 981.42,433.67C981.43,433.68 981.44,433.69 981.46,433.69C981.48,433.71 981.51,433.73 981.54,433.74C981.55,433.75 981.57,433.75 981.58,433.76C981.56,433.75 981.55,433.75 981.58,433.76C981.61,433.77 981.64,433.78 981.67,433.79C981.68,433.79 981.70,433.79 981.71,433.79M982.35,425.43C982.80,424.87 983.58,424.63 984.27,424.79C984.42,424.83 984.49,424.99 984.46,425.12C984.42,425.27 984.26,425.34 984.13,425.31C984.09,425.30 984.05,425.30 984.01,425.29C983.98,425.28 983.98,425.29 984.01,425.29C983.99,425.29 983.97,425.28 983.95,425.28C983.88,425.28 983.80,425.28 983.73,425.28C983.71,425.28 983.70,425.28 983.68,425.28C983.67,425.28 983.66,425.29 983.65,425.29C983.62,425.29 983.59,425.30 983.56,425.30C983.49,425.32 983.43,425.34 983.36,425.36C983.34,425.36 983.32,425.37 983.30,425.38C983.30,425.38 983.25,425.40 983.28,425.39C983.31,425.37 983.25,425.40 983.24,425.40C983.23,425.41 983.22,425.42 983.20,425.43C983.14,425.46 983.07,425.50 983.01,425.54C983.00,425.55 982.98,425.56 982.96,425.57C982.93,425.60 982.99,425.55 982.96,425.57C982.93,425.60 982.91,425.62 982.88,425.65C982.83,425.70 982.78,425.75 982.73,425.81C982.64,425.92 982.45,425.90 982.35,425.81C982.24,425.70 982.26,425.54 982.35,425.43M978.76,426.49C979.15,426.28 979.57,426.12 979.99,426.01C980.13,425.97 980.27,426.06 980.32,426.20C980.36,426.33 980.27,426.49 980.13,426.53C979.93,426.58 979.74,426.64 979.55,426.72C979.53,426.73 979.50,426.73 979.48,426.74C979.47,426.75 979.38,426.78 979.44,426.76C979.40,426.78 979.35,426.80 979.31,426.82C979.21,426.86 979.12,426.91 979.03,426.95C978.90,427.02 978.75,426.98 978.67,426.86C978.59,426.74 978.64,426.55 978.76,426.49M989.27,430.76C988.40,430.37 988.17,429.33 988.40,428.48C988.69,427.45 989.57,426.71 990.19,425.89C991.58,424.07 992.50,421.93 992.90,419.67C992.90,419.66 992.91,419.66 992.92,419.65C992.96,418.84 992.87,418.04 992.77,417.23C992.75,417.03 992.75,416.82 992.60,416.66C992.49,416.56 992.35,416.48 992.21,416.42C991.89,416.28 991.54,416.24 991.19,416.26C989.65,416.36 988.72,417.79 988.30,419.14C988.29,419.17 988.26,419.18 988.25,419.21C988.48,419.44 988.66,419.73 988.78,420.07C989.25,421.34 989.28,422.82 989.14,424.15C988.98,425.55 988.60,426.91 988.10,428.23C987.61,429.52 987.02,430.80 986.40,432.04C985.93,432.99 985.32,433.94 984.26,434.29C984.13,434.34 983.99,434.25 983.95,434.13C983.83,434.34 983.69,434.56 983.54,434.76C982.60,436.04 981.03,436.81 979.43,436.79C978.60,436.79 977.88,436.58 977.51,435.78C977.15,434.98 977.22,434.06 977.63,433.30C977.69,433.19 977.79,433.17 977.88,433.18C978.18,432.87 978.56,432.64 978.97,432.50C978.97,432.37 978.98,432.24 978.99,432.10C978.75,432.25 978.47,432.32 978.13,432.29C976.83,432.17 975.32,431.55 974.52,430.48C974.18,430.02 974.01,429.44 974.20,428.88C974.38,428.35 974.81,427.96 975.37,427.94C975.00,427.58 974.71,427.14 974.55,426.65C974.51,426.51 974.60,426.36 974.74,426.32C974.88,426.28 975.02,426.37 975.07,426.51C975.36,427.41 976.18,428.10 977.13,428.25C977.27,428.28 977.35,428.46 977.32,428.58C977.27,428.73 977.13,428.80 976.98,428.77C976.48,428.69 976.01,428.46 975.62,428.15C975.64,428.30 975.57,428.47 975.37,428.48C974.78,428.50 974.55,429.23 974.71,429.72C974.91,430.30 975.45,430.71 975.96,431.01C976.46,431.31 977.01,431.53 977.58,431.66C977.89,431.73 978.26,431.82 978.57,431.73C978.84,431.66 979.03,431.41 979.18,431.19C979.88,430.23 980.45,429.14 980.83,428.02C981.03,427.42 981.17,426.79 981.04,426.16C980.93,425.62 980.67,425.11 980.32,424.68C979.56,423.73 978.46,423.16 977.41,422.60C977.10,422.44 977.37,421.98 977.68,422.14C979.11,422.90 980.64,423.75 981.33,425.30C981.94,426.70 981.44,428.13 980.83,429.43C980.51,430.13 980.13,430.79 979.68,431.42C979.62,431.50 979.56,431.58 979.49,431.65C979.54,431.72 979.58,431.80 979.56,431.89C979.40,432.55 979.56,433.26 979.98,433.81C980.07,433.92 980.00,434.11 979.89,434.17C979.75,434.25 979.61,434.19 979.52,434.08C979.28,433.77 979.13,433.41 979.04,433.04C979.04,433.04 979.03,433.04 979.03,433.04C979.01,433.05 979.00,433.05 978.98,433.06C978.86,433.12 978.74,433.18 978.63,433.25C978.60,433.27 978.57,433.29 978.54,433.31C978.53,433.32 978.52,433.33 978.51,433.33C978.50,433.34 978.50,433.34 978.49,433.34C978.44,433.38 978.39,433.43 978.34,433.47C978.24,433.56 978.16,433.66 978.07,433.77C978.06,433.79 978.03,433.78 978.02,433.79C977.87,434.14 977.78,434.52 977.82,434.90C977.87,435.34 978.05,435.91 978.48,436.11C979.16,436.43 980.18,436.26 980.86,436.04C982.36,435.56 983.34,434.40 983.89,432.97C984.51,431.35 984.89,429.62 985.31,427.94C985.52,427.09 985.80,426.20 985.87,425.33C985.94,424.47 985.50,423.87 984.89,423.32C983.61,422.18 982.16,421.20 980.66,420.36C980.36,420.19 980.63,419.73 980.93,419.90C981.93,420.46 982.90,421.09 983.82,421.78C984.59,422.36 985.47,422.95 986.02,423.76C986.55,424.55 986.44,425.43 986.24,426.31C986.07,427.09 985.88,427.85 985.68,428.62C985.71,428.60 985.72,428.58 985.75,428.57C985.82,428.55 985.89,428.57 985.95,428.60C985.97,428.61 986.05,428.63 985.97,428.61C985.99,428.61 986.01,428.62 986.02,428.63C986.07,428.64 986.10,428.66 986.15,428.67C986.22,428.70 986.30,428.72 986.38,428.73C986.42,428.74 986.46,428.75 986.51,428.76C986.51,428.76 986.51,428.76 986.52,428.76C986.53,428.76 986.55,428.76 986.56,428.76C986.65,428.77 986.73,428.78 986.82,428.78C986.97,428.77 987.08,428.90 987.09,429.04C987.10,429.19 986.96,429.31 986.82,429.31C986.43,429.32 986.04,429.23 985.68,429.06C985.64,429.04 985.62,429.00 985.60,428.96C985.57,429.08 985.54,429.21 985.51,429.34C985.36,429.89 985.21,430.43 985.06,430.97C985.07,430.97 985.08,430.96 985.09,430.95C985.24,430.89 985.41,430.88 985.57,430.90C985.73,430.93 985.87,431.01 986.00,431.11C986.07,431.16 986.12,431.23 986.16,431.30C986.17,431.28 986.19,431.26 986.20,431.24C987.28,428.95 988.36,426.57 988.61,424.02C988.73,422.80 988.69,421.49 988.30,420.31C988.12,419.76 987.78,419.36 987.21,419.21C986.72,419.07 986.20,419.10 985.69,419.12C985.40,419.14 985.37,418.79 985.56,418.65C984.47,418.70 983.38,418.74 982.29,418.84C980.92,418.97 979.59,419.26 978.28,419.70C976.97,420.13 975.70,420.67 974.43,421.21C973.30,421.70 972.19,422.26 971.47,423.31C970.76,424.37 970.32,425.62 969.77,426.77C969.18,428.04 968.55,429.29 967.90,430.52C967.28,431.71 966.66,432.93 965.91,434.05C965.20,435.10 964.30,435.94 963.21,436.61C959.33,438.98 954.56,439.46 950.79,442.06C946.80,444.81 945.37,449.80 944.95,454.40C944.84,455.71 944.85,457.09 945.35,458.33C945.72,459.24 946.38,460.02 947.17,460.60C948.73,461.73 950.81,462.11 952.63,461.40C952.89,461.30 953.02,461.59 952.91,461.79C954.53,462.46 956.26,462.88 958.01,463.02C961.31,463.28 964.59,462.57 967.51,461.01C968.28,460.60 969.03,460.16 969.82,459.79C970.55,459.46 971.30,459.21 972.07,458.99C973.50,458.59 974.99,458.24 976.22,457.36C976.44,456.70 976.61,456.04 976.74,455.39C976.95,454.35 977.04,453.30 976.98,452.24C976.94,451.52 976.96,450.84 977.04,450.12C977.21,448.40 977.45,446.62 977.03,444.92C976.61,445.00 976.19,445.06 975.77,445.10C975.76,445.11 975.75,445.09 975.73,445.09C975.16,445.89 974.18,446.30 973.28,446.69C972.84,446.87 972.39,447.02 971.94,447.15C971.93,447.24 971.89,447.33 971.78,447.38C970.80,447.78 969.88,448.35 969.12,449.08C968.46,449.71 967.92,450.45 967.54,451.27C967.09,452.23 966.97,453.25 966.79,454.29C966.47,456.26 965.41,457.98 963.72,459.06C963.43,459.25 963.16,458.78 963.45,458.60C964.42,457.97 965.20,457.09 965.71,456.05C966.21,455.01 966.28,453.88 966.50,452.76C966.67,451.87 967.01,451.01 967.49,450.24C968.24,449.03 969.31,448.08 970.54,447.39C970.24,447.41 969.93,447.40 969.63,447.37C969.29,447.32 969.28,446.79 969.63,446.83C970.84,446.97 972.01,446.65 973.12,446.17C974.14,445.73 975.26,445.28 975.62,444.13C975.95,443.08 975.89,441.89 975.95,440.80C976.01,439.53 976.07,438.26 976.13,437.00C976.15,436.65 976.69,436.65 976.67,437.00C976.60,438.39 976.53,439.79 976.46,441.19C976.41,442.29 976.45,443.49 976.04,444.53C977.48,444.36 978.91,443.98 980.27,443.45C981.56,442.94 982.80,442.27 983.93,441.46C985.11,440.61 986.09,439.57 987.00,438.44C988.06,437.12 989.08,435.76 990.11,434.41C990.59,433.79 991.06,433.21 991.14,432.40C991.20,431.83 991.17,431.24 991.27,430.68C990.62,430.92 989.90,431.04 989.27,430.76" fill="#f1d1a7"/>
    <path d="M966.87,461.94C966.48,462.12 966.08,462.29 965.68,462.45C965.78,462.54 965.88,462.63 965.98,462.71C967.16,463.48 968.62,463.77 970.02,463.67C970.22,463.64 970.42,463.60 970.62,463.55C973.26,462.89 974.94,460.66 975.92,458.20C974.61,458.93 973.10,459.23 971.68,459.66C969.96,460.19 968.48,461.17 966.87,461.94" fill="#0d68b2"/>
    <path d="M985.46,431.43L985.46,431.43C985.46,431.43 985.47,431.43 985.47,431.43C985.47,431.43 985.47,431.43 985.46,431.43" fill="#f1d1a7"/>
    <path d="M1002.54,417.95C1001.26,417.91 999.97,417.84 998.69,417.93C997.72,417.99 996.69,418.12 995.87,418.67C996.10,418.78 996.32,418.91 996.52,419.07C997.50,419.87 997.70,421.04 997.46,422.23C997.01,424.44 996.03,426.70 994.53,428.39C993.84,429.17 993.01,429.85 992.07,430.33C992.02,430.36 991.96,430.38 991.90,430.41C991.62,431.25 991.80,432.14 991.58,432.99C991.36,433.86 990.66,434.57 990.13,435.27C988.21,437.76 986.42,440.44 983.77,442.22C981.90,443.48 979.76,444.36 977.55,444.82C978.05,446.82 977.65,448.86 977.51,450.88C977.44,451.77 977.57,452.65 977.52,453.55C977.46,454.63 977.26,455.70 976.97,456.75C976.91,456.96 976.83,457.16 976.77,457.37C976.81,457.48 976.80,457.62 976.68,457.71C976.67,457.72 976.66,457.73 976.65,457.73C976.13,459.24 975.42,460.68 974.33,461.86C974.09,462.12 973.84,462.35 973.58,462.57C974.37,462.18 975.15,461.75 975.96,461.40C977.75,460.61 979.70,460.03 981.68,460.08C983.52,460.13 985.24,460.78 986.71,461.87C987.99,462.82 989.05,464.01 990.02,465.27L1008.52,417.20C1006.65,417.98 1004.56,418.02 1002.54,417.95" fill="#0d68b2"/>
    <path d="M985.92,431.81C985.91,431.80 985.89,431.81 985.87,431.80C985.81,431.76 985.78,431.71 985.75,431.64C985.78,431.72 985.74,431.64 985.73,431.62C985.73,431.60 985.72,431.59 985.71,431.58C985.71,431.58 985.71,431.58 985.71,431.57C985.70,431.57 985.70,431.57 985.70,431.57C985.69,431.56 985.69,431.55 985.68,431.54C985.66,431.53 985.65,431.51 985.63,431.50C985.62,431.49 985.61,431.49 985.60,431.48C985.58,431.47 985.56,431.46 985.55,431.45C985.54,431.45 985.53,431.45 985.52,431.44C985.50,431.44 985.49,431.44 985.47,431.43C985.48,431.44 985.48,431.43 985.46,431.43C985.44,431.43 985.43,431.43 985.42,431.43C985.41,431.43 985.40,431.43 985.39,431.43C985.38,431.43 985.37,431.43 985.37,431.43C985.35,431.43 985.34,431.44 985.33,431.44C985.31,431.44 985.29,431.45 985.27,431.46C985.26,431.46 985.25,431.47 985.24,431.47C985.22,431.48 985.20,431.50 985.18,431.51C985.17,431.52 985.16,431.53 985.15,431.53C985.15,431.54 985.14,431.55 985.13,431.56C985.10,431.59 985.12,431.57 985.14,431.55C985.09,431.61 985.05,431.65 984.98,431.67C984.94,431.68 984.90,431.66 984.87,431.66C984.81,431.85 984.76,432.05 984.70,432.25C984.59,432.61 984.47,432.96 984.33,433.31C984.41,433.35 984.47,433.41 984.47,433.53C984.47,433.56 984.47,433.59 984.47,433.62C985.15,433.24 985.58,432.52 985.92,431.81" fill="#f1d1a7"/>
    <path d="M993.45,418.91C993.46,419.22 993.47,419.53 993.45,419.84C993.44,419.89 993.41,419.92 993.39,419.96C992.99,422.07 992.15,424.09 990.89,425.84C990.34,426.61 989.59,427.28 989.13,428.12C988.73,428.85 988.68,430.06 989.66,430.33C990.27,430.50 990.96,430.28 991.57,429.99C991.50,429.97 991.45,429.93 991.42,429.87C991.40,429.88 991.37,429.90 991.35,429.91C991.20,429.96 991.07,429.85 991.02,429.72C990.99,429.66 991.03,429.75 991.00,429.69C990.99,429.67 990.98,429.65 990.97,429.63C990.95,429.59 990.93,429.55 990.91,429.51C990.87,429.43 990.83,429.35 990.78,429.28C990.75,429.24 990.73,429.20 990.70,429.16C990.68,429.14 990.67,429.13 990.66,429.11C990.64,429.09 990.68,429.13 990.65,429.10C990.59,429.03 990.53,428.96 990.47,428.89C990.41,428.83 990.34,428.76 990.28,428.70C990.24,428.67 990.21,428.64 990.17,428.61C990.16,428.60 990.14,428.59 990.12,428.58C990.17,428.61 990.10,428.56 990.10,428.56C989.95,428.45 989.80,428.36 989.63,428.28C989.53,428.23 989.51,428.10 989.53,427.99C989.47,427.92 989.44,427.83 989.50,427.72C989.81,427.21 990.27,426.76 990.83,426.52C991.30,426.31 991.83,426.32 992.23,426.67C992.57,426.96 992.73,427.42 992.78,427.85C992.86,428.40 992.74,429.05 992.40,429.51C993.15,429.03 993.82,428.42 994.39,427.73C995.67,426.16 996.51,424.12 996.93,422.15C997.14,421.13 997.00,420.13 996.14,419.45C995.37,418.84 994.39,418.71 993.45,418.91" fill="#f1d1a7"/>
    <path d="M991.79,427.00C991.58,426.88 991.35,426.90 991.13,426.97C990.68,427.13 990.30,427.50 990.04,427.89C990.70,428.26 991.21,428.84 991.51,429.53C991.53,429.52 991.54,429.50 991.57,429.49C991.96,429.37 992.15,428.97 992.23,428.59C992.31,428.21 992.28,427.77 992.12,427.41C992.04,427.25 991.94,427.10 991.79,427.00" fill="#f1d1a7"/>
    <path d="M981.58,433.76C981.57,433.75 981.55,433.75 981.54,433.74C981.51,433.73 981.48,433.71 981.46,433.69C981.44,433.69 981.43,433.68 981.42,433.67C981.42,433.67 981.41,433.66 981.40,433.66C981.39,433.65 981.38,433.64 981.38,433.64C981.37,433.63 981.36,433.62 981.35,433.61C981.33,433.59 981.31,433.57 981.29,433.54C981.33,433.59 981.30,433.55 981.29,433.54C981.28,433.52 981.27,433.51 981.26,433.49C981.18,433.37 981.01,433.32 980.89,433.40C980.77,433.47 980.71,433.64 980.79,433.76C980.98,434.07 981.30,434.28 981.66,434.33C982.03,434.38 982.41,434.24 982.67,433.97C982.76,433.87 982.77,433.69 982.67,433.59C982.56,433.49 982.39,433.48 982.29,433.59C982.26,433.61 982.24,433.63 982.21,433.66C982.21,433.66 982.21,433.66 982.21,433.66C982.20,433.67 982.19,433.68 982.18,433.69C982.15,433.70 982.12,433.72 982.09,433.74C982.07,433.74 982.06,433.75 982.05,433.76C982.07,433.75 982.07,433.75 982.05,433.75C982.01,433.76 981.98,433.78 981.95,433.78C981.93,433.79 981.92,433.79 981.90,433.79C981.90,433.79 981.89,433.80 981.88,433.80C981.87,433.80 981.85,433.80 981.85,433.80C981.84,433.80 981.82,433.80 981.81,433.80C981.79,433.80 981.77,433.80 981.76,433.80C981.76,433.80 981.74,433.80 981.73,433.80C981.72,433.80 981.71,433.79 981.71,433.79C981.70,433.79 981.68,433.79 981.67,433.79C981.64,433.78 981.61,433.77 981.58,433.76C981.55,433.75 981.56,433.75 981.58,433.76" fill="#231f20"/>
    <path d="M982.73,425.81C982.78,425.75 982.83,425.70 982.88,425.65C982.91,425.62 982.93,425.60 982.96,425.58C982.99,425.55 982.93,425.60 982.96,425.57C982.98,425.56 983.00,425.55 983.01,425.54C983.07,425.50 983.14,425.46 983.20,425.43C983.22,425.42 983.23,425.41 983.25,425.40C983.25,425.40 983.31,425.38 983.28,425.39C983.25,425.40 983.30,425.38 983.30,425.38C983.32,425.37 983.34,425.36 983.36,425.36C983.43,425.34 983.49,425.32 983.56,425.30C983.59,425.30 983.62,425.29 983.65,425.29C983.66,425.29 983.68,425.28 983.68,425.28C983.70,425.28 983.71,425.28 983.73,425.28C983.80,425.28 983.87,425.28 983.95,425.28C983.97,425.28 983.99,425.29 984.01,425.29C983.98,425.29 983.98,425.28 984.01,425.29C984.05,425.30 984.09,425.30 984.13,425.31C984.26,425.35 984.43,425.27 984.46,425.12C984.49,424.99 984.42,424.83 984.27,424.79C983.58,424.63 982.80,424.87 982.35,425.43C982.26,425.54 982.24,425.70 982.35,425.81C982.45,425.90 982.64,425.92 982.73,425.81" fill="#231f20"/>
    <path d="M979.04,426.95C979.12,426.91 979.22,426.86 979.31,426.82C979.35,426.80 979.40,426.78 979.44,426.76C979.38,426.78 979.47,426.75 979.48,426.74C979.50,426.74 979.53,426.73 979.55,426.72C979.74,426.64 979.93,426.58 980.13,426.53C980.27,426.49 980.36,426.33 980.32,426.19C980.27,426.06 980.13,425.97 979.99,426.01C979.56,426.12 979.15,426.28 978.76,426.49C978.64,426.55 978.59,426.74 978.67,426.86C978.75,426.98 978.90,427.02 979.04,426.95" fill="#231f20"/>
    <path d="M986.15,421.11C986.33,420.94 986.52,420.77 986.71,420.62C986.79,420.56 986.87,420.50 986.96,420.44C987.02,420.40 987.06,420.35 987.08,420.28C987.10,420.22 987.09,420.13 987.05,420.08C986.98,419.96 986.81,419.89 986.69,419.98C986.36,420.20 986.06,420.45 985.77,420.73C985.67,420.83 985.67,421.01 985.77,421.11C985.88,421.21 986.05,421.21 986.15,421.11" fill="#231f20"/>
    <path d="M985.46,431.43L985.46,431.43C985.48,431.43 985.48,431.43 985.47,431.43C985.47,431.43 985.46,431.43 985.46,431.43" fill="#231f20"/>
    <path d="M989.88,465.96C990.09,466.23 990.55,465.96 990.35,465.69C990.24,465.55 990.13,465.41 990.02,465.27L989.80,465.85C989.82,465.89 989.85,465.92 989.88,465.96" fill="#231f20"/>
    <path d="M1008.97,416.40C1008.92,416.43 1008.86,416.45 1008.80,416.48L1008.52,417.20C1008.77,417.10 1009.01,416.99 1009.24,416.87C1009.55,416.70 1009.28,416.24 1008.97,416.40" fill="#231f20"/>
    <path d="M996.14,419.45C997.00,420.13 997.14,421.13 996.93,422.15C996.51,424.12 995.67,426.16 994.39,427.73C993.82,428.42 993.15,429.03 992.40,429.51C992.74,429.05 992.86,428.40 992.78,427.85C992.73,427.42 992.57,426.96 992.23,426.67C991.83,426.32 991.30,426.31 990.83,426.52C990.27,426.76 989.81,427.21 989.50,427.72C989.44,427.83 989.47,427.92 989.53,427.99C989.51,428.10 989.53,428.23 989.63,428.28C989.80,428.36 989.95,428.45 990.10,428.56C990.10,428.56 990.17,428.61 990.12,428.57C990.14,428.59 990.16,428.60 990.17,428.61C990.21,428.64 990.24,428.67 990.28,428.70C990.34,428.76 990.41,428.83 990.47,428.89C990.53,428.96 990.59,429.03 990.65,429.10C990.68,429.13 990.64,429.09 990.66,429.11C990.67,429.13 990.68,429.14 990.70,429.16C990.73,429.20 990.75,429.24 990.78,429.28C990.83,429.35 990.87,429.43 990.91,429.51C990.93,429.55 990.95,429.59 990.97,429.63C990.98,429.65 990.99,429.67 991.00,429.69C991.03,429.75 990.99,429.66 991.01,429.72C991.07,429.85 991.20,429.96 991.35,429.91C991.37,429.90 991.40,429.88 991.42,429.87C991.45,429.93 991.50,429.97 991.57,429.99C990.96,430.28 990.27,430.50 989.66,430.33C988.68,430.06 988.73,428.85 989.13,428.12C989.59,427.28 990.34,426.61 990.89,425.84C992.15,424.09 992.99,422.07 993.39,419.96C993.41,419.92 993.44,419.89 993.45,419.84C993.47,419.53 993.46,419.22 993.45,418.91C994.38,418.71 995.37,418.84 996.14,419.45M992.23,428.59C992.14,428.97 991.96,429.37 991.57,429.49C991.54,429.50 991.53,429.52 991.51,429.53C991.21,428.84 990.70,428.26 990.04,427.89C990.30,427.50 990.68,427.13 991.13,426.97C991.35,426.90 991.58,426.88 991.79,427.00C991.94,427.10 992.04,427.25 992.12,427.41C992.28,427.77 992.31,428.21 992.23,428.59M984.33,433.31C984.47,432.96 984.59,432.61 984.70,432.25C984.76,432.05 984.81,431.85 984.87,431.66C984.90,431.66 984.94,431.68 984.98,431.67C985.05,431.65 985.09,431.61 985.14,431.55C985.12,431.57 985.10,431.59 985.13,431.56C985.14,431.55 985.14,431.54 985.15,431.53C985.16,431.53 985.17,431.52 985.18,431.51C985.20,431.50 985.22,431.48 985.24,431.47C985.25,431.47 985.26,431.46 985.27,431.46C985.29,431.45 985.31,431.44 985.33,431.44C985.34,431.44 985.35,431.43 985.37,431.43C985.37,431.43 985.38,431.43 985.38,431.43L985.42,431.43C985.43,431.43 985.44,431.43 985.46,431.43C985.45,431.43 985.45,431.43 985.45,431.43C985.45,431.43 985.45,431.43 985.46,431.43L985.46,431.43C985.47,431.43 985.47,431.43 985.47,431.43C985.49,431.44 985.50,431.44 985.52,431.44C985.53,431.44 985.54,431.45 985.54,431.45C985.56,431.46 985.58,431.47 985.60,431.48C985.61,431.49 985.62,431.49 985.63,431.50C985.65,431.51 985.66,431.53 985.68,431.54C985.68,431.55 985.69,431.56 985.70,431.57C985.70,431.57 985.70,431.57 985.70,431.57C985.71,431.58 985.71,431.58 985.71,431.58C985.72,431.59 985.73,431.60 985.73,431.62C985.74,431.64 985.78,431.72 985.75,431.64C985.77,431.71 985.81,431.76 985.87,431.80C985.89,431.81 985.91,431.80 985.92,431.81C985.57,432.52 985.15,433.24 984.47,433.62C984.47,433.59 984.47,433.56 984.47,433.53C984.47,433.41 984.41,433.35 984.33,433.31M991.14,432.40C991.05,433.21 990.59,433.79 990.11,434.41C989.07,435.76 988.06,437.12 987.00,438.44C986.09,439.57 985.11,440.61 983.94,441.46C982.80,442.27 981.56,442.94 980.26,443.45C978.91,443.98 977.48,444.36 976.04,444.53C976.45,443.49 976.41,442.29 976.46,441.19C976.53,439.79 976.60,438.39 976.67,437.00C976.69,436.65 976.15,436.65 976.13,437.00C976.07,438.26 976.01,439.53 975.95,440.80C975.89,441.89 975.95,443.08 975.62,444.13C975.26,445.28 974.15,445.73 973.12,446.17C972.01,446.65 970.84,446.97 969.63,446.83C969.28,446.79 969.29,447.33 969.63,447.37C969.93,447.40 970.24,447.41 970.54,447.39C969.31,448.08 968.24,449.03 967.49,450.24C967.01,451.01 966.67,451.87 966.50,452.76C966.28,453.88 966.21,455.01 965.71,456.05C965.20,457.09 964.42,457.97 963.45,458.60C963.16,458.78 963.43,459.25 963.72,459.06C965.41,457.98 966.47,456.26 966.79,454.29C966.96,453.26 967.09,452.23 967.54,451.27C967.92,450.45 968.46,449.71 969.12,449.08C969.88,448.35 970.80,447.78 971.78,447.38C971.89,447.33 971.92,447.24 971.94,447.15C972.39,447.02 972.84,446.87 973.28,446.69C974.18,446.30 975.16,445.89 975.73,445.09C975.75,445.09 975.75,445.11 975.77,445.10C976.19,445.06 976.61,445.00 977.03,444.92C977.45,446.62 977.21,448.40 977.04,450.12C976.96,450.84 976.94,451.53 976.98,452.24C977.04,453.30 976.95,454.35 976.74,455.39C976.61,456.04 976.44,456.70 976.22,457.36C974.99,458.24 973.50,458.59 972.06,458.99C971.30,459.21 970.55,459.46 969.82,459.79C969.03,460.16 968.28,460.60 967.51,461.01C964.59,462.57 961.31,463.28 958.00,463.02C956.25,462.89 954.53,462.46 952.91,461.79C953.02,461.59 952.89,461.30 952.63,461.40C950.81,462.11 948.73,461.73 947.17,460.60C946.38,460.02 945.72,459.24 945.35,458.33C944.85,457.09 944.84,455.71 944.95,454.40C945.37,449.80 946.80,444.81 950.79,442.06C954.56,439.46 959.33,438.98 963.21,436.61C964.30,435.94 965.19,435.10 965.91,434.05C966.66,432.93 967.28,431.71 967.90,430.52C968.55,429.29 969.18,428.04 969.77,426.77C970.32,425.62 970.75,424.37 971.47,423.31C972.19,422.26 973.30,421.70 974.43,421.21C975.70,420.67 976.97,420.13 978.28,419.70C979.59,419.26 980.92,418.97 982.29,418.84C983.38,418.74 984.47,418.71 985.56,418.65C985.37,418.79 985.40,419.14 985.69,419.12C986.20,419.10 986.72,419.07 987.21,419.21C987.78,419.36 988.12,419.76 988.30,420.31C988.69,421.49 988.74,422.80 988.61,424.02C988.36,426.58 987.28,428.95 986.19,431.24C986.18,431.26 986.18,431.28 986.17,431.30C986.12,431.23 986.07,431.16 986.00,431.11C985.87,431.01 985.73,430.93 985.57,430.91C985.41,430.88 985.24,430.89 985.09,430.95C985.08,430.96 985.07,430.97 985.06,430.97C985.21,430.43 985.36,429.89 985.51,429.34C985.54,429.21 985.57,429.08 985.60,428.96C985.62,429.00 985.64,429.04 985.68,429.06C986.04,429.23 986.42,429.32 986.82,429.31C986.96,429.31 987.10,429.19 987.09,429.04C987.08,428.90 986.97,428.77 986.82,428.78C986.74,428.78 986.65,428.77 986.56,428.77C986.55,428.76 986.53,428.76 986.52,428.76C986.51,428.76 986.51,428.76 986.51,428.76C986.46,428.75 986.42,428.74 986.38,428.73C986.30,428.72 986.22,428.70 986.15,428.67C986.11,428.66 986.06,428.64 986.02,428.63C986.01,428.62 985.99,428.61 985.97,428.61C986.04,428.63 985.97,428.61 985.95,428.60C985.88,428.57 985.82,428.55 985.74,428.57C985.72,428.58 985.71,428.61 985.68,428.62C985.88,427.85 986.07,427.09 986.24,426.31C986.44,425.43 986.55,424.55 986.01,423.76C985.47,422.95 984.59,422.36 983.82,421.78C982.90,421.09 981.93,420.46 980.93,419.90C980.63,419.73 980.36,420.19 980.66,420.36C982.15,421.21 983.61,422.18 984.89,423.32C985.50,423.87 985.94,424.47 985.87,425.33C985.80,426.20 985.51,427.09 985.31,427.94C984.89,429.62 984.51,431.35 983.89,432.97C983.34,434.40 982.36,435.56 980.86,436.04C980.18,436.26 979.17,436.43 978.48,436.11C978.05,435.91 977.87,435.34 977.82,434.90C977.78,434.52 977.86,434.14 978.01,433.79C978.03,433.78 978.06,433.79 978.07,433.77C978.15,433.66 978.25,433.56 978.34,433.47C978.39,433.43 978.44,433.39 978.49,433.34C978.50,433.34 978.50,433.34 978.51,433.34C978.52,433.33 978.53,433.32 978.54,433.31C978.57,433.29 978.60,433.27 978.63,433.25C978.74,433.18 978.86,433.12 978.98,433.06C979.00,433.05 979.01,433.05 979.03,433.04C979.03,433.04 979.04,433.04 979.04,433.04C979.13,433.41 979.28,433.77 979.52,434.08C979.61,434.19 979.75,434.25 979.89,434.17C980.00,434.11 980.07,433.92 979.98,433.81C979.56,433.26 979.40,432.55 979.55,431.89C979.58,431.80 979.54,431.72 979.49,431.65C979.55,431.58 979.62,431.50 979.68,431.42C980.13,430.79 980.51,430.13 980.83,429.43C981.44,428.13 981.94,426.70 981.33,425.30C980.64,423.75 979.11,422.90 977.68,422.14C977.37,421.98 977.10,422.44 977.41,422.60C978.46,423.16 979.56,423.73 980.32,424.68C980.67,425.11 980.93,425.62 981.04,426.16C981.17,426.79 981.03,427.42 980.83,428.02C980.45,429.14 979.88,430.23 979.18,431.19C979.03,431.41 978.84,431.66 978.57,431.73C978.26,431.82 977.89,431.73 977.58,431.66C977.01,431.53 976.46,431.31 975.96,431.01C975.45,430.71 974.91,430.30 974.71,429.72C974.55,429.23 974.78,428.50 975.37,428.48C975.57,428.47 975.64,428.30 975.62,428.15C976.01,428.47 976.48,428.69 976.98,428.77C977.13,428.80 977.27,428.73 977.31,428.58C977.35,428.46 977.27,428.28 977.13,428.25C976.18,428.10 975.36,427.41 975.07,426.51C975.02,426.37 974.88,426.28 974.74,426.32C974.60,426.36 974.51,426.51 974.55,426.65C974.71,427.14 975.00,427.58 975.37,427.94C974.81,427.97 974.38,428.36 974.20,428.88C974.00,429.44 974.18,430.02 974.52,430.48C975.32,431.55 976.83,432.17 978.13,432.29C978.47,432.32 978.75,432.25 978.99,432.10C978.98,432.24 978.97,432.37 978.97,432.50C978.56,432.64 978.18,432.87 977.88,433.18C977.79,433.17 977.69,433.19 977.63,433.30C977.22,434.06 977.15,434.98 977.51,435.78C977.87,436.59 978.60,436.79 979.43,436.80C981.03,436.81 982.60,436.04 983.54,434.76C983.69,434.56 983.82,434.34 983.95,434.13C983.99,434.25 984.13,434.34 984.26,434.30C985.32,433.94 985.93,432.99 986.40,432.04C987.02,430.80 987.61,429.52 988.10,428.23C988.60,426.91 988.98,425.55 989.14,424.15C989.28,422.82 989.25,421.34 988.78,420.07C988.66,419.73 988.48,419.44 988.25,419.21C988.26,419.18 988.29,419.17 988.30,419.14C988.72,417.79 989.64,416.36 991.19,416.26C991.54,416.24 991.89,416.28 992.21,416.42C992.35,416.48 992.49,416.56 992.60,416.67C992.75,416.82 992.75,417.03 992.77,417.23C992.87,418.04 992.96,418.84 992.92,419.65C992.91,419.66 992.90,419.66 992.90,419.67C992.50,421.93 991.58,424.07 990.19,425.89C989.57,426.71 988.69,427.45 988.40,428.48C988.17,429.33 988.40,430.37 989.27,430.76C989.91,431.04 990.62,430.92 991.27,430.68C991.17,431.24 991.20,431.83 991.14,432.40M970.62,463.55C970.42,463.60 970.22,463.64 970.02,463.67C968.62,463.77 967.16,463.48 965.98,462.72C965.88,462.63 965.78,462.54 965.68,462.45C966.08,462.29 966.48,462.12 966.87,461.94C968.48,461.17 969.96,460.19 971.68,459.66C973.10,459.23 974.61,458.93 975.92,458.20C974.94,460.66 973.26,462.89 970.62,463.55M987.98,418.44C987.92,418.59 987.87,418.74 987.82,418.89C987.76,418.85 987.70,418.81 987.63,418.78C987.33,418.66 987.01,418.60 986.69,418.58C987.12,418.55 987.55,418.49 987.98,418.44M1001.89,417.39C1000.58,417.35 999.27,417.30 997.97,417.45C996.97,417.57 996.03,417.78 995.25,418.44C994.66,418.28 994.04,418.26 993.43,418.37C993.40,418.06 993.37,417.74 993.34,417.43C993.30,417.09 993.30,416.71 993.10,416.42C992.92,416.17 992.63,416.01 992.35,415.90C991.10,415.39 989.67,415.97 988.84,416.96C988.60,417.25 988.41,417.55 988.24,417.88C985.40,418.30 982.50,418.05 979.70,418.73C978.34,419.06 977.03,419.55 975.74,420.08C974.58,420.56 973.33,420.99 972.30,421.72C971.25,422.47 970.66,423.53 970.15,424.67C969.55,425.99 968.94,427.30 968.29,428.59C967.65,429.88 966.98,431.15 966.27,432.40C965.61,433.57 964.90,434.69 963.83,435.53C961.91,437.04 959.43,437.81 957.15,438.61C954.99,439.37 952.79,440.12 950.86,441.37C948.86,442.66 947.35,444.47 946.34,446.62C945.34,448.78 944.83,451.13 944.52,453.48C944.21,455.89 944.25,458.48 946.05,460.33C947.40,461.72 949.42,462.49 951.35,462.27C951.67,462.23 951.97,462.16 952.28,462.07C952.30,462.09 952.30,462.12 952.33,462.13C955.39,463.48 958.79,463.91 962.10,463.40C963.10,463.25 964.09,463.00 965.05,462.67C965.17,462.77 965.30,462.85 965.43,462.95C966.61,463.97 968.22,464.39 969.77,464.24C969.86,464.23 969.95,464.21 970.04,464.20C971.62,464.07 973.04,463.45 974.45,462.73C976.21,461.83 978.02,461.02 980.00,460.72C981.93,460.43 983.87,460.74 985.56,461.75C987.26,462.76 988.61,464.28 989.80,465.85L990.02,465.27C989.05,464.02 987.99,462.82 986.71,461.87C985.24,460.78 983.52,460.12 981.68,460.08C979.70,460.03 977.75,460.61 975.95,461.40C975.15,461.75 974.37,462.18 973.57,462.57C973.84,462.35 974.09,462.12 974.32,461.86C975.42,460.68 976.13,459.24 976.65,457.73C976.66,457.73 976.67,457.72 976.68,457.71C976.80,457.62 976.81,457.49 976.77,457.37C976.83,457.16 976.91,456.96 976.97,456.75C977.26,455.70 977.46,454.63 977.52,453.55C977.57,452.65 977.44,451.77 977.51,450.88C977.65,448.86 978.05,446.82 977.55,444.82C979.76,444.36 981.90,443.48 983.77,442.22C986.42,440.44 988.21,437.76 990.13,435.27C990.66,434.57 991.35,433.86 991.58,432.99C991.80,432.14 991.62,431.25 991.90,430.41C991.96,430.38 992.02,430.36 992.07,430.33C993.01,429.85 993.84,429.17 994.53,428.39C996.03,426.70 997.01,424.44 997.46,422.23C997.70,421.04 997.50,419.87 996.52,419.07C996.32,418.91 996.10,418.78 995.87,418.67C996.69,418.12 997.72,417.99 998.69,417.93C999.97,417.84 1001.26,417.91 1002.54,417.95C1004.56,418.02 1006.64,417.98 1008.52,417.20L1008.80,416.48C1006.67,417.55 1004.21,417.48 1001.89,417.39" fill="#231f20"/>
    <path d="M1071.24,431.43C1071.23,431.43 1071.23,431.43 1071.23,431.43C1071.23,431.43 1071.23,431.43 1071.24,431.43" fill="#f1d1a7"/>
    <path d="M1068.86,418.89C1068.81,418.74 1068.76,418.59 1068.70,418.44C1069.13,418.49 1069.56,418.55 1069.99,418.58C1069.67,418.60 1069.35,418.66 1069.06,418.78C1068.99,418.81 1068.93,418.85 1068.86,418.89" fill="#f1d1a7"/>
    <path d="M1070.91,421.11C1070.80,421.21 1070.64,421.21 1070.53,421.11C1070.35,420.94 1070.16,420.77 1069.97,420.62C1069.89,420.56 1069.81,420.50 1069.73,420.44C1069.67,420.40 1069.62,420.35 1069.60,420.28C1069.58,420.22 1069.59,420.13 1069.63,420.08C1069.70,419.96 1069.87,419.89 1070.00,419.98C1070.32,420.20 1070.63,420.45 1070.91,420.73C1071.01,420.83 1071.02,421.01 1070.91,421.11M1075.02,433.79C1075.05,433.78 1075.08,433.77 1075.11,433.76C1075.14,433.75 1075.13,433.75 1075.10,433.76C1075.12,433.75 1075.13,433.75 1075.14,433.74C1075.17,433.73 1075.20,433.71 1075.23,433.69C1075.24,433.69 1075.25,433.68 1075.26,433.67C1075.27,433.67 1075.28,433.66 1075.28,433.66C1075.29,433.65 1075.30,433.64 1075.30,433.64C1075.31,433.63 1075.32,433.62 1075.33,433.61C1075.35,433.59 1075.37,433.57 1075.39,433.54C1075.35,433.58 1075.39,433.55 1075.40,433.54C1075.41,433.52 1075.42,433.51 1075.43,433.49C1075.50,433.37 1075.67,433.32 1075.79,433.40C1075.91,433.47 1075.97,433.64 1075.89,433.77C1075.70,434.07 1075.38,434.28 1075.03,434.33C1074.66,434.38 1074.27,434.24 1074.02,433.97C1073.92,433.87 1073.91,433.69 1074.02,433.59C1074.12,433.49 1074.29,433.48 1074.40,433.59C1074.42,433.61 1074.45,433.64 1074.47,433.66C1074.47,433.66 1074.47,433.66 1074.47,433.66C1074.48,433.67 1074.50,433.68 1074.51,433.68C1074.54,433.70 1074.57,433.72 1074.60,433.74C1074.61,433.74 1074.63,433.75 1074.64,433.76C1074.62,433.74 1074.61,433.74 1074.64,433.75C1074.67,433.77 1074.70,433.78 1074.74,433.78C1074.75,433.79 1074.77,433.79 1074.78,433.79C1074.78,433.79 1074.79,433.80 1074.80,433.80C1074.81,433.80 1074.83,433.80 1074.83,433.80C1074.85,433.80 1074.86,433.80 1074.88,433.80C1074.89,433.80 1074.91,433.80 1074.92,433.80C1074.93,433.80 1074.94,433.80 1074.95,433.80C1074.96,433.80 1074.97,433.80 1074.97,433.80C1074.99,433.79 1075.00,433.79 1075.02,433.79M1074.33,425.81C1074.23,425.90 1074.05,425.92 1073.95,425.81C1073.91,425.75 1073.86,425.70 1073.80,425.65C1073.78,425.62 1073.75,425.60 1073.72,425.58C1073.69,425.55 1073.75,425.60 1073.72,425.57C1073.70,425.56 1073.69,425.55 1073.67,425.54C1073.61,425.50 1073.55,425.46 1073.48,425.42C1073.47,425.42 1073.45,425.41 1073.44,425.40C1073.43,425.40 1073.37,425.38 1073.40,425.39C1073.43,425.40 1073.38,425.38 1073.38,425.38C1073.36,425.37 1073.34,425.36 1073.32,425.36C1073.26,425.34 1073.19,425.32 1073.12,425.30C1073.09,425.30 1073.06,425.29 1073.03,425.29C1073.02,425.29 1073.01,425.29 1073.00,425.28C1072.99,425.28 1072.97,425.28 1072.95,425.28C1072.88,425.28 1072.81,425.28 1072.74,425.28C1072.72,425.28 1072.70,425.29 1072.68,425.29C1072.70,425.29 1072.70,425.28 1072.68,425.29C1072.64,425.30 1072.60,425.30 1072.56,425.31C1072.42,425.35 1072.26,425.27 1072.23,425.12C1072.19,424.99 1072.27,424.83 1072.41,424.79C1073.10,424.63 1073.88,424.87 1074.33,425.43C1074.42,425.54 1074.45,425.70 1074.33,425.81M1078.02,426.86C1077.93,426.98 1077.78,427.02 1077.65,426.95C1077.56,426.91 1077.47,426.86 1077.38,426.82C1077.33,426.80 1077.29,426.78 1077.24,426.76C1077.30,426.78 1077.22,426.75 1077.20,426.74C1077.18,426.74 1077.16,426.73 1077.13,426.72C1076.94,426.64 1076.75,426.58 1076.55,426.53C1076.42,426.49 1076.32,426.33 1076.36,426.20C1076.41,426.06 1076.55,425.97 1076.69,426.01C1077.12,426.12 1077.53,426.29 1077.92,426.49C1078.04,426.55 1078.09,426.74 1078.02,426.86M1065.41,430.68C1065.51,431.24 1065.48,431.83 1065.54,432.40C1065.63,433.21 1066.10,433.79 1066.58,434.41C1067.61,435.76 1068.62,437.12 1069.69,438.44C1070.59,439.57 1071.57,440.61 1072.75,441.46C1073.88,442.27 1075.12,442.94 1076.42,443.45C1077.77,443.99 1079.20,444.36 1080.65,444.53C1080.23,443.49 1080.27,442.29 1080.22,441.19C1080.15,439.79 1080.08,438.39 1080.01,437.00C1080.00,436.65 1080.53,436.65 1080.55,437.00C1080.61,438.26 1080.68,439.53 1080.74,440.80C1080.79,441.89 1080.73,443.08 1081.06,444.13C1081.43,445.28 1082.54,445.73 1083.57,446.17C1084.67,446.65 1085.85,446.97 1087.06,446.83C1087.40,446.79 1087.40,447.33 1087.06,447.37C1086.75,447.40 1086.44,447.41 1086.14,447.39C1087.37,448.08 1088.44,449.03 1089.20,450.24C1089.67,451.01 1090.01,451.87 1090.19,452.76C1090.41,453.88 1090.47,455.01 1090.98,456.05C1091.48,457.09 1092.26,457.97 1093.23,458.60C1093.52,458.78 1093.25,459.25 1092.96,459.06C1091.27,457.98 1090.21,456.26 1089.89,454.29C1089.72,453.26 1089.59,452.23 1089.14,451.27C1088.76,450.45 1088.22,449.71 1087.57,449.08C1086.80,448.35 1085.89,447.78 1084.91,447.38C1084.80,447.33 1084.76,447.24 1084.75,447.15C1084.29,447.02 1083.84,446.87 1083.41,446.69C1082.50,446.30 1081.53,445.89 1080.95,445.09C1080.93,445.09 1080.93,445.11 1080.91,445.11C1080.49,445.06 1080.07,445.00 1079.66,444.92C1079.23,446.62 1079.47,448.40 1079.65,450.12C1079.72,450.84 1079.74,451.53 1079.70,452.24C1079.64,453.30 1079.74,454.35 1079.94,455.39C1080.07,456.04 1080.24,456.70 1080.46,457.36C1081.70,458.23 1083.18,458.59 1084.62,458.99C1085.39,459.21 1086.14,459.46 1086.86,459.79C1087.65,460.16 1088.41,460.60 1089.17,461.01C1092.10,462.57 1095.37,463.28 1098.68,463.02C1100.43,462.89 1102.16,462.46 1103.78,461.79C1103.67,461.59 1103.80,461.30 1104.05,461.40C1105.87,462.11 1107.95,461.73 1109.51,460.60C1110.30,460.02 1110.96,459.24 1111.33,458.33C1111.84,457.09 1111.85,455.71 1111.73,454.40C1111.31,449.80 1109.88,444.81 1105.89,442.06C1102.12,439.46 1097.36,438.98 1093.47,436.61C1092.39,435.94 1091.49,435.10 1090.78,434.05C1090.03,432.93 1089.41,431.71 1088.78,430.52C1088.13,429.29 1087.50,428.04 1086.91,426.77C1086.37,425.62 1085.93,424.37 1085.21,423.31C1084.50,422.26 1083.39,421.70 1082.25,421.21C1080.98,420.67 1079.71,420.13 1078.40,419.70C1077.09,419.26 1075.76,418.97 1074.39,418.84C1073.30,418.74 1072.21,418.70 1071.12,418.65C1071.31,418.79 1071.28,419.14 1070.99,419.12C1070.49,419.10 1069.96,419.07 1069.47,419.21C1068.90,419.36 1068.57,419.76 1068.38,420.31C1067.99,421.49 1067.95,422.80 1068.07,424.02C1068.32,426.58 1069.40,428.95 1070.49,431.24C1070.50,431.26 1070.51,431.28 1070.52,431.30C1070.56,431.23 1070.62,431.16 1070.69,431.11C1070.81,431.01 1070.95,430.93 1071.11,430.90C1071.27,430.88 1071.44,430.89 1071.59,430.95C1071.61,430.96 1071.61,430.97 1071.63,430.97C1071.48,430.43 1071.32,429.89 1071.18,429.34C1071.14,429.21 1071.12,429.08 1071.08,428.96C1071.06,429.00 1071.05,429.04 1071.00,429.06C1070.64,429.23 1070.26,429.32 1069.86,429.31C1069.72,429.31 1069.59,429.19 1069.59,429.05C1069.60,428.90 1069.71,428.77 1069.86,428.78C1069.95,428.78 1070.03,428.77 1070.12,428.77C1070.13,428.76 1070.15,428.76 1070.17,428.76C1070.17,428.76 1070.17,428.76 1070.18,428.76C1070.22,428.75 1070.26,428.74 1070.30,428.74C1070.38,428.72 1070.46,428.70 1070.54,428.67C1070.58,428.66 1070.62,428.64 1070.66,428.63C1070.68,428.62 1070.69,428.61 1070.71,428.61C1070.64,428.63 1070.71,428.61 1070.73,428.60C1070.80,428.57 1070.86,428.55 1070.94,428.57C1070.96,428.58 1070.98,428.61 1071.00,428.62C1070.81,427.85 1070.61,427.09 1070.44,426.32C1070.24,425.43 1070.14,424.55 1070.67,423.76C1071.21,422.95 1072.09,422.36 1072.86,421.78C1073.78,421.09 1074.75,420.46 1075.75,419.90C1076.05,419.73 1076.32,420.19 1076.02,420.36C1074.53,421.20 1073.08,422.18 1071.79,423.32C1071.18,423.87 1070.74,424.47 1070.81,425.33C1070.88,426.20 1071.17,427.09 1071.38,427.94C1071.79,429.62 1072.17,431.35 1072.79,432.97C1073.34,434.40 1074.33,435.56 1075.82,436.04C1076.51,436.26 1077.52,436.43 1078.20,436.11C1078.63,435.91 1078.81,435.35 1078.86,434.90C1078.90,434.52 1078.82,434.14 1078.67,433.79C1078.65,433.78 1078.62,433.79 1078.61,433.77C1078.53,433.66 1078.44,433.56 1078.34,433.47C1078.29,433.43 1078.24,433.39 1078.19,433.34C1078.19,433.34 1078.18,433.34 1078.18,433.34C1078.17,433.33 1078.15,433.32 1078.14,433.31C1078.11,433.29 1078.08,433.27 1078.05,433.25C1077.94,433.18 1077.82,433.12 1077.70,433.06C1077.69,433.05 1077.67,433.05 1077.65,433.04C1077.65,433.04 1077.65,433.04 1077.64,433.04C1077.56,433.41 1077.40,433.77 1077.17,434.08C1077.08,434.19 1076.93,434.25 1076.80,434.17C1076.68,434.11 1076.61,433.92 1076.70,433.81C1077.12,433.26 1077.29,432.55 1077.13,431.89C1077.11,431.80 1077.14,431.72 1077.19,431.65C1077.13,431.58 1077.06,431.50 1077.00,431.42C1076.56,430.79 1076.17,430.13 1075.85,429.43C1075.24,428.13 1074.74,426.70 1075.36,425.30C1076.04,423.75 1077.57,422.89 1079.00,422.14C1079.31,421.98 1079.58,422.44 1079.28,422.60C1078.22,423.16 1077.12,423.73 1076.36,424.68C1076.02,425.11 1075.75,425.62 1075.64,426.16C1075.51,426.79 1075.65,427.42 1075.86,428.02C1076.24,429.14 1076.80,430.23 1077.50,431.19C1077.66,431.41 1077.84,431.66 1078.11,431.73C1078.43,431.82 1078.80,431.73 1079.10,431.66C1079.68,431.53 1080.22,431.31 1080.73,431.01C1081.23,430.71 1081.78,430.30 1081.97,429.72C1082.13,429.23 1081.91,428.50 1081.31,428.48C1081.12,428.47 1081.04,428.30 1081.07,428.15C1080.67,428.46 1080.20,428.69 1079.70,428.77C1079.56,428.80 1079.41,428.73 1079.37,428.58C1079.33,428.46 1079.41,428.28 1079.56,428.25C1080.50,428.10 1081.32,427.41 1081.61,426.51C1081.66,426.37 1081.80,426.28 1081.94,426.32C1082.08,426.36 1082.18,426.51 1082.13,426.65C1081.97,427.14 1081.68,427.58 1081.31,427.94C1081.88,427.96 1082.31,428.36 1082.49,428.88C1082.68,429.44 1082.50,430.02 1082.16,430.48C1081.36,431.55 1079.85,432.17 1078.56,432.29C1078.21,432.32 1077.93,432.25 1077.69,432.10C1077.71,432.24 1077.71,432.37 1077.71,432.50C1078.12,432.64 1078.50,432.87 1078.80,433.18C1078.90,433.17 1078.99,433.19 1079.05,433.30C1079.47,434.06 1079.53,434.98 1079.17,435.78C1078.81,436.58 1078.08,436.79 1077.25,436.80C1075.65,436.81 1074.09,436.04 1073.14,434.76C1072.99,434.56 1072.86,434.35 1072.74,434.13C1072.69,434.25 1072.55,434.34 1072.42,434.30C1071.36,433.94 1070.75,432.99 1070.28,432.04C1069.66,430.80 1069.08,429.52 1068.58,428.23C1068.08,426.91 1067.70,425.55 1067.55,424.15C1067.40,422.82 1067.43,421.34 1067.90,420.07C1068.02,419.73 1068.20,419.44 1068.44,419.21C1068.42,419.18 1068.39,419.17 1068.38,419.14C1067.97,417.79 1067.04,416.36 1065.49,416.26C1065.14,416.24 1064.79,416.28 1064.47,416.42C1064.34,416.48 1064.19,416.56 1064.08,416.67C1063.93,416.82 1063.93,417.03 1063.91,417.23C1063.82,418.04 1063.72,418.84 1063.77,419.65C1063.77,419.66 1063.78,419.66 1063.78,419.67C1064.18,421.93 1065.10,424.07 1066.49,425.89C1067.12,426.71 1067.99,427.45 1068.28,428.48C1068.51,429.33 1068.28,430.37 1067.41,430.76C1066.78,431.04 1066.07,430.92 1065.41,430.68" fill="#f1d1a7"/>
    <path d="M1089.81,461.94C1090.20,462.12 1090.60,462.29 1091.00,462.45C1090.90,462.54 1090.81,462.63 1090.70,462.71C1089.53,463.48 1088.06,463.77 1086.66,463.67C1086.46,463.64 1086.26,463.60 1086.07,463.55C1083.42,462.89 1081.75,460.66 1080.77,458.20C1082.07,458.93 1083.58,459.23 1085.00,459.66C1086.73,460.19 1088.20,461.17 1089.81,461.94" fill="#0d68b2"/>
    <path d="M1071.22,431.43L1071.23,431.43C1071.22,431.43 1071.22,431.43 1071.21,431.43C1071.21,431.43 1071.22,431.43 1071.22,431.43" fill="#f1d1a7"/>
    <path d="M1054.14,417.95C1055.43,417.91 1056.71,417.84 1058.00,417.93C1058.96,417.99 1060.00,418.12 1060.81,418.67C1060.59,418.78 1060.37,418.91 1060.16,419.07C1059.19,419.87 1058.98,421.04 1059.23,422.23C1059.67,424.44 1060.66,426.70 1062.15,428.39C1062.85,429.17 1063.68,429.85 1064.61,430.33C1064.67,430.36 1064.73,430.38 1064.78,430.41C1065.06,431.25 1064.88,432.14 1065.10,432.99C1065.33,433.86 1066.02,434.57 1066.56,435.27C1068.48,437.76 1070.26,440.44 1072.91,442.22C1074.78,443.48 1076.92,444.36 1079.13,444.82C1078.64,446.82 1079.03,448.86 1079.18,450.88C1079.24,451.77 1079.12,452.65 1079.17,453.55C1079.23,454.63 1079.42,455.70 1079.72,456.75C1079.77,456.96 1079.85,457.16 1079.92,457.37C1079.88,457.48 1079.89,457.62 1080.01,457.71C1080.01,457.72 1080.02,457.73 1080.03,457.73C1080.55,459.24 1081.27,460.68 1082.36,461.86C1082.59,462.12 1082.85,462.35 1083.11,462.57C1082.31,462.18 1081.53,461.75 1080.73,461.40C1078.93,460.61 1076.98,460.03 1075.00,460.08C1073.16,460.13 1071.44,460.78 1069.98,461.87C1068.70,462.82 1067.64,464.01 1066.66,465.27L1048.16,417.20C1050.04,417.98 1052.13,418.02 1054.14,417.95" fill="#0d68b2"/>
    <path d="M1070.76,431.81C1070.78,431.80 1070.80,431.81 1070.81,431.80C1070.88,431.76 1070.91,431.71 1070.94,431.64C1070.91,431.72 1070.94,431.64 1070.95,431.62C1070.96,431.60 1070.96,431.59 1070.97,431.58C1070.97,431.58 1070.98,431.58 1070.98,431.57C1070.98,431.57 1070.98,431.57 1070.98,431.57C1070.99,431.56 1071.00,431.55 1071.01,431.54C1071.02,431.53 1071.04,431.51 1071.05,431.50C1071.06,431.49 1071.07,431.49 1071.08,431.48C1071.10,431.47 1071.12,431.46 1071.14,431.45C1071.15,431.45 1071.16,431.45 1071.17,431.44C1071.18,431.44 1071.20,431.44 1071.21,431.43C1071.20,431.44 1071.20,431.43 1071.23,431.43C1071.24,431.43 1071.25,431.43 1071.26,431.43C1071.28,431.43 1071.29,431.43 1071.30,431.43C1071.30,431.43 1071.31,431.43 1071.32,431.43C1071.33,431.43 1071.34,431.44 1071.36,431.44C1071.38,431.44 1071.40,431.45 1071.42,431.46C1071.43,431.46 1071.44,431.47 1071.45,431.47C1071.47,431.48 1071.48,431.50 1071.50,431.51C1071.51,431.52 1071.52,431.53 1071.53,431.53C1071.54,431.54 1071.55,431.55 1071.55,431.56C1071.58,431.59 1071.56,431.57 1071.55,431.55C1071.59,431.61 1071.64,431.65 1071.71,431.67C1071.75,431.68 1071.78,431.66 1071.82,431.66C1071.87,431.85 1071.92,432.05 1071.98,432.25C1072.09,432.61 1072.22,432.96 1072.36,433.31C1072.28,433.35 1072.21,433.41 1072.21,433.53C1072.21,433.56 1072.21,433.59 1072.21,433.62C1071.53,433.24 1071.11,432.52 1070.76,431.81" fill="#f1d1a7"/>
    <path d="M1063.23,418.91C1063.22,419.22 1063.21,419.53 1063.24,419.84C1063.24,419.89 1063.27,419.92 1063.30,419.96C1063.69,422.07 1064.54,424.09 1065.79,425.84C1066.35,426.61 1067.09,427.28 1067.55,428.12C1067.95,428.85 1068.01,430.06 1067.02,430.33C1066.41,430.50 1065.72,430.28 1065.12,429.99C1065.18,429.97 1065.23,429.93 1065.26,429.87C1065.29,429.88 1065.31,429.90 1065.34,429.91C1065.49,429.96 1065.62,429.85 1065.67,429.72C1065.69,429.66 1065.66,429.75 1065.68,429.69C1065.69,429.67 1065.70,429.65 1065.71,429.63C1065.73,429.59 1065.75,429.55 1065.77,429.51C1065.81,429.43 1065.86,429.35 1065.90,429.28C1065.93,429.24 1065.96,429.20 1065.99,429.16C1066.00,429.14 1066.01,429.13 1066.02,429.11C1066.04,429.09 1066.00,429.13 1066.03,429.10C1066.09,429.03 1066.15,428.96 1066.21,428.89C1066.28,428.83 1066.34,428.76 1066.41,428.70C1066.44,428.67 1066.48,428.64 1066.51,428.61L1066.56,428.58C1066.52,428.61 1066.58,428.56 1066.58,428.56C1066.73,428.45 1066.89,428.36 1067.05,428.28C1067.16,428.23 1067.18,428.10 1067.16,427.99C1067.21,427.92 1067.25,427.83 1067.18,427.72C1066.87,427.21 1066.41,426.76 1065.86,426.52C1065.38,426.31 1064.86,426.32 1064.45,426.67C1064.11,426.96 1063.95,427.42 1063.90,427.85C1063.83,428.40 1063.94,429.05 1064.29,429.51C1063.53,429.03 1062.86,428.42 1062.29,427.73C1061.01,426.16 1060.18,424.12 1059.76,422.15C1059.54,421.13 1059.69,420.13 1060.54,419.45C1061.31,418.84 1062.30,418.71 1063.23,418.91" fill="#f1d1a7"/>
    <path d="M1064.90,427.00C1065.10,426.88 1065.33,426.90 1065.55,426.97C1066.00,427.13 1066.38,427.50 1066.65,427.89C1065.99,428.26 1065.47,428.84 1065.17,429.53C1065.15,429.52 1065.14,429.50 1065.12,429.49C1064.72,429.37 1064.54,428.97 1064.46,428.59C1064.38,428.21 1064.40,427.77 1064.57,427.41C1064.64,427.25 1064.74,427.10 1064.90,427.00" fill="#f1d1a7"/>
    <path d="M1075.10,433.76C1075.12,433.75 1075.13,433.75 1075.14,433.74C1075.17,433.73 1075.20,433.71 1075.23,433.69C1075.24,433.69 1075.25,433.68 1075.26,433.67C1075.27,433.67 1075.28,433.66 1075.28,433.66C1075.29,433.65 1075.30,433.64 1075.30,433.64C1075.31,433.63 1075.32,433.62 1075.33,433.61C1075.35,433.59 1075.37,433.57 1075.39,433.54C1075.35,433.59 1075.39,433.55 1075.40,433.54C1075.41,433.52 1075.42,433.51 1075.42,433.49C1075.50,433.37 1075.67,433.32 1075.79,433.40C1075.91,433.47 1075.97,433.64 1075.89,433.76C1075.70,434.07 1075.39,434.28 1075.03,434.33C1074.66,434.38 1074.28,434.24 1074.02,433.97C1073.92,433.87 1073.91,433.69 1074.02,433.59C1074.12,433.49 1074.29,433.48 1074.40,433.59C1074.42,433.61 1074.45,433.63 1074.47,433.66C1074.48,433.66 1074.47,433.66 1074.47,433.66C1074.48,433.67 1074.50,433.68 1074.51,433.69C1074.54,433.70 1074.57,433.72 1074.60,433.74C1074.61,433.74 1074.62,433.75 1074.64,433.76C1074.62,433.75 1074.61,433.75 1074.64,433.75C1074.67,433.76 1074.70,433.78 1074.74,433.78C1074.75,433.79 1074.77,433.79 1074.78,433.79C1074.78,433.79 1074.79,433.80 1074.80,433.80C1074.81,433.80 1074.83,433.80 1074.83,433.80C1074.85,433.80 1074.86,433.80 1074.88,433.80C1074.89,433.80 1074.91,433.80 1074.92,433.80C1074.93,433.80 1074.94,433.80 1074.95,433.80C1074.96,433.80 1074.97,433.79 1074.97,433.79C1074.99,433.79 1075.00,433.79 1075.02,433.79C1075.05,433.78 1075.08,433.77 1075.11,433.76C1075.14,433.75 1075.12,433.75 1075.10,433.76" fill="#231f20"/>
    <path d="M1073.95,425.81C1073.91,425.75 1073.86,425.70 1073.80,425.65C1073.78,425.62 1073.75,425.60 1073.72,425.58C1073.69,425.55 1073.75,425.60 1073.72,425.57C1073.70,425.56 1073.69,425.55 1073.67,425.54C1073.61,425.50 1073.55,425.46 1073.48,425.43C1073.47,425.42 1073.45,425.41 1073.44,425.40C1073.43,425.40 1073.37,425.38 1073.40,425.39C1073.43,425.40 1073.38,425.38 1073.38,425.38C1073.36,425.37 1073.34,425.36 1073.32,425.36C1073.26,425.34 1073.19,425.32 1073.12,425.30C1073.09,425.30 1073.06,425.29 1073.03,425.29C1073.02,425.29 1073.01,425.28 1073.00,425.28C1072.99,425.28 1072.97,425.28 1072.95,425.28C1072.88,425.28 1072.81,425.28 1072.74,425.28C1072.72,425.28 1072.70,425.29 1072.68,425.29C1072.70,425.29 1072.70,425.28 1072.68,425.29C1072.64,425.30 1072.60,425.30 1072.56,425.31C1072.42,425.35 1072.26,425.27 1072.23,425.12C1072.19,424.99 1072.27,424.83 1072.41,424.79C1073.11,424.63 1073.88,424.87 1074.33,425.43C1074.42,425.54 1074.45,425.70 1074.33,425.81C1074.23,425.90 1074.05,425.92 1073.95,425.81" fill="#231f20"/>
    <path d="M1077.65,426.95C1077.56,426.91 1077.47,426.86 1077.38,426.82C1077.33,426.80 1077.29,426.78 1077.24,426.76C1077.30,426.78 1077.22,426.75 1077.21,426.74C1077.18,426.74 1077.16,426.73 1077.13,426.72C1076.94,426.64 1076.75,426.58 1076.55,426.53C1076.42,426.49 1076.32,426.33 1076.36,426.19C1076.41,426.06 1076.55,425.97 1076.69,426.01C1077.12,426.12 1077.53,426.28 1077.92,426.49C1078.04,426.55 1078.09,426.74 1078.02,426.86C1077.93,426.98 1077.78,427.02 1077.65,426.95" fill="#231f20"/>
    <path d="M1070.53,421.11C1070.35,420.94 1070.16,420.77 1069.97,420.62C1069.89,420.56 1069.81,420.50 1069.73,420.44C1069.67,420.40 1069.62,420.35 1069.60,420.28C1069.58,420.22 1069.59,420.13 1069.63,420.08C1069.70,419.96 1069.87,419.89 1070.00,419.98C1070.32,420.20 1070.63,420.45 1070.91,420.73C1071.01,420.83 1071.02,421.01 1070.91,421.11C1070.80,421.21 1070.64,421.21 1070.53,421.11" fill="#231f20"/>
    <path d="M1071.23,431.43L1071.23,431.43C1071.21,431.43 1071.20,431.43 1071.21,431.43C1071.22,431.43 1071.22,431.43 1071.23,431.43" fill="#231f20"/>
    <path d="M1066.80,465.96C1066.60,466.23 1066.13,465.96 1066.34,465.69C1066.44,465.55 1066.56,465.41 1066.66,465.27L1066.89,465.85C1066.86,465.89 1066.83,465.92 1066.80,465.96" fill="#231f20"/>
    <path d="M1047.71,416.40C1047.77,416.43 1047.83,416.45 1047.88,416.48L1048.16,417.20C1047.92,417.10 1047.68,416.99 1047.44,416.87C1047.14,416.70 1047.41,416.24 1047.71,416.40" fill="#231f20"/>
    <path d="M1063.23,418.91C1063.22,419.22 1063.21,419.53 1063.24,419.84C1063.24,419.89 1063.27,419.92 1063.30,419.96C1063.69,422.07 1064.54,424.09 1065.79,425.84C1066.35,426.61 1067.09,427.28 1067.55,428.12C1067.95,428.85 1068.01,430.06 1067.02,430.33C1066.41,430.50 1065.72,430.28 1065.12,429.99C1065.18,429.97 1065.23,429.93 1065.26,429.87C1065.29,429.88 1065.31,429.90 1065.34,429.91C1065.49,429.96 1065.62,429.85 1065.67,429.72C1065.69,429.66 1065.66,429.75 1065.68,429.69C1065.69,429.67 1065.70,429.65 1065.71,429.63C1065.73,429.59 1065.75,429.55 1065.77,429.51C1065.81,429.43 1065.86,429.35 1065.90,429.28C1065.93,429.24 1065.96,429.20 1065.99,429.16C1066.00,429.14 1066.01,429.13 1066.02,429.11C1066.04,429.09 1066.00,429.13 1066.03,429.10C1066.09,429.03 1066.15,428.96 1066.21,428.89C1066.28,428.83 1066.34,428.76 1066.41,428.70C1066.44,428.67 1066.48,428.64 1066.51,428.61L1066.56,428.58C1066.52,428.61 1066.58,428.56 1066.58,428.56C1066.73,428.45 1066.89,428.36 1067.05,428.28C1067.16,428.23 1067.18,428.10 1067.16,427.99C1067.21,427.92 1067.25,427.83 1067.18,427.72C1066.87,427.21 1066.41,426.76 1065.86,426.52C1065.38,426.31 1064.86,426.32 1064.45,426.67C1064.11,426.96 1063.95,427.42 1063.90,427.85C1063.83,428.40 1063.94,429.05 1064.29,429.51C1063.53,429.03 1062.86,428.42 1062.29,427.73C1061.01,426.16 1060.18,424.12 1059.76,422.15C1059.54,421.13 1059.69,420.13 1060.54,419.45C1061.31,418.84 1062.30,418.71 1063.23,418.91M1064.57,427.41C1064.64,427.25 1064.74,427.10 1064.90,427.00C1065.10,426.88 1065.33,426.90 1065.55,426.97C1066.00,427.13 1066.38,427.50 1066.65,427.89C1065.98,428.26 1065.47,428.84 1065.17,429.53C1065.15,429.52 1065.15,429.50 1065.12,429.49C1064.72,429.37 1064.54,428.97 1064.46,428.59C1064.38,428.21 1064.40,427.77 1064.57,427.41M1072.21,433.53C1072.21,433.56 1072.21,433.59 1072.21,433.62C1071.53,433.24 1071.11,432.52 1070.76,431.81C1070.78,431.80 1070.80,431.81 1070.81,431.80C1070.88,431.76 1070.91,431.71 1070.94,431.64C1070.91,431.72 1070.94,431.64 1070.95,431.62C1070.96,431.60 1070.96,431.59 1070.97,431.58C1070.97,431.58 1070.98,431.58 1070.98,431.57C1070.98,431.57 1070.98,431.57 1070.98,431.57C1070.99,431.56 1071.00,431.55 1071.01,431.54C1071.02,431.53 1071.04,431.51 1071.05,431.50C1071.06,431.49 1071.07,431.49 1071.08,431.48C1071.10,431.47 1071.12,431.46 1071.14,431.45C1071.15,431.45 1071.16,431.45 1071.17,431.44C1071.18,431.44 1071.20,431.44 1071.21,431.43C1071.22,431.43 1071.22,431.43 1071.22,431.43L1071.23,431.43C1071.23,431.43 1071.23,431.43 1071.24,431.43C1071.23,431.43 1071.23,431.43 1071.23,431.43C1071.24,431.43 1071.25,431.43 1071.27,431.43C1071.28,431.43 1071.29,431.43 1071.30,431.43C1071.30,431.43 1071.31,431.43 1071.32,431.43C1071.33,431.43 1071.34,431.44 1071.36,431.44C1071.38,431.44 1071.40,431.45 1071.42,431.46C1071.43,431.46 1071.44,431.47 1071.45,431.47C1071.47,431.48 1071.48,431.50 1071.50,431.51C1071.51,431.52 1071.52,431.53 1071.53,431.53C1071.54,431.54 1071.55,431.55 1071.55,431.56C1071.58,431.59 1071.56,431.57 1071.55,431.55C1071.59,431.61 1071.64,431.65 1071.71,431.67C1071.75,431.68 1071.78,431.66 1071.82,431.66C1071.88,431.85 1071.92,432.05 1071.98,432.25C1072.09,432.61 1072.22,432.96 1072.36,433.31C1072.28,433.35 1072.21,433.41 1072.21,433.53M1065.41,430.68C1066.07,430.92 1066.78,431.04 1067.42,430.76C1068.28,430.37 1068.52,429.33 1068.28,428.48C1068.00,427.45 1067.12,426.71 1066.49,425.89C1065.10,424.07 1064.18,421.93 1063.78,419.67C1063.78,419.66 1063.77,419.66 1063.77,419.65C1063.72,418.84 1063.82,418.04 1063.91,417.23C1063.93,417.03 1063.93,416.82 1064.08,416.66C1064.19,416.56 1064.34,416.48 1064.47,416.42C1064.79,416.28 1065.14,416.24 1065.49,416.26C1067.04,416.36 1067.97,417.79 1068.38,419.14C1068.39,419.17 1068.42,419.18 1068.44,419.21C1068.20,419.44 1068.02,419.73 1067.90,420.07C1067.43,421.34 1067.40,422.82 1067.55,424.15C1067.70,425.55 1068.08,426.91 1068.58,428.23C1069.08,429.52 1069.66,430.80 1070.28,432.04C1070.75,432.99 1071.36,433.94 1072.42,434.30C1072.55,434.34 1072.69,434.25 1072.74,434.13C1072.86,434.34 1072.99,434.56 1073.14,434.76C1074.09,436.04 1075.65,436.81 1077.25,436.80C1078.08,436.79 1078.81,436.59 1079.17,435.78C1079.53,434.98 1079.47,434.06 1079.05,433.30C1078.99,433.19 1078.90,433.17 1078.80,433.18C1078.50,432.87 1078.12,432.64 1077.71,432.50C1077.71,432.37 1077.71,432.24 1077.69,432.10C1077.93,432.25 1078.21,432.32 1078.56,432.29C1079.85,432.17 1081.36,431.55 1082.16,430.48C1082.50,430.02 1082.68,429.44 1082.49,428.88C1082.31,428.36 1081.88,427.97 1081.31,427.94C1081.68,427.58 1081.97,427.14 1082.13,426.65C1082.18,426.51 1082.08,426.36 1081.94,426.32C1081.80,426.28 1081.66,426.37 1081.61,426.51C1081.32,427.42 1080.50,428.10 1079.56,428.25C1079.41,428.28 1079.33,428.46 1079.37,428.58C1079.41,428.73 1079.56,428.80 1079.70,428.77C1080.20,428.69 1080.67,428.47 1081.07,428.15C1081.04,428.30 1081.12,428.47 1081.31,428.48C1081.91,428.50 1082.13,429.23 1081.97,429.72C1081.78,430.30 1081.23,430.71 1080.73,431.01C1080.22,431.31 1079.68,431.53 1079.11,431.66C1078.80,431.73 1078.43,431.82 1078.11,431.73C1077.84,431.66 1077.66,431.41 1077.50,431.19C1076.80,430.23 1076.24,429.15 1075.86,428.02C1075.65,427.42 1075.51,426.79 1075.64,426.16C1075.75,425.62 1076.02,425.11 1076.36,424.68C1077.12,423.73 1078.23,423.16 1079.28,422.60C1079.58,422.44 1079.31,421.98 1079.01,422.14C1077.57,422.90 1076.04,423.75 1075.36,425.30C1074.74,426.70 1075.25,428.13 1075.85,429.43C1076.17,430.13 1076.56,430.79 1077.00,431.42C1077.06,431.50 1077.13,431.58 1077.19,431.65C1077.14,431.72 1077.11,431.80 1077.13,431.89C1077.29,432.55 1077.12,433.26 1076.70,433.81C1076.61,433.92 1076.68,434.11 1076.80,434.17C1076.93,434.25 1077.08,434.19 1077.17,434.08C1077.40,433.77 1077.56,433.41 1077.64,433.04C1077.65,433.04 1077.65,433.04 1077.66,433.04C1077.67,433.05 1077.69,433.05 1077.70,433.06C1077.82,433.12 1077.94,433.18 1078.05,433.25C1078.08,433.27 1078.11,433.29 1078.14,433.31C1078.15,433.32 1078.17,433.33 1078.18,433.34C1078.18,433.34 1078.19,433.34 1078.19,433.35C1078.24,433.39 1078.29,433.43 1078.34,433.47C1078.44,433.56 1078.53,433.66 1078.61,433.77C1078.63,433.79 1078.65,433.78 1078.67,433.79C1078.82,434.14 1078.90,434.52 1078.86,434.91C1078.81,435.34 1078.63,435.91 1078.20,436.11C1077.52,436.43 1076.51,436.26 1075.82,436.04C1074.33,435.56 1073.34,434.40 1072.79,432.97C1072.17,431.35 1071.79,429.62 1071.38,427.94C1071.17,427.09 1070.88,426.20 1070.81,425.33C1070.74,424.47 1071.18,423.87 1071.79,423.32C1073.08,422.18 1074.53,421.21 1076.02,420.36C1076.32,420.19 1076.05,419.73 1075.75,419.90C1074.75,420.46 1073.78,421.09 1072.86,421.78C1072.09,422.36 1071.22,422.95 1070.67,423.76C1070.14,424.55 1070.24,425.43 1070.44,426.32C1070.61,427.09 1070.81,427.85 1071.00,428.62C1070.98,428.61 1070.96,428.58 1070.94,428.57C1070.86,428.55 1070.80,428.57 1070.73,428.60C1070.72,428.61 1070.64,428.63 1070.71,428.61C1070.69,428.61 1070.68,428.62 1070.66,428.63C1070.62,428.65 1070.58,428.66 1070.54,428.67C1070.46,428.70 1070.38,428.72 1070.31,428.73C1070.26,428.74 1070.22,428.75 1070.18,428.76C1070.17,428.76 1070.17,428.76 1070.17,428.76C1070.15,428.76 1070.13,428.76 1070.12,428.77C1070.03,428.77 1069.95,428.78 1069.86,428.78C1069.71,428.78 1069.60,428.90 1069.59,429.05C1069.59,429.19 1069.72,429.31 1069.86,429.31C1070.26,429.32 1070.64,429.23 1071.00,429.06C1071.05,429.04 1071.06,429.00 1071.08,428.96C1071.12,429.08 1071.14,429.21 1071.18,429.34C1071.32,429.89 1071.48,430.43 1071.63,430.97C1071.62,430.97 1071.61,430.96 1071.59,430.95C1071.44,430.89 1071.27,430.88 1071.11,430.91C1070.95,430.93 1070.81,431.01 1070.69,431.11C1070.62,431.16 1070.56,431.23 1070.52,431.30C1070.51,431.28 1070.50,431.26 1070.49,431.24C1069.40,428.95 1068.32,426.58 1068.07,424.02C1067.95,422.80 1067.99,421.49 1068.38,420.31C1068.57,419.76 1068.90,419.36 1069.47,419.21C1069.96,419.07 1070.49,419.10 1070.99,419.12C1071.28,419.14 1071.31,418.79 1071.12,418.65C1072.21,418.71 1073.30,418.74 1074.39,418.84C1075.76,418.97 1077.09,419.26 1078.40,419.70C1079.71,420.13 1080.99,420.67 1082.25,421.21C1083.39,421.70 1084.50,422.26 1085.21,423.31C1085.93,424.37 1086.37,425.62 1086.91,426.77C1087.51,428.04 1088.13,429.29 1088.78,430.52C1089.41,431.71 1090.03,432.93 1090.78,434.05C1091.49,435.10 1092.39,435.94 1093.47,436.61C1097.36,438.98 1102.12,439.46 1105.89,442.06C1109.88,444.81 1111.31,449.80 1111.73,454.40C1111.85,455.71 1111.84,457.09 1111.33,458.33C1110.96,459.24 1110.30,460.02 1109.51,460.60C1107.95,461.73 1105.87,462.11 1104.05,461.40C1103.80,461.30 1103.67,461.59 1103.78,461.79C1102.16,462.46 1100.43,462.89 1098.68,463.02C1095.37,463.28 1092.10,462.57 1089.18,461.01C1088.41,460.60 1087.65,460.16 1086.86,459.79C1086.14,459.46 1085.39,459.21 1084.62,458.99C1083.18,458.59 1081.70,458.24 1080.46,457.36C1080.24,456.70 1080.07,456.04 1079.94,455.39C1079.74,454.35 1079.64,453.30 1079.70,452.24C1079.74,451.53 1079.72,450.84 1079.65,450.12C1079.47,448.40 1079.23,446.62 1079.66,444.92C1080.07,445.00 1080.49,445.06 1080.91,445.10C1080.93,445.11 1080.94,445.09 1080.95,445.09C1081.53,445.89 1082.50,446.30 1083.41,446.69C1083.84,446.87 1084.29,447.02 1084.75,447.15C1084.76,447.24 1084.80,447.33 1084.91,447.38C1085.89,447.78 1086.80,448.35 1087.57,449.08C1088.22,449.71 1088.76,450.45 1089.14,451.27C1089.60,452.23 1089.72,453.26 1089.89,454.29C1090.21,456.26 1091.27,457.98 1092.96,459.06C1093.25,459.25 1093.52,458.78 1093.23,458.60C1092.26,457.97 1091.48,457.09 1090.98,456.05C1090.47,455.01 1090.41,453.88 1090.19,452.76C1090.01,451.87 1089.67,451.01 1089.20,450.24C1088.44,449.03 1087.37,448.08 1086.14,447.39C1086.44,447.41 1086.75,447.40 1087.06,447.37C1087.40,447.33 1087.40,446.79 1087.06,446.83C1085.85,446.97 1084.67,446.65 1083.57,446.17C1082.54,445.73 1081.43,445.28 1081.06,444.13C1080.73,443.08 1080.79,441.89 1080.74,440.80C1080.68,439.53 1080.61,438.26 1080.55,437.00C1080.53,436.65 1080.00,436.65 1080.01,437.00C1080.08,438.39 1080.15,439.79 1080.22,441.19C1080.28,442.29 1080.23,443.49 1080.65,444.53C1079.20,444.36 1077.78,443.98 1076.42,443.45C1075.12,442.94 1073.88,442.27 1072.75,441.46C1071.57,440.61 1070.59,439.57 1069.69,438.44C1068.62,437.12 1067.61,435.76 1066.58,434.41C1066.10,433.79 1065.63,433.21 1065.54,432.40C1065.48,431.83 1065.51,431.25 1065.41,430.68M1080.77,458.20C1082.07,458.93 1083.58,459.23 1085.01,459.66C1086.73,460.19 1088.20,461.17 1089.81,461.94C1090.20,462.12 1090.60,462.29 1091.00,462.45C1090.91,462.54 1090.81,462.63 1090.70,462.72C1089.53,463.48 1088.07,463.77 1086.66,463.67C1086.46,463.64 1086.26,463.60 1086.07,463.55C1083.42,462.89 1081.75,460.66 1080.77,458.20M1069.99,418.58C1069.67,418.60 1069.36,418.66 1069.06,418.78C1068.99,418.81 1068.93,418.85 1068.86,418.89C1068.81,418.74 1068.76,418.59 1068.70,418.44C1069.13,418.49 1069.56,418.55 1069.99,418.58M1047.88,416.48L1048.16,417.20C1050.04,417.98 1052.13,418.02 1054.14,417.95C1055.43,417.91 1056.71,417.84 1058.00,417.93C1058.96,417.99 1059.99,418.12 1060.81,418.67C1060.59,418.78 1060.37,418.91 1060.16,419.07C1059.19,419.87 1058.99,421.04 1059.23,422.23C1059.68,424.44 1060.66,426.70 1062.15,428.39C1062.85,429.17 1063.68,429.85 1064.61,430.33C1064.67,430.36 1064.73,430.38 1064.78,430.41C1065.06,431.25 1064.88,432.14 1065.10,432.99C1065.33,433.86 1066.02,434.57 1066.56,435.27C1068.48,437.76 1070.26,440.44 1072.91,442.22C1074.78,443.48 1076.92,444.36 1079.13,444.82C1078.64,446.82 1079.03,448.86 1079.18,450.88C1079.24,451.77 1079.12,452.65 1079.17,453.55C1079.23,454.63 1079.42,455.70 1079.71,456.75C1079.78,456.96 1079.85,457.16 1079.92,457.37C1079.88,457.49 1079.89,457.62 1080.01,457.71C1080.01,457.72 1080.02,457.73 1080.03,457.73C1080.55,459.24 1081.27,460.68 1082.36,461.86C1082.59,462.12 1082.85,462.35 1083.11,462.57C1082.31,462.18 1081.53,461.75 1080.73,461.40C1078.93,460.61 1076.98,460.03 1075.00,460.08C1073.16,460.13 1071.44,460.78 1069.98,461.87C1068.70,462.82 1067.64,464.02 1066.66,465.27L1066.89,465.85C1068.08,464.28 1069.42,462.76 1071.12,461.75C1072.81,460.74 1074.75,460.43 1076.69,460.72C1078.66,461.02 1080.47,461.83 1082.23,462.73C1083.65,463.46 1085.07,464.07 1086.64,464.20C1086.73,464.21 1086.82,464.23 1086.91,464.24C1088.47,464.39 1090.07,463.97 1091.26,462.95C1091.38,462.86 1091.52,462.77 1091.64,462.67C1092.60,463.00 1093.58,463.25 1094.59,463.40C1097.89,463.91 1101.29,463.48 1104.35,462.13C1104.38,462.12 1104.38,462.09 1104.40,462.07C1104.71,462.16 1105.02,462.23 1105.34,462.27C1107.26,462.49 1109.29,461.72 1110.63,460.33C1112.43,458.48 1112.48,455.89 1112.16,453.48C1111.86,451.13 1111.34,448.78 1110.34,446.62C1109.34,444.47 1107.82,442.66 1105.83,441.37C1103.89,440.12 1101.69,439.37 1099.53,438.61C1097.25,437.81 1094.78,437.04 1092.85,435.53C1091.78,434.69 1091.07,433.57 1090.41,432.40C1089.71,431.15 1089.03,429.88 1088.39,428.59C1087.74,427.30 1087.13,425.99 1086.54,424.67C1086.02,423.53 1085.43,422.46 1084.38,421.72C1083.35,420.99 1082.10,420.56 1080.94,420.08C1079.65,419.55 1078.34,419.06 1076.98,418.73C1074.18,418.05 1071.28,418.30 1068.45,417.88C1068.28,417.55 1068.08,417.25 1067.85,416.96C1067.02,415.97 1065.59,415.39 1064.33,415.90C1064.06,416.01 1063.77,416.17 1063.59,416.42C1063.38,416.71 1063.39,417.09 1063.35,417.43C1063.31,417.74 1063.28,418.06 1063.26,418.37C1062.64,418.26 1062.02,418.28 1061.43,418.44C1060.65,417.78 1059.71,417.57 1058.71,417.45C1057.41,417.30 1056.10,417.35 1054.80,417.39C1052.47,417.48 1050.01,417.55 1047.88,416.48" fill="#231f20"/>
    <path d="M1004.05,447.09C1005.19,446.61 1006.29,445.97 1007.34,445.30C1009.26,444.08 1011.00,442.62 1012.56,440.97C1012.47,440.97 1012.37,440.96 1012.28,440.95C1011.93,440.93 1011.93,440.39 1012.28,440.41L1013.97,440.52C1014.52,440.56 1015.08,440.62 1015.64,440.57C1016.53,440.48 1017.21,439.90 1017.59,439.11C1017.77,438.73 1017.89,438.31 1017.91,437.88C1017.92,437.63 1017.91,437.46 1017.65,437.36C1017.42,437.28 1017.17,437.23 1016.93,437.16C1015.80,436.85 1014.68,436.55 1013.55,436.24C1013.22,436.15 1013.36,435.63 1013.69,435.72C1014.86,436.04 1016.02,436.36 1017.18,436.68C1017.37,436.73 1017.59,436.77 1017.80,436.84C1018.13,436.57 1018.50,436.43 1018.88,436.26C1019.36,436.04 1019.64,435.79 1019.77,435.28C1020.01,434.31 1020.21,433.11 1019.22,432.50C1018.40,431.99 1017.31,431.97 1016.38,431.84L1012.73,431.36C1012.39,431.31 1012.39,430.78 1012.73,430.82C1013.99,430.99 1015.25,431.16 1016.51,431.32C1017.48,431.45 1018.78,431.56 1019.63,432.15C1019.66,432.12 1019.69,432.08 1019.76,432.07C1020.64,431.89 1021.13,430.99 1021.13,430.14C1021.12,429.23 1020.55,428.40 1019.95,427.76C1019.61,427.40 1019.24,427.03 1018.82,426.78C1018.36,426.51 1017.82,426.46 1017.30,426.40C1015.04,426.12 1012.78,425.84 1010.53,425.56C1010.19,425.52 1010.18,424.99 1010.53,425.03C1012.03,425.21 1013.54,425.40 1015.04,425.58C1015.71,425.67 1016.37,425.75 1017.04,425.83C1017.59,425.90 1018.19,425.93 1018.72,426.13C1019.22,426.33 1019.64,426.70 1020.02,427.07C1020.23,427.27 1020.42,427.48 1020.60,427.70C1020.65,427.59 1020.75,427.51 1020.89,427.57C1021.36,427.75 1021.47,425.87 1021.49,425.62C1021.55,424.90 1021.60,424.11 1021.43,423.40C1021.10,422.03 1019.65,421.79 1018.47,421.51C1017.06,421.18 1015.63,420.95 1014.19,420.81C1012.77,420.68 1011.34,420.64 1009.91,420.70C1008.86,420.74 1007.11,420.69 1006.63,421.87C1006.66,421.95 1006.65,422.05 1006.59,422.13C1003.39,426.15 1000.04,430.04 996.54,433.80C996.42,433.93 996.26,433.88 996.16,433.77C993.62,436.69 993.87,447.21 995.83,449.10C997.23,448.57 998.67,448.17 1000.15,447.94C1001.48,447.74 1002.80,447.62 1004.05,447.09" fill="#f1d1a7"/>
    <path d="M996.73,433.28L996.59,432.94C996.44,433.10 996.31,433.26 996.16,433.42C996.05,433.53 996.08,433.68 996.16,433.77C996.34,433.57 996.53,433.40 996.73,433.28" fill="#231f20"/>
    <path d="M995.83,449.10C995.79,449.12 995.74,449.13 995.69,449.15C995.38,449.28 995.52,449.80 995.84,449.67C996.09,449.57 996.35,449.50 996.61,449.41L996.48,449.40C996.24,449.40 996.03,449.29 995.83,449.10" fill="#231f20"/>
    <path d="M1003.89,447.73C1005.07,447.29 1006.20,446.64 1007.28,445.98C1008.32,445.33 1009.31,444.63 1010.26,443.86C1011.33,442.99 1012.33,442.04 1013.26,441.03C1013.96,441.09 1014.66,441.14 1015.36,441.12C1016.18,441.10 1016.92,440.82 1017.48,440.22C1018.00,439.67 1018.31,438.95 1018.41,438.20C1018.46,437.86 1018.51,437.45 1018.28,437.15C1018.86,436.74 1019.65,436.67 1020.05,436.02C1020.28,435.65 1020.35,435.19 1020.42,434.77C1020.50,434.33 1020.54,433.89 1020.47,433.45C1020.41,433.07 1020.25,432.78 1020.04,432.53C1020.80,432.32 1021.35,431.66 1021.56,430.91C1021.82,429.99 1021.54,429.04 1021.03,428.26C1021.00,428.21 1020.96,428.17 1020.93,428.12C1021.42,428.16 1021.73,427.57 1021.82,427.14C1021.99,426.31 1022.07,425.46 1022.07,424.61C1022.08,423.93 1022.03,423.22 1021.71,422.61C1021.40,422.02 1020.84,421.67 1020.23,421.44C1019.47,421.16 1018.65,421.00 1017.86,420.83C1017.02,420.65 1016.18,420.51 1015.33,420.40C1013.64,420.18 1011.94,420.10 1010.23,420.15C1008.80,420.19 1006.52,420.14 1006.04,421.88C1006.04,421.91 1006.05,421.92 1006.05,421.94C1003.04,425.73 999.88,429.39 996.59,432.94L996.74,433.28C996.53,433.40 996.34,433.57 996.16,433.77C996.26,433.88 996.42,433.93 996.54,433.80C1000.04,430.04 1003.39,426.15 1006.59,422.13C1006.65,422.05 1006.66,421.95 1006.63,421.87C1007.11,420.69 1008.86,420.74 1009.91,420.70C1011.34,420.64 1012.77,420.68 1014.19,420.81C1015.63,420.95 1017.06,421.18 1018.47,421.51C1019.65,421.79 1021.10,422.03 1021.43,423.40C1021.60,424.11 1021.55,424.90 1021.49,425.62C1021.47,425.88 1021.36,427.74 1020.89,427.57C1020.75,427.51 1020.65,427.59 1020.60,427.70C1020.42,427.48 1020.23,427.27 1020.02,427.07C1019.64,426.70 1019.22,426.33 1018.72,426.14C1018.19,425.93 1017.59,425.90 1017.03,425.83C1016.37,425.75 1015.71,425.67 1015.04,425.58C1013.54,425.40 1012.03,425.21 1010.53,425.03C1010.18,424.98 1010.19,425.52 1010.53,425.57C1012.78,425.84 1015.04,426.12 1017.30,426.40C1017.82,426.46 1018.36,426.51 1018.82,426.78C1019.24,427.03 1019.61,427.40 1019.95,427.76C1020.55,428.40 1021.12,429.23 1021.13,430.14C1021.13,430.99 1020.64,431.89 1019.76,432.07C1019.69,432.08 1019.66,432.12 1019.63,432.15C1018.78,431.55 1017.48,431.45 1016.51,431.32C1015.25,431.16 1013.99,430.99 1012.73,430.82C1012.39,430.78 1012.39,431.32 1012.73,431.36L1016.38,431.84C1017.31,431.97 1018.40,431.99 1019.22,432.50C1020.21,433.11 1020.01,434.31 1019.77,435.28C1019.64,435.79 1019.36,436.04 1018.89,436.26C1018.50,436.43 1018.13,436.57 1017.80,436.84C1017.59,436.77 1017.37,436.73 1017.18,436.67C1016.02,436.36 1014.86,436.04 1013.69,435.72C1013.36,435.63 1013.22,436.15 1013.55,436.24C1014.68,436.55 1015.80,436.85 1016.93,437.16C1017.17,437.23 1017.42,437.28 1017.65,437.36C1017.91,437.46 1017.92,437.63 1017.91,437.88C1017.89,438.30 1017.77,438.73 1017.59,439.11C1017.21,439.90 1016.53,440.48 1015.64,440.57C1015.08,440.62 1014.52,440.56 1013.97,440.52L1012.28,440.42C1011.93,440.39 1011.93,440.93 1012.28,440.95C1012.37,440.96 1012.47,440.97 1012.56,440.97C1011.00,442.62 1009.26,444.08 1007.34,445.30C1006.29,445.97 1005.20,446.61 1004.05,447.09C1002.80,447.61 1001.47,447.74 1000.15,447.94C998.67,448.17 997.23,448.57 995.83,449.10C996.03,449.29 996.24,449.40 996.48,449.40L996.61,449.41C997.67,449.04 998.75,448.73 999.86,448.53C1001.21,448.29 1002.59,448.22 1003.89,447.73" fill="#231f20"/>
    <path d="M1050.18,447.09C1049.03,446.61 1047.93,445.97 1046.88,445.30C1044.96,444.08 1043.22,442.62 1041.66,440.97C1041.76,440.97 1041.85,440.96 1041.95,440.95C1042.29,440.93 1042.29,440.39 1041.95,440.41L1040.26,440.52C1039.70,440.56 1039.14,440.62 1038.59,440.57C1037.70,440.48 1037.02,439.90 1036.63,439.11C1036.45,438.73 1036.34,438.31 1036.31,437.88C1036.30,437.63 1036.32,437.46 1036.58,437.36C1036.81,437.28 1037.06,437.23 1037.30,437.16C1038.42,436.85 1039.55,436.55 1040.67,436.24C1041.01,436.15 1040.86,435.63 1040.53,435.72C1039.37,436.04 1038.20,436.36 1037.04,436.68C1036.85,436.73 1036.63,436.77 1036.43,436.84C1036.10,436.57 1035.72,436.43 1035.34,436.26C1034.87,436.04 1034.59,435.79 1034.46,435.28C1034.22,434.31 1034.02,433.11 1035.00,432.50C1035.83,431.99 1036.92,431.97 1037.85,431.84L1041.50,431.36C1041.83,431.31 1041.84,430.78 1041.50,430.82C1040.24,430.99 1038.98,431.16 1037.72,431.32C1036.74,431.45 1035.44,431.56 1034.59,432.15C1034.56,432.12 1034.53,432.08 1034.47,432.07C1033.59,431.89 1033.09,430.99 1033.10,430.14C1033.10,429.23 1033.67,428.40 1034.28,427.76C1034.62,427.40 1034.98,427.03 1035.41,426.78C1035.86,426.51 1036.40,426.46 1036.92,426.40C1039.18,426.12 1041.44,425.84 1043.70,425.56C1044.04,425.52 1044.04,424.99 1043.70,425.03C1042.19,425.21 1040.69,425.40 1039.18,425.58C1038.52,425.67 1037.85,425.75 1037.19,425.83C1036.63,425.90 1036.04,425.93 1035.51,426.13C1035.00,426.33 1034.59,426.70 1034.20,427.07C1034.00,427.27 1033.80,427.48 1033.62,427.70C1033.57,427.59 1033.48,427.51 1033.33,427.57C1032.87,427.75 1032.76,425.87 1032.74,425.62C1032.67,424.90 1032.62,424.11 1032.79,423.40C1033.12,422.03 1034.58,421.79 1035.76,421.51C1037.16,421.18 1038.59,420.95 1040.03,420.81C1041.46,420.68 1042.89,420.64 1044.31,420.70C1045.36,420.74 1047.12,420.69 1047.59,421.87C1047.57,421.95 1047.57,422.05 1047.64,422.13C1050.83,426.15 1054.18,430.04 1057.68,433.80C1057.81,433.93 1057.97,433.88 1058.06,433.77C1060.60,436.69 1060.36,447.21 1058.39,449.10C1056.99,448.57 1055.55,448.17 1054.07,447.94C1052.75,447.74 1051.43,447.62 1050.18,447.09" fill="#f1d1a7"/>
    <path d="M1057.49,433.28L1057.63,432.94C1057.78,433.10 1057.92,433.26 1058.06,433.42C1058.17,433.53 1058.14,433.68 1058.06,433.77C1057.88,433.57 1057.69,433.40 1057.49,433.28" fill="#231f20"/>
    <path d="M1058.39,449.10C1058.44,449.12 1058.48,449.13 1058.53,449.15C1058.85,449.28 1058.71,449.80 1058.39,449.67C1058.13,449.57 1057.87,449.50 1057.61,449.41L1057.75,449.40C1057.98,449.40 1058.19,449.29 1058.39,449.10" fill="#231f20"/>
    <path d="M1050.34,447.73C1049.15,447.29 1048.03,446.64 1046.95,445.98C1045.91,445.33 1044.91,444.63 1043.96,443.86C1042.89,442.99 1041.89,442.04 1040.96,441.03C1040.26,441.09 1039.56,441.14 1038.86,441.12C1038.05,441.10 1037.30,440.82 1036.74,440.22C1036.23,439.67 1035.91,438.95 1035.81,438.20C1035.76,437.86 1035.72,437.45 1035.95,437.15C1035.36,436.74 1034.58,436.67 1034.17,436.02C1033.94,435.65 1033.88,435.19 1033.80,434.77C1033.73,434.33 1033.68,433.89 1033.75,433.45C1033.82,433.07 1033.98,432.78 1034.18,432.53C1033.42,432.32 1032.88,431.66 1032.66,430.91C1032.41,429.99 1032.68,429.04 1033.19,428.26C1033.22,428.21 1033.26,428.17 1033.30,428.12C1032.81,428.16 1032.50,427.57 1032.41,427.14C1032.24,426.31 1032.16,425.46 1032.15,424.61C1032.15,423.93 1032.19,423.22 1032.51,422.61C1032.83,422.02 1033.39,421.67 1034.00,421.44C1034.76,421.16 1035.57,421.00 1036.36,420.83C1037.20,420.65 1038.04,420.51 1038.89,420.40C1040.58,420.18 1042.29,420.10 1043.99,420.15C1045.43,420.19 1047.70,420.14 1048.18,421.88C1048.19,421.91 1048.17,421.92 1048.17,421.94C1051.19,425.73 1054.35,429.39 1057.64,432.94L1057.49,433.28C1057.69,433.40 1057.88,433.57 1058.06,433.77C1057.97,433.88 1057.81,433.93 1057.68,433.80C1054.18,430.04 1050.83,426.15 1047.64,422.13C1047.57,422.05 1047.57,421.95 1047.59,421.87C1047.12,420.69 1045.36,420.74 1044.31,420.70C1042.88,420.64 1041.45,420.68 1040.03,420.81C1038.59,420.95 1037.16,421.18 1035.76,421.51C1034.58,421.79 1033.12,422.03 1032.79,423.40C1032.62,424.11 1032.68,424.90 1032.74,425.62C1032.76,425.88 1032.87,427.74 1033.34,427.57C1033.48,427.51 1033.57,427.59 1033.62,427.70C1033.80,427.48 1034.00,427.27 1034.20,427.07C1034.59,426.70 1035.00,426.33 1035.51,426.14C1036.04,425.93 1036.63,425.90 1037.19,425.83C1037.85,425.75 1038.52,425.67 1039.18,425.58C1040.69,425.40 1042.19,425.21 1043.70,425.03C1044.04,424.98 1044.04,425.52 1043.70,425.57C1041.44,425.84 1039.18,426.12 1036.92,426.40C1036.40,426.46 1035.86,426.51 1035.41,426.78C1034.98,427.03 1034.62,427.40 1034.28,427.76C1033.67,428.40 1033.10,429.23 1033.10,430.14C1033.09,430.99 1033.59,431.89 1034.47,432.07C1034.53,432.08 1034.56,432.12 1034.59,432.15C1035.44,431.55 1036.74,431.45 1037.72,431.32C1038.98,431.16 1040.24,430.99 1041.50,430.82C1041.84,430.78 1041.84,431.32 1041.50,431.36L1037.85,431.84C1036.92,431.97 1035.83,431.99 1035.00,432.50C1034.02,433.11 1034.22,434.31 1034.46,435.28C1034.59,435.79 1034.87,436.04 1035.34,436.26C1035.72,436.43 1036.10,436.57 1036.43,436.84C1036.63,436.77 1036.85,436.73 1037.04,436.67C1038.20,436.36 1039.37,436.04 1040.53,435.72C1040.86,435.63 1041.01,436.15 1040.67,436.24C1039.55,436.55 1038.42,436.85 1037.30,437.16C1037.06,437.23 1036.81,437.28 1036.58,437.36C1036.32,437.46 1036.30,437.63 1036.31,437.88C1036.34,438.30 1036.45,438.73 1036.63,439.11C1037.02,439.90 1037.70,440.48 1038.59,440.57C1039.14,440.62 1039.71,440.56 1040.26,440.52L1041.95,440.42C1042.29,440.39 1042.29,440.93 1041.95,440.95C1041.85,440.96 1041.76,440.97 1041.66,440.97C1043.22,442.62 1044.96,444.08 1046.88,445.30C1047.93,445.97 1049.03,446.61 1050.18,447.09C1051.43,447.61 1052.75,447.74 1054.07,447.94C1055.55,448.17 1057.00,448.57 1058.39,449.10C1058.19,449.29 1057.98,449.40 1057.75,449.40L1057.61,449.41C1056.55,449.04 1055.47,448.73 1054.37,448.53C1053.01,448.29 1051.63,448.22 1050.34,447.73" fill="#231f20"/>
    <path d="M1036.57,446.55C1036.57,446.55 1065.06,449.80 1093.04,430.34" fill="none" stroke="#231f20" stroke-width="1.08"/>
    <path d="M1089.76,438.68C1089.49,438.56 1089.36,438.24 1089.48,437.97L1092.81,430.45L1084.59,430.61C1084.29,430.62 1084.05,430.38 1084.04,430.09C1084.04,429.79 1084.27,429.54 1084.57,429.54L1093.64,429.36C1093.82,429.35 1093.99,429.44 1094.10,429.60C1094.20,429.75 1094.21,429.95 1094.14,430.11L1090.47,438.41C1090.43,438.50 1090.36,438.58 1090.27,438.64C1090.13,438.73 1089.93,438.76 1089.76,438.68" fill="#231f20"/>
    <path d="M1015.84,446.55C1015.84,446.55 987.34,449.80 959.37,430.34" fill="none" stroke="#231f20" stroke-width="1.08"/>
    <path d="M968.37,430.09C968.36,430.38 968.11,430.62 967.82,430.61L959.59,430.45L962.92,437.97C963.04,438.24 962.92,438.56 962.65,438.68C962.38,438.80 962.06,438.68 961.94,438.41L958.27,430.11C958.19,429.94 958.21,429.75 958.31,429.60C958.42,429.44 958.59,429.35 958.77,429.36L967.84,429.54C967.94,429.54 968.04,429.57 968.13,429.63C968.27,429.73 968.37,429.90 968.37,430.09" fill="#231f20"/>
  </g>
</svg>